M48
; DRILL file {KiCad (5.1.9)-1} date 03/02/21 01:46:50
; FORMAT={-:-/ absolute / inch / decimal}
; #@! TF.CreationDate,2021-03-02T01:46:50-05:00
; #@! TF.GenerationSoftware,Kicad,Pcbnew,(5.1.9)-1
; #@! TF.FileFunction,Plated,1,2,PTH
FMAT,2
INCH
T1C0.0157
T2C0.0197
T3C0.0315
T4C0.0374
T5C0.0394
T6C0.0433
T7C0.1378
%
G90
G05
T1
X0.52Y-0.16
X0.635Y-2.005
X0.7798Y-1.7239
X0.7955Y-1.7515
X0.827Y-1.7515
X0.8428Y-1.7239
X0.8585Y-1.7515
X0.8743Y-1.7239
X0.9057Y-1.7239
X0.9215Y-1.7515
X0.9372Y-1.7239
X0.953Y-1.7515
X0.9845Y-1.7515
X0.985Y-1.365
X1.0002Y-1.7239
X1.04Y-1.59
X1.095Y-1.075
X1.1Y-1.355
X1.595Y-1.115
X1.75Y-0.62
X1.75Y-0.675
X1.75Y-1.065
X1.75Y-1.105
X1.75Y-1.145
X1.75Y-1.61
X1.75Y-1.85
X1.8Y-1.96
X1.805Y-1.76
X1.82Y-1.545
X1.8725Y-1.2625
X1.875Y-1.97
X1.98Y-1.7
X2.0Y-1.54
X2.0087Y-1.8487
X2.015Y-1.74
X2.055Y-1.77
X2.0698Y-1.8802
X2.1Y-1.505
X2.1107Y-1.7857
X2.145Y-1.25
X2.1652Y-1.5002
X2.2Y-0.86
X2.205Y-0.93
X2.315Y-0.68
X2.315Y-1.75
X2.346Y-0.899
X2.35Y-1.385
X2.36Y-0.72
X2.385Y-1.96
X2.395Y-1.32
X2.4Y-1.065
X2.4018Y-1.2318
X2.505Y-0.725
X2.54Y-1.095
X2.545Y-0.325
X2.5488Y-0.9188
X2.605Y0.205
X2.605Y-0.935
X2.6075Y-0.6425
X2.63Y-0.9
X2.645Y-0.695
X2.645Y-1.195
X2.685Y-0.895
X2.695Y-0.485
X2.73Y-0.42
X2.755Y-1.48
X2.765Y-0.375
X2.765Y-1.305
X2.775Y-0.99
X2.825Y-1.305
X2.85Y-0.655
X2.865Y-1.11
X2.87Y-1.04
X2.8775Y-0.5925
X2.925Y-0.94
X2.9325Y-0.5125
X2.9537Y-1.1737
X3.065Y-0.685
X3.1188Y0.215
X3.155Y-1.095
X3.17Y-1.59
X3.175Y-1.185
X3.185Y-1.24
X3.305Y-0.82
X3.3275Y-1.2675
X3.33Y-1.515
X3.3325Y-0.6575
X3.375Y-1.21
X3.395Y-1.52
X3.5346Y-0.6504
X3.56Y-0.62
X3.595Y-0.585
X3.615Y-0.63
X3.675Y-1.16
X3.68Y0.21
X3.72Y-1.16
X3.77Y-1.16
X3.825Y-1.455
X3.84Y-1.16
X3.85Y-1.97
X3.89Y-1.16
X3.935Y-1.16
X3.97Y-0.435
X3.975Y-1.16
X4.075Y-0.76
X4.115Y-0.76
X4.145Y-0.76
X4.185Y-0.77
X4.2138Y0.21
X4.555Y-1.09
T2
X0.2117Y0.25
X0.2117Y-1.9
X0.2419Y0.3231
X0.2419Y0.1769
X0.2419Y-1.8269
X0.2419Y-1.9731
X0.315Y0.3533
X0.315Y0.1467
X0.315Y-1.7967
X0.315Y-2.0033
X0.3881Y0.3231
X0.3881Y0.1769
X0.3881Y-1.8269
X0.3881Y-1.9731
X0.4183Y0.25
X0.4183Y-1.9
X4.7467Y0.25
X4.7467Y-1.9
X4.7769Y0.3231
X4.7769Y0.1769
X4.7769Y-1.8269
X4.7769Y-1.9731
X4.85Y0.3533
X4.85Y0.1467
X4.85Y-1.7967
X4.85Y-2.0033
X4.9231Y0.3231
X4.9231Y0.1769
X4.9231Y-1.8269
X4.9231Y-1.9731
X4.9533Y0.25
X4.9533Y-1.9
T3
X1.385Y-0.83
X1.5771Y-0.83
X1.9Y-0.835
X2.0921Y-0.835
X4.7516Y-0.19
X4.7516Y-0.52
X4.7516Y-0.85
X4.85Y-0.19
X4.85Y-0.52
X4.85Y-0.85
T4
X2.475Y0.0753
X2.475Y-0.0231
X2.475Y-0.1216
X2.475Y-0.22
X2.725Y0.0753
X2.725Y-0.0231
X2.725Y-0.1216
X2.725Y-0.22
X2.985Y0.0703
X2.985Y-0.0281
X2.985Y-0.1266
X2.985Y-0.225
X3.255Y0.0719
X3.255Y-0.0266
X3.255Y-0.125
X3.255Y-0.2234
X3.525Y0.0753
X3.525Y-0.0231
X3.525Y-0.1216
X3.525Y-0.22
X3.815Y0.0803
X3.815Y-0.0181
X3.815Y-0.1166
X3.815Y-0.215
X4.075Y0.0734
X4.075Y-0.025
X4.075Y-0.1234
X4.075Y-0.2219
X4.335Y0.0734
X4.335Y-0.025
X4.335Y-0.1234
X4.335Y-0.2219
X4.44Y-1.3031
X4.44Y-1.4016
X4.44Y-1.5
X4.44Y-1.5984
X4.74Y-1.32
X4.74Y-1.4184
X4.74Y-1.5169
T5
X0.675Y0.275
X0.675Y0.175
X0.675Y0.075
X0.825Y0.275
X0.825Y0.175
X0.825Y0.075
X0.975Y0.275
X0.975Y0.175
X0.975Y0.075
X1.125Y0.275
X1.125Y0.175
X1.125Y0.075
X1.275Y0.275
X1.275Y0.175
X1.275Y0.075
X1.425Y0.275
X1.425Y0.175
X1.425Y0.075
X1.575Y0.275
X1.575Y0.175
X1.575Y0.075
X1.725Y0.275
X1.725Y0.175
X1.725Y0.075
X1.875Y0.275
X1.875Y0.175
X1.875Y0.075
X2.025Y0.275
X2.025Y0.175
X2.025Y0.075
X4.05Y-1.33
X4.05Y-1.43
X4.05Y-1.53
X4.05Y-1.7
X4.05Y-1.8
X4.05Y-1.9
X4.15Y-1.33
X4.15Y-1.43
X4.15Y-1.53
X4.15Y-1.7
X4.15Y-1.8
X4.15Y-1.9
X4.42Y-1.935
X4.52Y-1.935
T6
X3.21Y-1.75
X3.21Y-1.9272
X3.4659Y-1.75
X3.4659Y-1.9272
T7
X0.315Y0.25
X0.315Y-1.9
X4.85Y0.25
X4.85Y-1.9
T2
G00X0.7132Y-1.97
M15
G01X0.7132Y-1.9936
M16
G05
G00X0.7274Y-1.7357
M15
G01X0.7274Y-1.7594
M16
G05
G00X1.0526Y-1.7357
M15
G01X1.0526Y-1.7594
M16
G05
G00X1.0668Y-1.97
M15
G01X1.0668Y-1.9936
M16
G05
T0
M30
