%TF.GenerationSoftware,KiCad,Pcbnew,(5.1.9)-1*%
%TF.CreationDate,2021-03-02T01:46:48-05:00*%
%TF.ProjectId,sailboatController,7361696c-626f-4617-9443-6f6e74726f6c,rev?*%
%TF.SameCoordinates,Original*%
%TF.FileFunction,Copper,L1,Top*%
%TF.FilePolarity,Positive*%
%FSLAX46Y46*%
G04 Gerber Fmt 4.6, Leading zero omitted, Abs format (unit mm)*
G04 Created by KiCad (PCBNEW (5.1.9)-1) date 2021-03-02 01:46:48*
%MOMM*%
%LPD*%
G01*
G04 APERTURE LIST*
%TA.AperFunction,EtchedComponent*%
%ADD10C,0.100000*%
%TD*%
%TA.AperFunction,ComponentPad*%
%ADD11O,1.700000X1.700000*%
%TD*%
%TA.AperFunction,ComponentPad*%
%ADD12R,1.700000X1.700000*%
%TD*%
%TA.AperFunction,SMDPad,CuDef*%
%ADD13C,0.100000*%
%TD*%
%TA.AperFunction,SMDPad,CuDef*%
%ADD14R,1.500000X1.000000*%
%TD*%
%TA.AperFunction,ComponentPad*%
%ADD15C,1.600000*%
%TD*%
%TA.AperFunction,ComponentPad*%
%ADD16R,1.600000X1.600000*%
%TD*%
%TA.AperFunction,ComponentPad*%
%ADD17C,0.800000*%
%TD*%
%TA.AperFunction,ComponentPad*%
%ADD18C,7.000000*%
%TD*%
%TA.AperFunction,ComponentPad*%
%ADD19O,1.950000X1.700000*%
%TD*%
%TA.AperFunction,ComponentPad*%
%ADD20C,2.000000*%
%TD*%
%TA.AperFunction,SMDPad,CuDef*%
%ADD21R,6.400000X5.800000*%
%TD*%
%TA.AperFunction,SMDPad,CuDef*%
%ADD22R,2.200000X1.200000*%
%TD*%
%TA.AperFunction,SMDPad,CuDef*%
%ADD23R,0.550000X1.600000*%
%TD*%
%TA.AperFunction,SMDPad,CuDef*%
%ADD24R,1.600000X0.550000*%
%TD*%
%TA.AperFunction,SMDPad,CuDef*%
%ADD25R,1.900000X1.300000*%
%TD*%
%TA.AperFunction,SMDPad,CuDef*%
%ADD26R,2.800000X1.000000*%
%TD*%
%TA.AperFunction,SMDPad,CuDef*%
%ADD27R,0.800000X1.000000*%
%TD*%
%TA.AperFunction,SMDPad,CuDef*%
%ADD28R,1.200000X1.000000*%
%TD*%
%TA.AperFunction,SMDPad,CuDef*%
%ADD29R,1.200000X0.700000*%
%TD*%
%TA.AperFunction,ComponentPad*%
%ADD30C,0.650000*%
%TD*%
%TA.AperFunction,ComponentPad*%
%ADD31O,0.800000X1.400000*%
%TD*%
%TA.AperFunction,SMDPad,CuDef*%
%ADD32R,0.300000X0.700000*%
%TD*%
%TA.AperFunction,ComponentPad*%
%ADD33C,1.500000*%
%TD*%
%TA.AperFunction,ViaPad*%
%ADD34C,0.800000*%
%TD*%
%TA.AperFunction,Conductor*%
%ADD35C,0.800000*%
%TD*%
%TA.AperFunction,Conductor*%
%ADD36C,1.000000*%
%TD*%
%TA.AperFunction,Conductor*%
%ADD37C,0.700000*%
%TD*%
%TA.AperFunction,Conductor*%
%ADD38C,0.400000*%
%TD*%
%TA.AperFunction,Conductor*%
%ADD39C,0.250000*%
%TD*%
%TA.AperFunction,Conductor*%
%ADD40C,0.500000*%
%TD*%
%TA.AperFunction,Conductor*%
%ADD41C,0.600000*%
%TD*%
%TA.AperFunction,Conductor*%
%ADD42C,0.300000*%
%TD*%
G04 APERTURE END LIST*
D10*
%TO.C,JP9*%
G36*
X69296000Y6944000D02*
G01*
X69296000Y7444000D01*
X69896000Y7444000D01*
X69896000Y6944000D01*
X69296000Y6944000D01*
G37*
%TO.C,JP8*%
G36*
X82250000Y7004000D02*
G01*
X82250000Y7504000D01*
X82850000Y7504000D01*
X82850000Y7004000D01*
X82250000Y7004000D01*
G37*
%TO.C,JP7*%
G36*
X109936000Y6974000D02*
G01*
X109936000Y7474000D01*
X110536000Y7474000D01*
X110536000Y6974000D01*
X109936000Y6974000D01*
G37*
%TO.C,JP6*%
G36*
X103332000Y6974000D02*
G01*
X103332000Y7474000D01*
X103932000Y7474000D01*
X103932000Y6974000D01*
X103332000Y6974000D01*
G37*
%TO.C,JP5*%
G36*
X62692000Y6944000D02*
G01*
X62692000Y7444000D01*
X63292000Y7444000D01*
X63292000Y6944000D01*
X62692000Y6944000D01*
G37*
%TO.C,JP4*%
G36*
X75900000Y6974000D02*
G01*
X75900000Y7474000D01*
X76500000Y7474000D01*
X76500000Y6974000D01*
X75900000Y6974000D01*
G37*
%TO.C,JP3*%
G36*
X96474000Y6974000D02*
G01*
X96474000Y7474000D01*
X97074000Y7474000D01*
X97074000Y6974000D01*
X96474000Y6974000D01*
G37*
%TO.C,JP2*%
G36*
X89362000Y6974000D02*
G01*
X89362000Y7474000D01*
X89962000Y7474000D01*
X89962000Y6974000D01*
X89362000Y6974000D01*
G37*
%TO.C,JP1*%
G36*
X56788000Y-34590000D02*
G01*
X57288000Y-34590000D01*
X57288000Y-33990000D01*
X56788000Y-33990000D01*
X56788000Y-34590000D01*
G37*
%TD*%
D11*
%TO.P,J5,2*%
%TO.N,Net-(2s_battery_pin1-Pad1)*%
X114808000Y-49149000D03*
D12*
%TO.P,J5,1*%
%TO.N,Net-(J5-Pad1)*%
X112268000Y-49149000D03*
%TD*%
%TO.P,C12,2*%
%TO.N,GND*%
%TA.AperFunction,SMDPad,CuDef*%
G36*
G01*
X83787000Y-26728000D02*
X82837000Y-26728000D01*
G75*
G02*
X82587000Y-26478000I0J250000D01*
G01*
X82587000Y-25803000D01*
G75*
G02*
X82837000Y-25553000I250000J0D01*
G01*
X83787000Y-25553000D01*
G75*
G02*
X84037000Y-25803000I0J-250000D01*
G01*
X84037000Y-26478000D01*
G75*
G02*
X83787000Y-26728000I-250000J0D01*
G01*
G37*
%TD.AperFunction*%
%TO.P,C12,1*%
%TO.N,Net-(C12-Pad1)*%
%TA.AperFunction,SMDPad,CuDef*%
G36*
G01*
X83787000Y-28803000D02*
X82837000Y-28803000D01*
G75*
G02*
X82587000Y-28553000I0J250000D01*
G01*
X82587000Y-27878000D01*
G75*
G02*
X82837000Y-27628000I250000J0D01*
G01*
X83787000Y-27628000D01*
G75*
G02*
X84037000Y-27878000I0J-250000D01*
G01*
X84037000Y-28553000D01*
G75*
G02*
X83787000Y-28803000I-250000J0D01*
G01*
G37*
%TD.AperFunction*%
%TD*%
%TA.AperFunction,SMDPad,CuDef*%
D13*
%TO.P,JP9,1*%
%TO.N,+3V3*%
G36*
X70346000Y7094000D02*
G01*
X70346000Y6544000D01*
X70345398Y6544000D01*
X70345398Y6519466D01*
X70340588Y6470635D01*
X70331016Y6422510D01*
X70316772Y6375555D01*
X70297995Y6330222D01*
X70274864Y6286949D01*
X70247604Y6246150D01*
X70216476Y6208221D01*
X70181779Y6173524D01*
X70143850Y6142396D01*
X70103051Y6115136D01*
X70059778Y6092005D01*
X70014445Y6073228D01*
X69967490Y6058984D01*
X69919365Y6049412D01*
X69870534Y6044602D01*
X69846000Y6044602D01*
X69846000Y6044000D01*
X69346000Y6044000D01*
X69346000Y6044602D01*
X69321466Y6044602D01*
X69272635Y6049412D01*
X69224510Y6058984D01*
X69177555Y6073228D01*
X69132222Y6092005D01*
X69088949Y6115136D01*
X69048150Y6142396D01*
X69010221Y6173524D01*
X68975524Y6208221D01*
X68944396Y6246150D01*
X68917136Y6286949D01*
X68894005Y6330222D01*
X68875228Y6375555D01*
X68860984Y6422510D01*
X68851412Y6470635D01*
X68846602Y6519466D01*
X68846602Y6544000D01*
X68846000Y6544000D01*
X68846000Y7094000D01*
X70346000Y7094000D01*
G37*
%TD.AperFunction*%
D14*
%TO.P,JP9,2*%
%TO.N,Net-(BNO55-Pad4)*%
X69596000Y7844000D03*
%TA.AperFunction,SMDPad,CuDef*%
D13*
%TO.P,JP9,3*%
%TO.N,USB_VIN*%
G36*
X68846602Y9144000D02*
G01*
X68846602Y9168534D01*
X68851412Y9217365D01*
X68860984Y9265490D01*
X68875228Y9312445D01*
X68894005Y9357778D01*
X68917136Y9401051D01*
X68944396Y9441850D01*
X68975524Y9479779D01*
X69010221Y9514476D01*
X69048150Y9545604D01*
X69088949Y9572864D01*
X69132222Y9595995D01*
X69177555Y9614772D01*
X69224510Y9629016D01*
X69272635Y9638588D01*
X69321466Y9643398D01*
X69346000Y9643398D01*
X69346000Y9644000D01*
X69846000Y9644000D01*
X69846000Y9643398D01*
X69870534Y9643398D01*
X69919365Y9638588D01*
X69967490Y9629016D01*
X70014445Y9614772D01*
X70059778Y9595995D01*
X70103051Y9572864D01*
X70143850Y9545604D01*
X70181779Y9514476D01*
X70216476Y9479779D01*
X70247604Y9441850D01*
X70274864Y9401051D01*
X70297995Y9357778D01*
X70316772Y9312445D01*
X70331016Y9265490D01*
X70340588Y9217365D01*
X70345398Y9168534D01*
X70345398Y9144000D01*
X70346000Y9144000D01*
X70346000Y8594000D01*
X68846000Y8594000D01*
X68846000Y9144000D01*
X68846602Y9144000D01*
G37*
%TD.AperFunction*%
%TD*%
%TA.AperFunction,SMDPad,CuDef*%
%TO.P,JP8,1*%
%TO.N,+3V3*%
G36*
X83300000Y7154000D02*
G01*
X83300000Y6604000D01*
X83299398Y6604000D01*
X83299398Y6579466D01*
X83294588Y6530635D01*
X83285016Y6482510D01*
X83270772Y6435555D01*
X83251995Y6390222D01*
X83228864Y6346949D01*
X83201604Y6306150D01*
X83170476Y6268221D01*
X83135779Y6233524D01*
X83097850Y6202396D01*
X83057051Y6175136D01*
X83013778Y6152005D01*
X82968445Y6133228D01*
X82921490Y6118984D01*
X82873365Y6109412D01*
X82824534Y6104602D01*
X82800000Y6104602D01*
X82800000Y6104000D01*
X82300000Y6104000D01*
X82300000Y6104602D01*
X82275466Y6104602D01*
X82226635Y6109412D01*
X82178510Y6118984D01*
X82131555Y6133228D01*
X82086222Y6152005D01*
X82042949Y6175136D01*
X82002150Y6202396D01*
X81964221Y6233524D01*
X81929524Y6268221D01*
X81898396Y6306150D01*
X81871136Y6346949D01*
X81848005Y6390222D01*
X81829228Y6435555D01*
X81814984Y6482510D01*
X81805412Y6530635D01*
X81800602Y6579466D01*
X81800602Y6604000D01*
X81800000Y6604000D01*
X81800000Y7154000D01*
X83300000Y7154000D01*
G37*
%TD.AperFunction*%
D14*
%TO.P,JP8,2*%
%TO.N,Net-(JP8-Pad2)*%
X82550000Y7904000D03*
%TA.AperFunction,SMDPad,CuDef*%
D13*
%TO.P,JP8,3*%
%TO.N,USB_VIN*%
G36*
X81800602Y9204000D02*
G01*
X81800602Y9228534D01*
X81805412Y9277365D01*
X81814984Y9325490D01*
X81829228Y9372445D01*
X81848005Y9417778D01*
X81871136Y9461051D01*
X81898396Y9501850D01*
X81929524Y9539779D01*
X81964221Y9574476D01*
X82002150Y9605604D01*
X82042949Y9632864D01*
X82086222Y9655995D01*
X82131555Y9674772D01*
X82178510Y9689016D01*
X82226635Y9698588D01*
X82275466Y9703398D01*
X82300000Y9703398D01*
X82300000Y9704000D01*
X82800000Y9704000D01*
X82800000Y9703398D01*
X82824534Y9703398D01*
X82873365Y9698588D01*
X82921490Y9689016D01*
X82968445Y9674772D01*
X83013778Y9655995D01*
X83057051Y9632864D01*
X83097850Y9605604D01*
X83135779Y9574476D01*
X83170476Y9539779D01*
X83201604Y9501850D01*
X83228864Y9461051D01*
X83251995Y9417778D01*
X83270772Y9372445D01*
X83285016Y9325490D01*
X83294588Y9277365D01*
X83299398Y9228534D01*
X83299398Y9204000D01*
X83300000Y9204000D01*
X83300000Y8654000D01*
X81800000Y8654000D01*
X81800000Y9204000D01*
X81800602Y9204000D01*
G37*
%TD.AperFunction*%
%TD*%
%TA.AperFunction,SMDPad,CuDef*%
%TO.P,JP7,1*%
%TO.N,+3V3*%
G36*
X110986000Y7124000D02*
G01*
X110986000Y6574000D01*
X110985398Y6574000D01*
X110985398Y6549466D01*
X110980588Y6500635D01*
X110971016Y6452510D01*
X110956772Y6405555D01*
X110937995Y6360222D01*
X110914864Y6316949D01*
X110887604Y6276150D01*
X110856476Y6238221D01*
X110821779Y6203524D01*
X110783850Y6172396D01*
X110743051Y6145136D01*
X110699778Y6122005D01*
X110654445Y6103228D01*
X110607490Y6088984D01*
X110559365Y6079412D01*
X110510534Y6074602D01*
X110486000Y6074602D01*
X110486000Y6074000D01*
X109986000Y6074000D01*
X109986000Y6074602D01*
X109961466Y6074602D01*
X109912635Y6079412D01*
X109864510Y6088984D01*
X109817555Y6103228D01*
X109772222Y6122005D01*
X109728949Y6145136D01*
X109688150Y6172396D01*
X109650221Y6203524D01*
X109615524Y6238221D01*
X109584396Y6276150D01*
X109557136Y6316949D01*
X109534005Y6360222D01*
X109515228Y6405555D01*
X109500984Y6452510D01*
X109491412Y6500635D01*
X109486602Y6549466D01*
X109486602Y6574000D01*
X109486000Y6574000D01*
X109486000Y7124000D01*
X110986000Y7124000D01*
G37*
%TD.AperFunction*%
D14*
%TO.P,JP7,2*%
%TO.N,Net-(Extra2-Pad4)*%
X110236000Y7874000D03*
%TA.AperFunction,SMDPad,CuDef*%
D13*
%TO.P,JP7,3*%
%TO.N,USB_VIN*%
G36*
X109486602Y9174000D02*
G01*
X109486602Y9198534D01*
X109491412Y9247365D01*
X109500984Y9295490D01*
X109515228Y9342445D01*
X109534005Y9387778D01*
X109557136Y9431051D01*
X109584396Y9471850D01*
X109615524Y9509779D01*
X109650221Y9544476D01*
X109688150Y9575604D01*
X109728949Y9602864D01*
X109772222Y9625995D01*
X109817555Y9644772D01*
X109864510Y9659016D01*
X109912635Y9668588D01*
X109961466Y9673398D01*
X109986000Y9673398D01*
X109986000Y9674000D01*
X110486000Y9674000D01*
X110486000Y9673398D01*
X110510534Y9673398D01*
X110559365Y9668588D01*
X110607490Y9659016D01*
X110654445Y9644772D01*
X110699778Y9625995D01*
X110743051Y9602864D01*
X110783850Y9575604D01*
X110821779Y9544476D01*
X110856476Y9509779D01*
X110887604Y9471850D01*
X110914864Y9431051D01*
X110937995Y9387778D01*
X110956772Y9342445D01*
X110971016Y9295490D01*
X110980588Y9247365D01*
X110985398Y9198534D01*
X110985398Y9174000D01*
X110986000Y9174000D01*
X110986000Y8624000D01*
X109486000Y8624000D01*
X109486000Y9174000D01*
X109486602Y9174000D01*
G37*
%TD.AperFunction*%
%TD*%
%TA.AperFunction,SMDPad,CuDef*%
%TO.P,JP6,1*%
%TO.N,+3V3*%
G36*
X104382000Y7124000D02*
G01*
X104382000Y6574000D01*
X104381398Y6574000D01*
X104381398Y6549466D01*
X104376588Y6500635D01*
X104367016Y6452510D01*
X104352772Y6405555D01*
X104333995Y6360222D01*
X104310864Y6316949D01*
X104283604Y6276150D01*
X104252476Y6238221D01*
X104217779Y6203524D01*
X104179850Y6172396D01*
X104139051Y6145136D01*
X104095778Y6122005D01*
X104050445Y6103228D01*
X104003490Y6088984D01*
X103955365Y6079412D01*
X103906534Y6074602D01*
X103882000Y6074602D01*
X103882000Y6074000D01*
X103382000Y6074000D01*
X103382000Y6074602D01*
X103357466Y6074602D01*
X103308635Y6079412D01*
X103260510Y6088984D01*
X103213555Y6103228D01*
X103168222Y6122005D01*
X103124949Y6145136D01*
X103084150Y6172396D01*
X103046221Y6203524D01*
X103011524Y6238221D01*
X102980396Y6276150D01*
X102953136Y6316949D01*
X102930005Y6360222D01*
X102911228Y6405555D01*
X102896984Y6452510D01*
X102887412Y6500635D01*
X102882602Y6549466D01*
X102882602Y6574000D01*
X102882000Y6574000D01*
X102882000Y7124000D01*
X104382000Y7124000D01*
G37*
%TD.AperFunction*%
D14*
%TO.P,JP6,2*%
%TO.N,Net-(Extra1-Pad4)*%
X103632000Y7874000D03*
%TA.AperFunction,SMDPad,CuDef*%
D13*
%TO.P,JP6,3*%
%TO.N,USB_VIN*%
G36*
X102882602Y9174000D02*
G01*
X102882602Y9198534D01*
X102887412Y9247365D01*
X102896984Y9295490D01*
X102911228Y9342445D01*
X102930005Y9387778D01*
X102953136Y9431051D01*
X102980396Y9471850D01*
X103011524Y9509779D01*
X103046221Y9544476D01*
X103084150Y9575604D01*
X103124949Y9602864D01*
X103168222Y9625995D01*
X103213555Y9644772D01*
X103260510Y9659016D01*
X103308635Y9668588D01*
X103357466Y9673398D01*
X103382000Y9673398D01*
X103382000Y9674000D01*
X103882000Y9674000D01*
X103882000Y9673398D01*
X103906534Y9673398D01*
X103955365Y9668588D01*
X104003490Y9659016D01*
X104050445Y9644772D01*
X104095778Y9625995D01*
X104139051Y9602864D01*
X104179850Y9575604D01*
X104217779Y9544476D01*
X104252476Y9509779D01*
X104283604Y9471850D01*
X104310864Y9431051D01*
X104333995Y9387778D01*
X104352772Y9342445D01*
X104367016Y9295490D01*
X104376588Y9247365D01*
X104381398Y9198534D01*
X104381398Y9174000D01*
X104382000Y9174000D01*
X104382000Y8624000D01*
X102882000Y8624000D01*
X102882000Y9174000D01*
X102882602Y9174000D01*
G37*
%TD.AperFunction*%
%TD*%
%TA.AperFunction,SMDPad,CuDef*%
%TO.P,JP5,1*%
%TO.N,+3V3*%
G36*
X63742000Y7094000D02*
G01*
X63742000Y6544000D01*
X63741398Y6544000D01*
X63741398Y6519466D01*
X63736588Y6470635D01*
X63727016Y6422510D01*
X63712772Y6375555D01*
X63693995Y6330222D01*
X63670864Y6286949D01*
X63643604Y6246150D01*
X63612476Y6208221D01*
X63577779Y6173524D01*
X63539850Y6142396D01*
X63499051Y6115136D01*
X63455778Y6092005D01*
X63410445Y6073228D01*
X63363490Y6058984D01*
X63315365Y6049412D01*
X63266534Y6044602D01*
X63242000Y6044602D01*
X63242000Y6044000D01*
X62742000Y6044000D01*
X62742000Y6044602D01*
X62717466Y6044602D01*
X62668635Y6049412D01*
X62620510Y6058984D01*
X62573555Y6073228D01*
X62528222Y6092005D01*
X62484949Y6115136D01*
X62444150Y6142396D01*
X62406221Y6173524D01*
X62371524Y6208221D01*
X62340396Y6246150D01*
X62313136Y6286949D01*
X62290005Y6330222D01*
X62271228Y6375555D01*
X62256984Y6422510D01*
X62247412Y6470635D01*
X62242602Y6519466D01*
X62242602Y6544000D01*
X62242000Y6544000D01*
X62242000Y7094000D01*
X63742000Y7094000D01*
G37*
%TD.AperFunction*%
D14*
%TO.P,JP5,2*%
%TO.N,Net-(GPS1-Pad4)*%
X62992000Y7844000D03*
%TA.AperFunction,SMDPad,CuDef*%
D13*
%TO.P,JP5,3*%
%TO.N,USB_VIN*%
G36*
X62242602Y9144000D02*
G01*
X62242602Y9168534D01*
X62247412Y9217365D01*
X62256984Y9265490D01*
X62271228Y9312445D01*
X62290005Y9357778D01*
X62313136Y9401051D01*
X62340396Y9441850D01*
X62371524Y9479779D01*
X62406221Y9514476D01*
X62444150Y9545604D01*
X62484949Y9572864D01*
X62528222Y9595995D01*
X62573555Y9614772D01*
X62620510Y9629016D01*
X62668635Y9638588D01*
X62717466Y9643398D01*
X62742000Y9643398D01*
X62742000Y9644000D01*
X63242000Y9644000D01*
X63242000Y9643398D01*
X63266534Y9643398D01*
X63315365Y9638588D01*
X63363490Y9629016D01*
X63410445Y9614772D01*
X63455778Y9595995D01*
X63499051Y9572864D01*
X63539850Y9545604D01*
X63577779Y9514476D01*
X63612476Y9479779D01*
X63643604Y9441850D01*
X63670864Y9401051D01*
X63693995Y9357778D01*
X63712772Y9312445D01*
X63727016Y9265490D01*
X63736588Y9217365D01*
X63741398Y9168534D01*
X63741398Y9144000D01*
X63742000Y9144000D01*
X63742000Y8594000D01*
X62242000Y8594000D01*
X62242000Y9144000D01*
X62242602Y9144000D01*
G37*
%TD.AperFunction*%
%TD*%
D15*
%TO.P,Cb3,2*%
%TO.N,GND*%
X120690000Y-21590000D03*
D16*
%TO.P,Cb3,1*%
%TO.N,USB_VIN*%
X123190000Y-21590000D03*
%TD*%
D15*
%TO.P,Cb2,2*%
%TO.N,GND*%
X120690000Y-13208000D03*
D16*
%TO.P,Cb2,1*%
%TO.N,USB_VIN*%
X123190000Y-13208000D03*
%TD*%
D15*
%TO.P,Cb1,2*%
%TO.N,GND*%
X120690000Y-4826000D03*
D16*
%TO.P,Cb1,1*%
%TO.N,USB_VIN*%
X123190000Y-4826000D03*
%TD*%
D17*
%TO.P,H4,1*%
%TO.N,N/C*%
X125046155Y8206155D03*
X123190000Y8975000D03*
X121333845Y8206155D03*
X120565000Y6350000D03*
X121333845Y4493845D03*
X123190000Y3725000D03*
X125046155Y4493845D03*
X125815000Y6350000D03*
D18*
X123190000Y6350000D03*
%TD*%
D17*
%TO.P,H3,1*%
%TO.N,N/C*%
X9857155Y8206155D03*
X8001000Y8975000D03*
X6144845Y8206155D03*
X5376000Y6350000D03*
X6144845Y4493845D03*
X8001000Y3725000D03*
X9857155Y4493845D03*
X10626000Y6350000D03*
D18*
X8001000Y6350000D03*
%TD*%
D17*
%TO.P,H2,1*%
%TO.N,N/C*%
X9857155Y-46403845D03*
X8001000Y-45635000D03*
X6144845Y-46403845D03*
X5376000Y-48260000D03*
X6144845Y-50116155D03*
X8001000Y-50885000D03*
X9857155Y-50116155D03*
X10626000Y-48260000D03*
D18*
X8001000Y-48260000D03*
%TD*%
D17*
%TO.P,H1,1*%
%TO.N,N/C*%
X125046155Y-46403845D03*
X123190000Y-45635000D03*
X121333845Y-46403845D03*
X120565000Y-48260000D03*
X121333845Y-50116155D03*
X123190000Y-50885000D03*
X125046155Y-50116155D03*
X125815000Y-48260000D03*
D18*
X123190000Y-48260000D03*
%TD*%
D19*
%TO.P,Windvane1,4*%
%TO.N,Net-(JP2-Pad2)*%
X89535000Y1912000D03*
%TO.P,Windvane1,3*%
%TO.N,GND*%
X89535000Y-588000D03*
%TO.P,Windvane1,2*%
%TO.N,Int0_B*%
X89535000Y-3088000D03*
%TO.P,Windvane1,1*%
%TO.N,Int0_A*%
%TA.AperFunction,ComponentPad*%
G36*
G01*
X90260000Y-6438000D02*
X88810000Y-6438000D01*
G75*
G02*
X88560000Y-6188000I0J250000D01*
G01*
X88560000Y-4988000D01*
G75*
G02*
X88810000Y-4738000I250000J0D01*
G01*
X90260000Y-4738000D01*
G75*
G02*
X90510000Y-4988000I0J-250000D01*
G01*
X90510000Y-6188000D01*
G75*
G02*
X90260000Y-6438000I-250000J0D01*
G01*
G37*
%TD.AperFunction*%
%TD*%
%TO.P,Transceiver1,4*%
%TO.N,Net-(JP8-Pad2)*%
X82677000Y1825000D03*
%TO.P,Transceiver1,3*%
%TO.N,GND*%
X82677000Y-675000D03*
%TO.P,Transceiver1,2*%
%TO.N,wireless_tx*%
X82677000Y-3175000D03*
%TO.P,Transceiver1,1*%
%TO.N,wireless_rx*%
%TA.AperFunction,ComponentPad*%
G36*
G01*
X83402000Y-6525000D02*
X81952000Y-6525000D01*
G75*
G02*
X81702000Y-6275000I0J250000D01*
G01*
X81702000Y-5075000D01*
G75*
G02*
X81952000Y-4825000I250000J0D01*
G01*
X83402000Y-4825000D01*
G75*
G02*
X83652000Y-5075000I0J-250000D01*
G01*
X83652000Y-6275000D01*
G75*
G02*
X83402000Y-6525000I-250000J0D01*
G01*
G37*
%TD.AperFunction*%
%TD*%
%TO.P,GPS1,4*%
%TO.N,Net-(GPS1-Pad4)*%
X62865000Y1912000D03*
%TO.P,GPS1,3*%
%TO.N,GND*%
X62865000Y-588000D03*
%TO.P,GPS1,2*%
%TO.N,GPStx*%
X62865000Y-3088000D03*
%TO.P,GPS1,1*%
%TO.N,GPSrx*%
%TA.AperFunction,ComponentPad*%
G36*
G01*
X63590000Y-6438000D02*
X62140000Y-6438000D01*
G75*
G02*
X61890000Y-6188000I0J250000D01*
G01*
X61890000Y-4988000D01*
G75*
G02*
X62140000Y-4738000I250000J0D01*
G01*
X63590000Y-4738000D01*
G75*
G02*
X63840000Y-4988000I0J-250000D01*
G01*
X63840000Y-6188000D01*
G75*
G02*
X63590000Y-6438000I-250000J0D01*
G01*
G37*
%TD.AperFunction*%
%TD*%
%TO.P,extraSerial1,4*%
%TO.N,Net-(JP4-Pad2)*%
X75819000Y1785000D03*
%TO.P,extraSerial1,3*%
%TO.N,GND*%
X75819000Y-715000D03*
%TO.P,extraSerial1,2*%
%TO.N,extraTX*%
X75819000Y-3215000D03*
%TO.P,extraSerial1,1*%
%TO.N,extraRX*%
%TA.AperFunction,ComponentPad*%
G36*
G01*
X76544000Y-6565000D02*
X75094000Y-6565000D01*
G75*
G02*
X74844000Y-6315000I0J250000D01*
G01*
X74844000Y-5115000D01*
G75*
G02*
X75094000Y-4865000I250000J0D01*
G01*
X76544000Y-4865000D01*
G75*
G02*
X76794000Y-5115000I0J-250000D01*
G01*
X76794000Y-6315000D01*
G75*
G02*
X76544000Y-6565000I-250000J0D01*
G01*
G37*
%TD.AperFunction*%
%TD*%
%TO.P,Extra2,4*%
%TO.N,Net-(Extra2-Pad4)*%
X110109000Y1865000D03*
%TO.P,Extra2,3*%
%TO.N,GND*%
X110109000Y-635000D03*
%TO.P,Extra2,2*%
%TO.N,Int3_B*%
X110109000Y-3135000D03*
%TO.P,Extra2,1*%
%TO.N,Int3_A*%
%TA.AperFunction,ComponentPad*%
G36*
G01*
X110834000Y-6485000D02*
X109384000Y-6485000D01*
G75*
G02*
X109134000Y-6235000I0J250000D01*
G01*
X109134000Y-5035000D01*
G75*
G02*
X109384000Y-4785000I250000J0D01*
G01*
X110834000Y-4785000D01*
G75*
G02*
X111084000Y-5035000I0J-250000D01*
G01*
X111084000Y-6235000D01*
G75*
G02*
X110834000Y-6485000I-250000J0D01*
G01*
G37*
%TD.AperFunction*%
%TD*%
%TO.P,Extra1,4*%
%TO.N,Net-(Extra1-Pad4)*%
X103505000Y1865000D03*
%TO.P,Extra1,3*%
%TO.N,GND*%
X103505000Y-635000D03*
%TO.P,Extra1,2*%
%TO.N,Int2_B*%
X103505000Y-3135000D03*
%TO.P,Extra1,1*%
%TO.N,Int2_A*%
%TA.AperFunction,ComponentPad*%
G36*
G01*
X104230000Y-6485000D02*
X102780000Y-6485000D01*
G75*
G02*
X102530000Y-6235000I0J250000D01*
G01*
X102530000Y-5035000D01*
G75*
G02*
X102780000Y-4785000I250000J0D01*
G01*
X104230000Y-4785000D01*
G75*
G02*
X104480000Y-5035000I0J-250000D01*
G01*
X104480000Y-6235000D01*
G75*
G02*
X104230000Y-6485000I-250000J0D01*
G01*
G37*
%TD.AperFunction*%
%TD*%
%TO.P,BNO55,4*%
%TO.N,Net-(BNO55-Pad4)*%
X69215000Y1912000D03*
%TO.P,BNO55,3*%
%TO.N,GND*%
X69215000Y-588000D03*
%TO.P,BNO55,2*%
%TO.N,2560_SDA*%
X69215000Y-3088000D03*
%TO.P,BNO55,1*%
%TO.N,2560_SCL*%
%TA.AperFunction,ComponentPad*%
G36*
G01*
X69940000Y-6438000D02*
X68490000Y-6438000D01*
G75*
G02*
X68240000Y-6188000I0J250000D01*
G01*
X68240000Y-4988000D01*
G75*
G02*
X68490000Y-4738000I250000J0D01*
G01*
X69940000Y-4738000D01*
G75*
G02*
X70190000Y-4988000I0J-250000D01*
G01*
X70190000Y-6188000D01*
G75*
G02*
X69940000Y-6438000I-250000J0D01*
G01*
G37*
%TD.AperFunction*%
%TD*%
%TO.P,Anemometer1,4*%
%TO.N,Net-(Anemometer1-Pad4)*%
X96901000Y2039000D03*
%TO.P,Anemometer1,3*%
%TO.N,GND*%
X96901000Y-461000D03*
%TO.P,Anemometer1,2*%
%TO.N,Int1_B*%
X96901000Y-2961000D03*
%TO.P,Anemometer1,1*%
%TO.N,Int1_A*%
%TA.AperFunction,ComponentPad*%
G36*
G01*
X97626000Y-6311000D02*
X96176000Y-6311000D01*
G75*
G02*
X95926000Y-6061000I0J250000D01*
G01*
X95926000Y-4861000D01*
G75*
G02*
X96176000Y-4611000I250000J0D01*
G01*
X97626000Y-4611000D01*
G75*
G02*
X97876000Y-4861000I0J-250000D01*
G01*
X97876000Y-6061000D01*
G75*
G02*
X97626000Y-6311000I-250000J0D01*
G01*
G37*
%TD.AperFunction*%
%TD*%
%TO.P,3S_battery_pin1,4*%
%TO.N,GND*%
X112776000Y-40600000D03*
%TO.P,3S_battery_pin1,3*%
%TO.N,N/C*%
X112776000Y-38100000D03*
%TO.P,3S_battery_pin1,2*%
X112776000Y-35600000D03*
%TO.P,3S_battery_pin1,1*%
%TO.N,Net-(2s_battery_pin1-Pad1)*%
%TA.AperFunction,ComponentPad*%
G36*
G01*
X112051000Y-32250000D02*
X113501000Y-32250000D01*
G75*
G02*
X113751000Y-32500000I0J-250000D01*
G01*
X113751000Y-33700000D01*
G75*
G02*
X113501000Y-33950000I-250000J0D01*
G01*
X112051000Y-33950000D01*
G75*
G02*
X111801000Y-33700000I0J250000D01*
G01*
X111801000Y-32500000D01*
G75*
G02*
X112051000Y-32250000I250000J0D01*
G01*
G37*
%TD.AperFunction*%
%TD*%
%TO.P,2s_battery_pin1,3*%
%TO.N,GND*%
X120396000Y-38528000D03*
%TO.P,2s_battery_pin1,2*%
%TO.N,N/C*%
X120396000Y-36028000D03*
%TO.P,2s_battery_pin1,1*%
%TO.N,Net-(2s_battery_pin1-Pad1)*%
%TA.AperFunction,ComponentPad*%
G36*
G01*
X119671000Y-32678000D02*
X121121000Y-32678000D01*
G75*
G02*
X121371000Y-32928000I0J-250000D01*
G01*
X121371000Y-34128000D01*
G75*
G02*
X121121000Y-34378000I-250000J0D01*
G01*
X119671000Y-34378000D01*
G75*
G02*
X119421000Y-34128000I0J250000D01*
G01*
X119421000Y-32928000D01*
G75*
G02*
X119671000Y-32678000I250000J0D01*
G01*
G37*
%TD.AperFunction*%
%TD*%
%TO.P,C3,1*%
%TO.N,Net-(C3-Pad1)*%
%TA.AperFunction,SMDPad,CuDef*%
G36*
G01*
X66515000Y-48107000D02*
X65565000Y-48107000D01*
G75*
G02*
X65315000Y-47857000I0J250000D01*
G01*
X65315000Y-47182000D01*
G75*
G02*
X65565000Y-46932000I250000J0D01*
G01*
X66515000Y-46932000D01*
G75*
G02*
X66765000Y-47182000I0J-250000D01*
G01*
X66765000Y-47857000D01*
G75*
G02*
X66515000Y-48107000I-250000J0D01*
G01*
G37*
%TD.AperFunction*%
%TO.P,C3,2*%
%TO.N,usb_ground*%
%TA.AperFunction,SMDPad,CuDef*%
G36*
G01*
X66515000Y-46032000D02*
X65565000Y-46032000D01*
G75*
G02*
X65315000Y-45782000I0J250000D01*
G01*
X65315000Y-45107000D01*
G75*
G02*
X65565000Y-44857000I250000J0D01*
G01*
X66515000Y-44857000D01*
G75*
G02*
X66765000Y-45107000I0J-250000D01*
G01*
X66765000Y-45782000D01*
G75*
G02*
X66515000Y-46032000I-250000J0D01*
G01*
G37*
%TD.AperFunction*%
%TD*%
D20*
%TO.P,SW1,1*%
%TO.N,2560_RESET*%
X88034000Y-44450000D03*
%TO.P,SW1,3*%
%TO.N,GND*%
X88034000Y-48950000D03*
%TO.P,SW1,2*%
%TO.N,2560_RESET*%
X81534000Y-44450000D03*
%TO.P,SW1,4*%
%TO.N,GND*%
X81534000Y-48950000D03*
%TD*%
D21*
%TO.P,U7,2*%
%TO.N,+3V3*%
X96080000Y-15239000D03*
D22*
%TO.P,U7,3*%
%TO.N,Net-(2s_battery_pin1-Pad1)*%
X89780000Y-17519000D03*
%TO.P,U7,1*%
%TO.N,GND*%
X89780000Y-12959000D03*
%TD*%
D21*
%TO.P,U6,2*%
%TO.N,USB_VIN*%
X96299000Y-24512000D03*
D22*
%TO.P,U6,3*%
%TO.N,Net-(J5-Pad1)*%
X89999000Y-26792000D03*
%TO.P,U6,1*%
%TO.N,GND*%
X89999000Y-22232000D03*
%TD*%
D21*
%TO.P,U5,2*%
%TO.N,USB_VIN*%
X110593000Y-15239000D03*
D22*
%TO.P,U5,3*%
%TO.N,Net-(J5-Pad1)*%
X104293000Y-17519000D03*
%TO.P,U5,1*%
%TO.N,GND*%
X104293000Y-12959000D03*
%TD*%
%TO.P,U4,100*%
%TO.N,USB_VIN*%
%TA.AperFunction,SMDPad,CuDef*%
G36*
G01*
X77485000Y-21663000D02*
X78810000Y-21663000D01*
G75*
G02*
X78885000Y-21738000I0J-75000D01*
G01*
X78885000Y-21888000D01*
G75*
G02*
X78810000Y-21963000I-75000J0D01*
G01*
X77485000Y-21963000D01*
G75*
G02*
X77410000Y-21888000I0J75000D01*
G01*
X77410000Y-21738000D01*
G75*
G02*
X77485000Y-21663000I75000J0D01*
G01*
G37*
%TD.AperFunction*%
%TO.P,U4,99*%
%TO.N,GND*%
%TA.AperFunction,SMDPad,CuDef*%
G36*
G01*
X77485000Y-22163000D02*
X78810000Y-22163000D01*
G75*
G02*
X78885000Y-22238000I0J-75000D01*
G01*
X78885000Y-22388000D01*
G75*
G02*
X78810000Y-22463000I-75000J0D01*
G01*
X77485000Y-22463000D01*
G75*
G02*
X77410000Y-22388000I0J75000D01*
G01*
X77410000Y-22238000D01*
G75*
G02*
X77485000Y-22163000I75000J0D01*
G01*
G37*
%TD.AperFunction*%
%TO.P,U4,98*%
%TO.N,Net-(C12-Pad1)*%
%TA.AperFunction,SMDPad,CuDef*%
G36*
G01*
X77485000Y-22663000D02*
X78810000Y-22663000D01*
G75*
G02*
X78885000Y-22738000I0J-75000D01*
G01*
X78885000Y-22888000D01*
G75*
G02*
X78810000Y-22963000I-75000J0D01*
G01*
X77485000Y-22963000D01*
G75*
G02*
X77410000Y-22888000I0J75000D01*
G01*
X77410000Y-22738000D01*
G75*
G02*
X77485000Y-22663000I75000J0D01*
G01*
G37*
%TD.AperFunction*%
%TO.P,U4,97*%
%TO.N,N/C*%
%TA.AperFunction,SMDPad,CuDef*%
G36*
G01*
X77485000Y-23163000D02*
X78810000Y-23163000D01*
G75*
G02*
X78885000Y-23238000I0J-75000D01*
G01*
X78885000Y-23388000D01*
G75*
G02*
X78810000Y-23463000I-75000J0D01*
G01*
X77485000Y-23463000D01*
G75*
G02*
X77410000Y-23388000I0J75000D01*
G01*
X77410000Y-23238000D01*
G75*
G02*
X77485000Y-23163000I75000J0D01*
G01*
G37*
%TD.AperFunction*%
%TO.P,U4,96*%
%TA.AperFunction,SMDPad,CuDef*%
G36*
G01*
X77485000Y-23663000D02*
X78810000Y-23663000D01*
G75*
G02*
X78885000Y-23738000I0J-75000D01*
G01*
X78885000Y-23888000D01*
G75*
G02*
X78810000Y-23963000I-75000J0D01*
G01*
X77485000Y-23963000D01*
G75*
G02*
X77410000Y-23888000I0J75000D01*
G01*
X77410000Y-23738000D01*
G75*
G02*
X77485000Y-23663000I75000J0D01*
G01*
G37*
%TD.AperFunction*%
%TO.P,U4,95*%
%TA.AperFunction,SMDPad,CuDef*%
G36*
G01*
X77485000Y-24163000D02*
X78810000Y-24163000D01*
G75*
G02*
X78885000Y-24238000I0J-75000D01*
G01*
X78885000Y-24388000D01*
G75*
G02*
X78810000Y-24463000I-75000J0D01*
G01*
X77485000Y-24463000D01*
G75*
G02*
X77410000Y-24388000I0J75000D01*
G01*
X77410000Y-24238000D01*
G75*
G02*
X77485000Y-24163000I75000J0D01*
G01*
G37*
%TD.AperFunction*%
%TO.P,U4,94*%
%TA.AperFunction,SMDPad,CuDef*%
G36*
G01*
X77485000Y-24663000D02*
X78810000Y-24663000D01*
G75*
G02*
X78885000Y-24738000I0J-75000D01*
G01*
X78885000Y-24888000D01*
G75*
G02*
X78810000Y-24963000I-75000J0D01*
G01*
X77485000Y-24963000D01*
G75*
G02*
X77410000Y-24888000I0J75000D01*
G01*
X77410000Y-24738000D01*
G75*
G02*
X77485000Y-24663000I75000J0D01*
G01*
G37*
%TD.AperFunction*%
%TO.P,U4,93*%
%TA.AperFunction,SMDPad,CuDef*%
G36*
G01*
X77485000Y-25163000D02*
X78810000Y-25163000D01*
G75*
G02*
X78885000Y-25238000I0J-75000D01*
G01*
X78885000Y-25388000D01*
G75*
G02*
X78810000Y-25463000I-75000J0D01*
G01*
X77485000Y-25463000D01*
G75*
G02*
X77410000Y-25388000I0J75000D01*
G01*
X77410000Y-25238000D01*
G75*
G02*
X77485000Y-25163000I75000J0D01*
G01*
G37*
%TD.AperFunction*%
%TO.P,U4,92*%
%TA.AperFunction,SMDPad,CuDef*%
G36*
G01*
X77485000Y-25663000D02*
X78810000Y-25663000D01*
G75*
G02*
X78885000Y-25738000I0J-75000D01*
G01*
X78885000Y-25888000D01*
G75*
G02*
X78810000Y-25963000I-75000J0D01*
G01*
X77485000Y-25963000D01*
G75*
G02*
X77410000Y-25888000I0J75000D01*
G01*
X77410000Y-25738000D01*
G75*
G02*
X77485000Y-25663000I75000J0D01*
G01*
G37*
%TD.AperFunction*%
%TO.P,U4,91*%
%TA.AperFunction,SMDPad,CuDef*%
G36*
G01*
X77485000Y-26163000D02*
X78810000Y-26163000D01*
G75*
G02*
X78885000Y-26238000I0J-75000D01*
G01*
X78885000Y-26388000D01*
G75*
G02*
X78810000Y-26463000I-75000J0D01*
G01*
X77485000Y-26463000D01*
G75*
G02*
X77410000Y-26388000I0J75000D01*
G01*
X77410000Y-26238000D01*
G75*
G02*
X77485000Y-26163000I75000J0D01*
G01*
G37*
%TD.AperFunction*%
%TO.P,U4,90*%
%TA.AperFunction,SMDPad,CuDef*%
G36*
G01*
X77485000Y-26663000D02*
X78810000Y-26663000D01*
G75*
G02*
X78885000Y-26738000I0J-75000D01*
G01*
X78885000Y-26888000D01*
G75*
G02*
X78810000Y-26963000I-75000J0D01*
G01*
X77485000Y-26963000D01*
G75*
G02*
X77410000Y-26888000I0J75000D01*
G01*
X77410000Y-26738000D01*
G75*
G02*
X77485000Y-26663000I75000J0D01*
G01*
G37*
%TD.AperFunction*%
%TO.P,U4,89*%
%TO.N,Int0_A*%
%TA.AperFunction,SMDPad,CuDef*%
G36*
G01*
X77485000Y-27163000D02*
X78810000Y-27163000D01*
G75*
G02*
X78885000Y-27238000I0J-75000D01*
G01*
X78885000Y-27388000D01*
G75*
G02*
X78810000Y-27463000I-75000J0D01*
G01*
X77485000Y-27463000D01*
G75*
G02*
X77410000Y-27388000I0J75000D01*
G01*
X77410000Y-27238000D01*
G75*
G02*
X77485000Y-27163000I75000J0D01*
G01*
G37*
%TD.AperFunction*%
%TO.P,U4,88*%
%TO.N,Int0_B*%
%TA.AperFunction,SMDPad,CuDef*%
G36*
G01*
X77485000Y-27663000D02*
X78810000Y-27663000D01*
G75*
G02*
X78885000Y-27738000I0J-75000D01*
G01*
X78885000Y-27888000D01*
G75*
G02*
X78810000Y-27963000I-75000J0D01*
G01*
X77485000Y-27963000D01*
G75*
G02*
X77410000Y-27888000I0J75000D01*
G01*
X77410000Y-27738000D01*
G75*
G02*
X77485000Y-27663000I75000J0D01*
G01*
G37*
%TD.AperFunction*%
%TO.P,U4,87*%
%TO.N,Int1_A*%
%TA.AperFunction,SMDPad,CuDef*%
G36*
G01*
X77485000Y-28163000D02*
X78810000Y-28163000D01*
G75*
G02*
X78885000Y-28238000I0J-75000D01*
G01*
X78885000Y-28388000D01*
G75*
G02*
X78810000Y-28463000I-75000J0D01*
G01*
X77485000Y-28463000D01*
G75*
G02*
X77410000Y-28388000I0J75000D01*
G01*
X77410000Y-28238000D01*
G75*
G02*
X77485000Y-28163000I75000J0D01*
G01*
G37*
%TD.AperFunction*%
%TO.P,U4,86*%
%TO.N,Int1_B*%
%TA.AperFunction,SMDPad,CuDef*%
G36*
G01*
X77485000Y-28663000D02*
X78810000Y-28663000D01*
G75*
G02*
X78885000Y-28738000I0J-75000D01*
G01*
X78885000Y-28888000D01*
G75*
G02*
X78810000Y-28963000I-75000J0D01*
G01*
X77485000Y-28963000D01*
G75*
G02*
X77410000Y-28888000I0J75000D01*
G01*
X77410000Y-28738000D01*
G75*
G02*
X77485000Y-28663000I75000J0D01*
G01*
G37*
%TD.AperFunction*%
%TO.P,U4,85*%
%TO.N,Int2_A*%
%TA.AperFunction,SMDPad,CuDef*%
G36*
G01*
X77485000Y-29163000D02*
X78810000Y-29163000D01*
G75*
G02*
X78885000Y-29238000I0J-75000D01*
G01*
X78885000Y-29388000D01*
G75*
G02*
X78810000Y-29463000I-75000J0D01*
G01*
X77485000Y-29463000D01*
G75*
G02*
X77410000Y-29388000I0J75000D01*
G01*
X77410000Y-29238000D01*
G75*
G02*
X77485000Y-29163000I75000J0D01*
G01*
G37*
%TD.AperFunction*%
%TO.P,U4,84*%
%TO.N,Int2_B*%
%TA.AperFunction,SMDPad,CuDef*%
G36*
G01*
X77485000Y-29663000D02*
X78810000Y-29663000D01*
G75*
G02*
X78885000Y-29738000I0J-75000D01*
G01*
X78885000Y-29888000D01*
G75*
G02*
X78810000Y-29963000I-75000J0D01*
G01*
X77485000Y-29963000D01*
G75*
G02*
X77410000Y-29888000I0J75000D01*
G01*
X77410000Y-29738000D01*
G75*
G02*
X77485000Y-29663000I75000J0D01*
G01*
G37*
%TD.AperFunction*%
%TO.P,U4,83*%
%TO.N,Int3_A*%
%TA.AperFunction,SMDPad,CuDef*%
G36*
G01*
X77485000Y-30163000D02*
X78810000Y-30163000D01*
G75*
G02*
X78885000Y-30238000I0J-75000D01*
G01*
X78885000Y-30388000D01*
G75*
G02*
X78810000Y-30463000I-75000J0D01*
G01*
X77485000Y-30463000D01*
G75*
G02*
X77410000Y-30388000I0J75000D01*
G01*
X77410000Y-30238000D01*
G75*
G02*
X77485000Y-30163000I75000J0D01*
G01*
G37*
%TD.AperFunction*%
%TO.P,U4,82*%
%TO.N,Int3_B*%
%TA.AperFunction,SMDPad,CuDef*%
G36*
G01*
X77485000Y-30663000D02*
X78810000Y-30663000D01*
G75*
G02*
X78885000Y-30738000I0J-75000D01*
G01*
X78885000Y-30888000D01*
G75*
G02*
X78810000Y-30963000I-75000J0D01*
G01*
X77485000Y-30963000D01*
G75*
G02*
X77410000Y-30888000I0J75000D01*
G01*
X77410000Y-30738000D01*
G75*
G02*
X77485000Y-30663000I75000J0D01*
G01*
G37*
%TD.AperFunction*%
%TO.P,U4,81*%
%TO.N,GND*%
%TA.AperFunction,SMDPad,CuDef*%
G36*
G01*
X77485000Y-31163000D02*
X78810000Y-31163000D01*
G75*
G02*
X78885000Y-31238000I0J-75000D01*
G01*
X78885000Y-31388000D01*
G75*
G02*
X78810000Y-31463000I-75000J0D01*
G01*
X77485000Y-31463000D01*
G75*
G02*
X77410000Y-31388000I0J75000D01*
G01*
X77410000Y-31238000D01*
G75*
G02*
X77485000Y-31163000I75000J0D01*
G01*
G37*
%TD.AperFunction*%
%TO.P,U4,80*%
%TO.N,USB_VIN*%
%TA.AperFunction,SMDPad,CuDef*%
G36*
G01*
X77485000Y-31663000D02*
X78810000Y-31663000D01*
G75*
G02*
X78885000Y-31738000I0J-75000D01*
G01*
X78885000Y-31888000D01*
G75*
G02*
X78810000Y-31963000I-75000J0D01*
G01*
X77485000Y-31963000D01*
G75*
G02*
X77410000Y-31888000I0J75000D01*
G01*
X77410000Y-31738000D01*
G75*
G02*
X77485000Y-31663000I75000J0D01*
G01*
G37*
%TD.AperFunction*%
%TO.P,U4,79*%
%TO.N,N/C*%
%TA.AperFunction,SMDPad,CuDef*%
G36*
G01*
X77485000Y-32163000D02*
X78810000Y-32163000D01*
G75*
G02*
X78885000Y-32238000I0J-75000D01*
G01*
X78885000Y-32388000D01*
G75*
G02*
X78810000Y-32463000I-75000J0D01*
G01*
X77485000Y-32463000D01*
G75*
G02*
X77410000Y-32388000I0J75000D01*
G01*
X77410000Y-32238000D01*
G75*
G02*
X77485000Y-32163000I75000J0D01*
G01*
G37*
%TD.AperFunction*%
%TO.P,U4,78*%
%TA.AperFunction,SMDPad,CuDef*%
G36*
G01*
X77485000Y-32663000D02*
X78810000Y-32663000D01*
G75*
G02*
X78885000Y-32738000I0J-75000D01*
G01*
X78885000Y-32888000D01*
G75*
G02*
X78810000Y-32963000I-75000J0D01*
G01*
X77485000Y-32963000D01*
G75*
G02*
X77410000Y-32888000I0J75000D01*
G01*
X77410000Y-32738000D01*
G75*
G02*
X77485000Y-32663000I75000J0D01*
G01*
G37*
%TD.AperFunction*%
%TO.P,U4,77*%
%TA.AperFunction,SMDPad,CuDef*%
G36*
G01*
X77485000Y-33163000D02*
X78810000Y-33163000D01*
G75*
G02*
X78885000Y-33238000I0J-75000D01*
G01*
X78885000Y-33388000D01*
G75*
G02*
X78810000Y-33463000I-75000J0D01*
G01*
X77485000Y-33463000D01*
G75*
G02*
X77410000Y-33388000I0J75000D01*
G01*
X77410000Y-33238000D01*
G75*
G02*
X77485000Y-33163000I75000J0D01*
G01*
G37*
%TD.AperFunction*%
%TO.P,U4,76*%
%TA.AperFunction,SMDPad,CuDef*%
G36*
G01*
X77485000Y-33663000D02*
X78810000Y-33663000D01*
G75*
G02*
X78885000Y-33738000I0J-75000D01*
G01*
X78885000Y-33888000D01*
G75*
G02*
X78810000Y-33963000I-75000J0D01*
G01*
X77485000Y-33963000D01*
G75*
G02*
X77410000Y-33888000I0J75000D01*
G01*
X77410000Y-33738000D01*
G75*
G02*
X77485000Y-33663000I75000J0D01*
G01*
G37*
%TD.AperFunction*%
%TO.P,U4,75*%
%TA.AperFunction,SMDPad,CuDef*%
G36*
G01*
X76410000Y-34738000D02*
X76560000Y-34738000D01*
G75*
G02*
X76635000Y-34813000I0J-75000D01*
G01*
X76635000Y-36138000D01*
G75*
G02*
X76560000Y-36213000I-75000J0D01*
G01*
X76410000Y-36213000D01*
G75*
G02*
X76335000Y-36138000I0J75000D01*
G01*
X76335000Y-34813000D01*
G75*
G02*
X76410000Y-34738000I75000J0D01*
G01*
G37*
%TD.AperFunction*%
%TO.P,U4,74*%
%TA.AperFunction,SMDPad,CuDef*%
G36*
G01*
X75910000Y-34738000D02*
X76060000Y-34738000D01*
G75*
G02*
X76135000Y-34813000I0J-75000D01*
G01*
X76135000Y-36138000D01*
G75*
G02*
X76060000Y-36213000I-75000J0D01*
G01*
X75910000Y-36213000D01*
G75*
G02*
X75835000Y-36138000I0J75000D01*
G01*
X75835000Y-34813000D01*
G75*
G02*
X75910000Y-34738000I75000J0D01*
G01*
G37*
%TD.AperFunction*%
%TO.P,U4,73*%
%TA.AperFunction,SMDPad,CuDef*%
G36*
G01*
X75410000Y-34738000D02*
X75560000Y-34738000D01*
G75*
G02*
X75635000Y-34813000I0J-75000D01*
G01*
X75635000Y-36138000D01*
G75*
G02*
X75560000Y-36213000I-75000J0D01*
G01*
X75410000Y-36213000D01*
G75*
G02*
X75335000Y-36138000I0J75000D01*
G01*
X75335000Y-34813000D01*
G75*
G02*
X75410000Y-34738000I75000J0D01*
G01*
G37*
%TD.AperFunction*%
%TO.P,U4,72*%
%TA.AperFunction,SMDPad,CuDef*%
G36*
G01*
X74910000Y-34738000D02*
X75060000Y-34738000D01*
G75*
G02*
X75135000Y-34813000I0J-75000D01*
G01*
X75135000Y-36138000D01*
G75*
G02*
X75060000Y-36213000I-75000J0D01*
G01*
X74910000Y-36213000D01*
G75*
G02*
X74835000Y-36138000I0J75000D01*
G01*
X74835000Y-34813000D01*
G75*
G02*
X74910000Y-34738000I75000J0D01*
G01*
G37*
%TD.AperFunction*%
%TO.P,U4,71*%
%TA.AperFunction,SMDPad,CuDef*%
G36*
G01*
X74410000Y-34738000D02*
X74560000Y-34738000D01*
G75*
G02*
X74635000Y-34813000I0J-75000D01*
G01*
X74635000Y-36138000D01*
G75*
G02*
X74560000Y-36213000I-75000J0D01*
G01*
X74410000Y-36213000D01*
G75*
G02*
X74335000Y-36138000I0J75000D01*
G01*
X74335000Y-34813000D01*
G75*
G02*
X74410000Y-34738000I75000J0D01*
G01*
G37*
%TD.AperFunction*%
%TO.P,U4,70*%
%TA.AperFunction,SMDPad,CuDef*%
G36*
G01*
X73910000Y-34738000D02*
X74060000Y-34738000D01*
G75*
G02*
X74135000Y-34813000I0J-75000D01*
G01*
X74135000Y-36138000D01*
G75*
G02*
X74060000Y-36213000I-75000J0D01*
G01*
X73910000Y-36213000D01*
G75*
G02*
X73835000Y-36138000I0J75000D01*
G01*
X73835000Y-34813000D01*
G75*
G02*
X73910000Y-34738000I75000J0D01*
G01*
G37*
%TD.AperFunction*%
%TO.P,U4,69*%
%TA.AperFunction,SMDPad,CuDef*%
G36*
G01*
X73410000Y-34738000D02*
X73560000Y-34738000D01*
G75*
G02*
X73635000Y-34813000I0J-75000D01*
G01*
X73635000Y-36138000D01*
G75*
G02*
X73560000Y-36213000I-75000J0D01*
G01*
X73410000Y-36213000D01*
G75*
G02*
X73335000Y-36138000I0J75000D01*
G01*
X73335000Y-34813000D01*
G75*
G02*
X73410000Y-34738000I75000J0D01*
G01*
G37*
%TD.AperFunction*%
%TO.P,U4,68*%
%TA.AperFunction,SMDPad,CuDef*%
G36*
G01*
X72910000Y-34738000D02*
X73060000Y-34738000D01*
G75*
G02*
X73135000Y-34813000I0J-75000D01*
G01*
X73135000Y-36138000D01*
G75*
G02*
X73060000Y-36213000I-75000J0D01*
G01*
X72910000Y-36213000D01*
G75*
G02*
X72835000Y-36138000I0J75000D01*
G01*
X72835000Y-34813000D01*
G75*
G02*
X72910000Y-34738000I75000J0D01*
G01*
G37*
%TD.AperFunction*%
%TO.P,U4,67*%
%TA.AperFunction,SMDPad,CuDef*%
G36*
G01*
X72410000Y-34738000D02*
X72560000Y-34738000D01*
G75*
G02*
X72635000Y-34813000I0J-75000D01*
G01*
X72635000Y-36138000D01*
G75*
G02*
X72560000Y-36213000I-75000J0D01*
G01*
X72410000Y-36213000D01*
G75*
G02*
X72335000Y-36138000I0J75000D01*
G01*
X72335000Y-34813000D01*
G75*
G02*
X72410000Y-34738000I75000J0D01*
G01*
G37*
%TD.AperFunction*%
%TO.P,U4,66*%
%TA.AperFunction,SMDPad,CuDef*%
G36*
G01*
X71910000Y-34738000D02*
X72060000Y-34738000D01*
G75*
G02*
X72135000Y-34813000I0J-75000D01*
G01*
X72135000Y-36138000D01*
G75*
G02*
X72060000Y-36213000I-75000J0D01*
G01*
X71910000Y-36213000D01*
G75*
G02*
X71835000Y-36138000I0J75000D01*
G01*
X71835000Y-34813000D01*
G75*
G02*
X71910000Y-34738000I75000J0D01*
G01*
G37*
%TD.AperFunction*%
%TO.P,U4,65*%
%TA.AperFunction,SMDPad,CuDef*%
G36*
G01*
X71410000Y-34738000D02*
X71560000Y-34738000D01*
G75*
G02*
X71635000Y-34813000I0J-75000D01*
G01*
X71635000Y-36138000D01*
G75*
G02*
X71560000Y-36213000I-75000J0D01*
G01*
X71410000Y-36213000D01*
G75*
G02*
X71335000Y-36138000I0J75000D01*
G01*
X71335000Y-34813000D01*
G75*
G02*
X71410000Y-34738000I75000J0D01*
G01*
G37*
%TD.AperFunction*%
%TO.P,U4,64*%
%TO.N,extraRX*%
%TA.AperFunction,SMDPad,CuDef*%
G36*
G01*
X70910000Y-34738000D02*
X71060000Y-34738000D01*
G75*
G02*
X71135000Y-34813000I0J-75000D01*
G01*
X71135000Y-36138000D01*
G75*
G02*
X71060000Y-36213000I-75000J0D01*
G01*
X70910000Y-36213000D01*
G75*
G02*
X70835000Y-36138000I0J75000D01*
G01*
X70835000Y-34813000D01*
G75*
G02*
X70910000Y-34738000I75000J0D01*
G01*
G37*
%TD.AperFunction*%
%TO.P,U4,63*%
%TO.N,extraTX*%
%TA.AperFunction,SMDPad,CuDef*%
G36*
G01*
X70410000Y-34738000D02*
X70560000Y-34738000D01*
G75*
G02*
X70635000Y-34813000I0J-75000D01*
G01*
X70635000Y-36138000D01*
G75*
G02*
X70560000Y-36213000I-75000J0D01*
G01*
X70410000Y-36213000D01*
G75*
G02*
X70335000Y-36138000I0J75000D01*
G01*
X70335000Y-34813000D01*
G75*
G02*
X70410000Y-34738000I75000J0D01*
G01*
G37*
%TD.AperFunction*%
%TO.P,U4,62*%
%TO.N,GND*%
%TA.AperFunction,SMDPad,CuDef*%
G36*
G01*
X69910000Y-34738000D02*
X70060000Y-34738000D01*
G75*
G02*
X70135000Y-34813000I0J-75000D01*
G01*
X70135000Y-36138000D01*
G75*
G02*
X70060000Y-36213000I-75000J0D01*
G01*
X69910000Y-36213000D01*
G75*
G02*
X69835000Y-36138000I0J75000D01*
G01*
X69835000Y-34813000D01*
G75*
G02*
X69910000Y-34738000I75000J0D01*
G01*
G37*
%TD.AperFunction*%
%TO.P,U4,61*%
%TO.N,USB_VIN*%
%TA.AperFunction,SMDPad,CuDef*%
G36*
G01*
X69410000Y-34738000D02*
X69560000Y-34738000D01*
G75*
G02*
X69635000Y-34813000I0J-75000D01*
G01*
X69635000Y-36138000D01*
G75*
G02*
X69560000Y-36213000I-75000J0D01*
G01*
X69410000Y-36213000D01*
G75*
G02*
X69335000Y-36138000I0J75000D01*
G01*
X69335000Y-34813000D01*
G75*
G02*
X69410000Y-34738000I75000J0D01*
G01*
G37*
%TD.AperFunction*%
%TO.P,U4,60*%
%TO.N,N/C*%
%TA.AperFunction,SMDPad,CuDef*%
G36*
G01*
X68910000Y-34738000D02*
X69060000Y-34738000D01*
G75*
G02*
X69135000Y-34813000I0J-75000D01*
G01*
X69135000Y-36138000D01*
G75*
G02*
X69060000Y-36213000I-75000J0D01*
G01*
X68910000Y-36213000D01*
G75*
G02*
X68835000Y-36138000I0J75000D01*
G01*
X68835000Y-34813000D01*
G75*
G02*
X68910000Y-34738000I75000J0D01*
G01*
G37*
%TD.AperFunction*%
%TO.P,U4,59*%
%TA.AperFunction,SMDPad,CuDef*%
G36*
G01*
X68410000Y-34738000D02*
X68560000Y-34738000D01*
G75*
G02*
X68635000Y-34813000I0J-75000D01*
G01*
X68635000Y-36138000D01*
G75*
G02*
X68560000Y-36213000I-75000J0D01*
G01*
X68410000Y-36213000D01*
G75*
G02*
X68335000Y-36138000I0J75000D01*
G01*
X68335000Y-34813000D01*
G75*
G02*
X68410000Y-34738000I75000J0D01*
G01*
G37*
%TD.AperFunction*%
%TO.P,U4,58*%
%TA.AperFunction,SMDPad,CuDef*%
G36*
G01*
X67910000Y-34738000D02*
X68060000Y-34738000D01*
G75*
G02*
X68135000Y-34813000I0J-75000D01*
G01*
X68135000Y-36138000D01*
G75*
G02*
X68060000Y-36213000I-75000J0D01*
G01*
X67910000Y-36213000D01*
G75*
G02*
X67835000Y-36138000I0J75000D01*
G01*
X67835000Y-34813000D01*
G75*
G02*
X67910000Y-34738000I75000J0D01*
G01*
G37*
%TD.AperFunction*%
%TO.P,U4,57*%
%TA.AperFunction,SMDPad,CuDef*%
G36*
G01*
X67410000Y-34738000D02*
X67560000Y-34738000D01*
G75*
G02*
X67635000Y-34813000I0J-75000D01*
G01*
X67635000Y-36138000D01*
G75*
G02*
X67560000Y-36213000I-75000J0D01*
G01*
X67410000Y-36213000D01*
G75*
G02*
X67335000Y-36138000I0J75000D01*
G01*
X67335000Y-34813000D01*
G75*
G02*
X67410000Y-34738000I75000J0D01*
G01*
G37*
%TD.AperFunction*%
%TO.P,U4,56*%
%TA.AperFunction,SMDPad,CuDef*%
G36*
G01*
X66910000Y-34738000D02*
X67060000Y-34738000D01*
G75*
G02*
X67135000Y-34813000I0J-75000D01*
G01*
X67135000Y-36138000D01*
G75*
G02*
X67060000Y-36213000I-75000J0D01*
G01*
X66910000Y-36213000D01*
G75*
G02*
X66835000Y-36138000I0J75000D01*
G01*
X66835000Y-34813000D01*
G75*
G02*
X66910000Y-34738000I75000J0D01*
G01*
G37*
%TD.AperFunction*%
%TO.P,U4,55*%
%TA.AperFunction,SMDPad,CuDef*%
G36*
G01*
X66410000Y-34738000D02*
X66560000Y-34738000D01*
G75*
G02*
X66635000Y-34813000I0J-75000D01*
G01*
X66635000Y-36138000D01*
G75*
G02*
X66560000Y-36213000I-75000J0D01*
G01*
X66410000Y-36213000D01*
G75*
G02*
X66335000Y-36138000I0J75000D01*
G01*
X66335000Y-34813000D01*
G75*
G02*
X66410000Y-34738000I75000J0D01*
G01*
G37*
%TD.AperFunction*%
%TO.P,U4,54*%
%TA.AperFunction,SMDPad,CuDef*%
G36*
G01*
X65910000Y-34738000D02*
X66060000Y-34738000D01*
G75*
G02*
X66135000Y-34813000I0J-75000D01*
G01*
X66135000Y-36138000D01*
G75*
G02*
X66060000Y-36213000I-75000J0D01*
G01*
X65910000Y-36213000D01*
G75*
G02*
X65835000Y-36138000I0J75000D01*
G01*
X65835000Y-34813000D01*
G75*
G02*
X65910000Y-34738000I75000J0D01*
G01*
G37*
%TD.AperFunction*%
%TO.P,U4,53*%
%TA.AperFunction,SMDPad,CuDef*%
G36*
G01*
X65410000Y-34738000D02*
X65560000Y-34738000D01*
G75*
G02*
X65635000Y-34813000I0J-75000D01*
G01*
X65635000Y-36138000D01*
G75*
G02*
X65560000Y-36213000I-75000J0D01*
G01*
X65410000Y-36213000D01*
G75*
G02*
X65335000Y-36138000I0J75000D01*
G01*
X65335000Y-34813000D01*
G75*
G02*
X65410000Y-34738000I75000J0D01*
G01*
G37*
%TD.AperFunction*%
%TO.P,U4,52*%
%TA.AperFunction,SMDPad,CuDef*%
G36*
G01*
X64910000Y-34738000D02*
X65060000Y-34738000D01*
G75*
G02*
X65135000Y-34813000I0J-75000D01*
G01*
X65135000Y-36138000D01*
G75*
G02*
X65060000Y-36213000I-75000J0D01*
G01*
X64910000Y-36213000D01*
G75*
G02*
X64835000Y-36138000I0J75000D01*
G01*
X64835000Y-34813000D01*
G75*
G02*
X64910000Y-34738000I75000J0D01*
G01*
G37*
%TD.AperFunction*%
%TO.P,U4,51*%
%TA.AperFunction,SMDPad,CuDef*%
G36*
G01*
X64410000Y-34738000D02*
X64560000Y-34738000D01*
G75*
G02*
X64635000Y-34813000I0J-75000D01*
G01*
X64635000Y-36138000D01*
G75*
G02*
X64560000Y-36213000I-75000J0D01*
G01*
X64410000Y-36213000D01*
G75*
G02*
X64335000Y-36138000I0J75000D01*
G01*
X64335000Y-34813000D01*
G75*
G02*
X64410000Y-34738000I75000J0D01*
G01*
G37*
%TD.AperFunction*%
%TO.P,U4,50*%
%TA.AperFunction,SMDPad,CuDef*%
G36*
G01*
X62160000Y-33663000D02*
X63485000Y-33663000D01*
G75*
G02*
X63560000Y-33738000I0J-75000D01*
G01*
X63560000Y-33888000D01*
G75*
G02*
X63485000Y-33963000I-75000J0D01*
G01*
X62160000Y-33963000D01*
G75*
G02*
X62085000Y-33888000I0J75000D01*
G01*
X62085000Y-33738000D01*
G75*
G02*
X62160000Y-33663000I75000J0D01*
G01*
G37*
%TD.AperFunction*%
%TO.P,U4,49*%
%TA.AperFunction,SMDPad,CuDef*%
G36*
G01*
X62160000Y-33163000D02*
X63485000Y-33163000D01*
G75*
G02*
X63560000Y-33238000I0J-75000D01*
G01*
X63560000Y-33388000D01*
G75*
G02*
X63485000Y-33463000I-75000J0D01*
G01*
X62160000Y-33463000D01*
G75*
G02*
X62085000Y-33388000I0J75000D01*
G01*
X62085000Y-33238000D01*
G75*
G02*
X62160000Y-33163000I75000J0D01*
G01*
G37*
%TD.AperFunction*%
%TO.P,U4,48*%
%TA.AperFunction,SMDPad,CuDef*%
G36*
G01*
X62160000Y-32663000D02*
X63485000Y-32663000D01*
G75*
G02*
X63560000Y-32738000I0J-75000D01*
G01*
X63560000Y-32888000D01*
G75*
G02*
X63485000Y-32963000I-75000J0D01*
G01*
X62160000Y-32963000D01*
G75*
G02*
X62085000Y-32888000I0J75000D01*
G01*
X62085000Y-32738000D01*
G75*
G02*
X62160000Y-32663000I75000J0D01*
G01*
G37*
%TD.AperFunction*%
%TO.P,U4,47*%
%TA.AperFunction,SMDPad,CuDef*%
G36*
G01*
X62160000Y-32163000D02*
X63485000Y-32163000D01*
G75*
G02*
X63560000Y-32238000I0J-75000D01*
G01*
X63560000Y-32388000D01*
G75*
G02*
X63485000Y-32463000I-75000J0D01*
G01*
X62160000Y-32463000D01*
G75*
G02*
X62085000Y-32388000I0J75000D01*
G01*
X62085000Y-32238000D01*
G75*
G02*
X62160000Y-32163000I75000J0D01*
G01*
G37*
%TD.AperFunction*%
%TO.P,U4,46*%
%TO.N,GPSrx*%
%TA.AperFunction,SMDPad,CuDef*%
G36*
G01*
X62160000Y-31663000D02*
X63485000Y-31663000D01*
G75*
G02*
X63560000Y-31738000I0J-75000D01*
G01*
X63560000Y-31888000D01*
G75*
G02*
X63485000Y-31963000I-75000J0D01*
G01*
X62160000Y-31963000D01*
G75*
G02*
X62085000Y-31888000I0J75000D01*
G01*
X62085000Y-31738000D01*
G75*
G02*
X62160000Y-31663000I75000J0D01*
G01*
G37*
%TD.AperFunction*%
%TO.P,U4,45*%
%TO.N,GPStx*%
%TA.AperFunction,SMDPad,CuDef*%
G36*
G01*
X62160000Y-31163000D02*
X63485000Y-31163000D01*
G75*
G02*
X63560000Y-31238000I0J-75000D01*
G01*
X63560000Y-31388000D01*
G75*
G02*
X63485000Y-31463000I-75000J0D01*
G01*
X62160000Y-31463000D01*
G75*
G02*
X62085000Y-31388000I0J75000D01*
G01*
X62085000Y-31238000D01*
G75*
G02*
X62160000Y-31163000I75000J0D01*
G01*
G37*
%TD.AperFunction*%
%TO.P,U4,44*%
%TO.N,2560_SDA*%
%TA.AperFunction,SMDPad,CuDef*%
G36*
G01*
X62160000Y-30663000D02*
X63485000Y-30663000D01*
G75*
G02*
X63560000Y-30738000I0J-75000D01*
G01*
X63560000Y-30888000D01*
G75*
G02*
X63485000Y-30963000I-75000J0D01*
G01*
X62160000Y-30963000D01*
G75*
G02*
X62085000Y-30888000I0J75000D01*
G01*
X62085000Y-30738000D01*
G75*
G02*
X62160000Y-30663000I75000J0D01*
G01*
G37*
%TD.AperFunction*%
%TO.P,U4,43*%
%TO.N,2560_SCL*%
%TA.AperFunction,SMDPad,CuDef*%
G36*
G01*
X62160000Y-30163000D02*
X63485000Y-30163000D01*
G75*
G02*
X63560000Y-30238000I0J-75000D01*
G01*
X63560000Y-30388000D01*
G75*
G02*
X63485000Y-30463000I-75000J0D01*
G01*
X62160000Y-30463000D01*
G75*
G02*
X62085000Y-30388000I0J75000D01*
G01*
X62085000Y-30238000D01*
G75*
G02*
X62160000Y-30163000I75000J0D01*
G01*
G37*
%TD.AperFunction*%
%TO.P,U4,42*%
%TO.N,N/C*%
%TA.AperFunction,SMDPad,CuDef*%
G36*
G01*
X62160000Y-29663000D02*
X63485000Y-29663000D01*
G75*
G02*
X63560000Y-29738000I0J-75000D01*
G01*
X63560000Y-29888000D01*
G75*
G02*
X63485000Y-29963000I-75000J0D01*
G01*
X62160000Y-29963000D01*
G75*
G02*
X62085000Y-29888000I0J75000D01*
G01*
X62085000Y-29738000D01*
G75*
G02*
X62160000Y-29663000I75000J0D01*
G01*
G37*
%TD.AperFunction*%
%TO.P,U4,41*%
%TA.AperFunction,SMDPad,CuDef*%
G36*
G01*
X62160000Y-29163000D02*
X63485000Y-29163000D01*
G75*
G02*
X63560000Y-29238000I0J-75000D01*
G01*
X63560000Y-29388000D01*
G75*
G02*
X63485000Y-29463000I-75000J0D01*
G01*
X62160000Y-29463000D01*
G75*
G02*
X62085000Y-29388000I0J75000D01*
G01*
X62085000Y-29238000D01*
G75*
G02*
X62160000Y-29163000I75000J0D01*
G01*
G37*
%TD.AperFunction*%
%TO.P,U4,40*%
%TA.AperFunction,SMDPad,CuDef*%
G36*
G01*
X62160000Y-28663000D02*
X63485000Y-28663000D01*
G75*
G02*
X63560000Y-28738000I0J-75000D01*
G01*
X63560000Y-28888000D01*
G75*
G02*
X63485000Y-28963000I-75000J0D01*
G01*
X62160000Y-28963000D01*
G75*
G02*
X62085000Y-28888000I0J75000D01*
G01*
X62085000Y-28738000D01*
G75*
G02*
X62160000Y-28663000I75000J0D01*
G01*
G37*
%TD.AperFunction*%
%TO.P,U4,39*%
%TA.AperFunction,SMDPad,CuDef*%
G36*
G01*
X62160000Y-28163000D02*
X63485000Y-28163000D01*
G75*
G02*
X63560000Y-28238000I0J-75000D01*
G01*
X63560000Y-28388000D01*
G75*
G02*
X63485000Y-28463000I-75000J0D01*
G01*
X62160000Y-28463000D01*
G75*
G02*
X62085000Y-28388000I0J75000D01*
G01*
X62085000Y-28238000D01*
G75*
G02*
X62160000Y-28163000I75000J0D01*
G01*
G37*
%TD.AperFunction*%
%TO.P,U4,38*%
%TA.AperFunction,SMDPad,CuDef*%
G36*
G01*
X62160000Y-27663000D02*
X63485000Y-27663000D01*
G75*
G02*
X63560000Y-27738000I0J-75000D01*
G01*
X63560000Y-27888000D01*
G75*
G02*
X63485000Y-27963000I-75000J0D01*
G01*
X62160000Y-27963000D01*
G75*
G02*
X62085000Y-27888000I0J75000D01*
G01*
X62085000Y-27738000D01*
G75*
G02*
X62160000Y-27663000I75000J0D01*
G01*
G37*
%TD.AperFunction*%
%TO.P,U4,37*%
%TA.AperFunction,SMDPad,CuDef*%
G36*
G01*
X62160000Y-27163000D02*
X63485000Y-27163000D01*
G75*
G02*
X63560000Y-27238000I0J-75000D01*
G01*
X63560000Y-27388000D01*
G75*
G02*
X63485000Y-27463000I-75000J0D01*
G01*
X62160000Y-27463000D01*
G75*
G02*
X62085000Y-27388000I0J75000D01*
G01*
X62085000Y-27238000D01*
G75*
G02*
X62160000Y-27163000I75000J0D01*
G01*
G37*
%TD.AperFunction*%
%TO.P,U4,36*%
%TA.AperFunction,SMDPad,CuDef*%
G36*
G01*
X62160000Y-26663000D02*
X63485000Y-26663000D01*
G75*
G02*
X63560000Y-26738000I0J-75000D01*
G01*
X63560000Y-26888000D01*
G75*
G02*
X63485000Y-26963000I-75000J0D01*
G01*
X62160000Y-26963000D01*
G75*
G02*
X62085000Y-26888000I0J75000D01*
G01*
X62085000Y-26738000D01*
G75*
G02*
X62160000Y-26663000I75000J0D01*
G01*
G37*
%TD.AperFunction*%
%TO.P,U4,35*%
%TA.AperFunction,SMDPad,CuDef*%
G36*
G01*
X62160000Y-26163000D02*
X63485000Y-26163000D01*
G75*
G02*
X63560000Y-26238000I0J-75000D01*
G01*
X63560000Y-26388000D01*
G75*
G02*
X63485000Y-26463000I-75000J0D01*
G01*
X62160000Y-26463000D01*
G75*
G02*
X62085000Y-26388000I0J75000D01*
G01*
X62085000Y-26238000D01*
G75*
G02*
X62160000Y-26163000I75000J0D01*
G01*
G37*
%TD.AperFunction*%
%TO.P,U4,34*%
%TO.N,atmega2560_clockPinB*%
%TA.AperFunction,SMDPad,CuDef*%
G36*
G01*
X62160000Y-25663000D02*
X63485000Y-25663000D01*
G75*
G02*
X63560000Y-25738000I0J-75000D01*
G01*
X63560000Y-25888000D01*
G75*
G02*
X63485000Y-25963000I-75000J0D01*
G01*
X62160000Y-25963000D01*
G75*
G02*
X62085000Y-25888000I0J75000D01*
G01*
X62085000Y-25738000D01*
G75*
G02*
X62160000Y-25663000I75000J0D01*
G01*
G37*
%TD.AperFunction*%
%TO.P,U4,33*%
%TO.N,atmega2560_clockPinA*%
%TA.AperFunction,SMDPad,CuDef*%
G36*
G01*
X62160000Y-25163000D02*
X63485000Y-25163000D01*
G75*
G02*
X63560000Y-25238000I0J-75000D01*
G01*
X63560000Y-25388000D01*
G75*
G02*
X63485000Y-25463000I-75000J0D01*
G01*
X62160000Y-25463000D01*
G75*
G02*
X62085000Y-25388000I0J75000D01*
G01*
X62085000Y-25238000D01*
G75*
G02*
X62160000Y-25163000I75000J0D01*
G01*
G37*
%TD.AperFunction*%
%TO.P,U4,32*%
%TO.N,GND*%
%TA.AperFunction,SMDPad,CuDef*%
G36*
G01*
X62160000Y-24663000D02*
X63485000Y-24663000D01*
G75*
G02*
X63560000Y-24738000I0J-75000D01*
G01*
X63560000Y-24888000D01*
G75*
G02*
X63485000Y-24963000I-75000J0D01*
G01*
X62160000Y-24963000D01*
G75*
G02*
X62085000Y-24888000I0J75000D01*
G01*
X62085000Y-24738000D01*
G75*
G02*
X62160000Y-24663000I75000J0D01*
G01*
G37*
%TD.AperFunction*%
%TO.P,U4,31*%
%TO.N,USB_VIN*%
%TA.AperFunction,SMDPad,CuDef*%
G36*
G01*
X62160000Y-24163000D02*
X63485000Y-24163000D01*
G75*
G02*
X63560000Y-24238000I0J-75000D01*
G01*
X63560000Y-24388000D01*
G75*
G02*
X63485000Y-24463000I-75000J0D01*
G01*
X62160000Y-24463000D01*
G75*
G02*
X62085000Y-24388000I0J75000D01*
G01*
X62085000Y-24238000D01*
G75*
G02*
X62160000Y-24163000I75000J0D01*
G01*
G37*
%TD.AperFunction*%
%TO.P,U4,30*%
%TO.N,2560_RESET*%
%TA.AperFunction,SMDPad,CuDef*%
G36*
G01*
X62160000Y-23663000D02*
X63485000Y-23663000D01*
G75*
G02*
X63560000Y-23738000I0J-75000D01*
G01*
X63560000Y-23888000D01*
G75*
G02*
X63485000Y-23963000I-75000J0D01*
G01*
X62160000Y-23963000D01*
G75*
G02*
X62085000Y-23888000I0J75000D01*
G01*
X62085000Y-23738000D01*
G75*
G02*
X62160000Y-23663000I75000J0D01*
G01*
G37*
%TD.AperFunction*%
%TO.P,U4,29*%
%TO.N,N/C*%
%TA.AperFunction,SMDPad,CuDef*%
G36*
G01*
X62160000Y-23163000D02*
X63485000Y-23163000D01*
G75*
G02*
X63560000Y-23238000I0J-75000D01*
G01*
X63560000Y-23388000D01*
G75*
G02*
X63485000Y-23463000I-75000J0D01*
G01*
X62160000Y-23463000D01*
G75*
G02*
X62085000Y-23388000I0J75000D01*
G01*
X62085000Y-23238000D01*
G75*
G02*
X62160000Y-23163000I75000J0D01*
G01*
G37*
%TD.AperFunction*%
%TO.P,U4,28*%
%TA.AperFunction,SMDPad,CuDef*%
G36*
G01*
X62160000Y-22663000D02*
X63485000Y-22663000D01*
G75*
G02*
X63560000Y-22738000I0J-75000D01*
G01*
X63560000Y-22888000D01*
G75*
G02*
X63485000Y-22963000I-75000J0D01*
G01*
X62160000Y-22963000D01*
G75*
G02*
X62085000Y-22888000I0J75000D01*
G01*
X62085000Y-22738000D01*
G75*
G02*
X62160000Y-22663000I75000J0D01*
G01*
G37*
%TD.AperFunction*%
%TO.P,U4,27*%
%TA.AperFunction,SMDPad,CuDef*%
G36*
G01*
X62160000Y-22163000D02*
X63485000Y-22163000D01*
G75*
G02*
X63560000Y-22238000I0J-75000D01*
G01*
X63560000Y-22388000D01*
G75*
G02*
X63485000Y-22463000I-75000J0D01*
G01*
X62160000Y-22463000D01*
G75*
G02*
X62085000Y-22388000I0J75000D01*
G01*
X62085000Y-22238000D01*
G75*
G02*
X62160000Y-22163000I75000J0D01*
G01*
G37*
%TD.AperFunction*%
%TO.P,U4,26*%
%TA.AperFunction,SMDPad,CuDef*%
G36*
G01*
X62160000Y-21663000D02*
X63485000Y-21663000D01*
G75*
G02*
X63560000Y-21738000I0J-75000D01*
G01*
X63560000Y-21888000D01*
G75*
G02*
X63485000Y-21963000I-75000J0D01*
G01*
X62160000Y-21963000D01*
G75*
G02*
X62085000Y-21888000I0J75000D01*
G01*
X62085000Y-21738000D01*
G75*
G02*
X62160000Y-21663000I75000J0D01*
G01*
G37*
%TD.AperFunction*%
%TO.P,U4,25*%
%TA.AperFunction,SMDPad,CuDef*%
G36*
G01*
X64410000Y-19413000D02*
X64560000Y-19413000D01*
G75*
G02*
X64635000Y-19488000I0J-75000D01*
G01*
X64635000Y-20813000D01*
G75*
G02*
X64560000Y-20888000I-75000J0D01*
G01*
X64410000Y-20888000D01*
G75*
G02*
X64335000Y-20813000I0J75000D01*
G01*
X64335000Y-19488000D01*
G75*
G02*
X64410000Y-19413000I75000J0D01*
G01*
G37*
%TD.AperFunction*%
%TO.P,U4,24*%
%TO.N,PWM9*%
%TA.AperFunction,SMDPad,CuDef*%
G36*
G01*
X64910000Y-19413000D02*
X65060000Y-19413000D01*
G75*
G02*
X65135000Y-19488000I0J-75000D01*
G01*
X65135000Y-20813000D01*
G75*
G02*
X65060000Y-20888000I-75000J0D01*
G01*
X64910000Y-20888000D01*
G75*
G02*
X64835000Y-20813000I0J75000D01*
G01*
X64835000Y-19488000D01*
G75*
G02*
X64910000Y-19413000I75000J0D01*
G01*
G37*
%TD.AperFunction*%
%TO.P,U4,23*%
%TO.N,PWM8*%
%TA.AperFunction,SMDPad,CuDef*%
G36*
G01*
X65410000Y-19413000D02*
X65560000Y-19413000D01*
G75*
G02*
X65635000Y-19488000I0J-75000D01*
G01*
X65635000Y-20813000D01*
G75*
G02*
X65560000Y-20888000I-75000J0D01*
G01*
X65410000Y-20888000D01*
G75*
G02*
X65335000Y-20813000I0J75000D01*
G01*
X65335000Y-19488000D01*
G75*
G02*
X65410000Y-19413000I75000J0D01*
G01*
G37*
%TD.AperFunction*%
%TO.P,U4,22*%
%TO.N,2560_MISO*%
%TA.AperFunction,SMDPad,CuDef*%
G36*
G01*
X65910000Y-19413000D02*
X66060000Y-19413000D01*
G75*
G02*
X66135000Y-19488000I0J-75000D01*
G01*
X66135000Y-20813000D01*
G75*
G02*
X66060000Y-20888000I-75000J0D01*
G01*
X65910000Y-20888000D01*
G75*
G02*
X65835000Y-20813000I0J75000D01*
G01*
X65835000Y-19488000D01*
G75*
G02*
X65910000Y-19413000I75000J0D01*
G01*
G37*
%TD.AperFunction*%
%TO.P,U4,21*%
%TO.N,2560_MOSI*%
%TA.AperFunction,SMDPad,CuDef*%
G36*
G01*
X66410000Y-19413000D02*
X66560000Y-19413000D01*
G75*
G02*
X66635000Y-19488000I0J-75000D01*
G01*
X66635000Y-20813000D01*
G75*
G02*
X66560000Y-20888000I-75000J0D01*
G01*
X66410000Y-20888000D01*
G75*
G02*
X66335000Y-20813000I0J75000D01*
G01*
X66335000Y-19488000D01*
G75*
G02*
X66410000Y-19413000I75000J0D01*
G01*
G37*
%TD.AperFunction*%
%TO.P,U4,20*%
%TO.N,2560_SCK*%
%TA.AperFunction,SMDPad,CuDef*%
G36*
G01*
X66910000Y-19413000D02*
X67060000Y-19413000D01*
G75*
G02*
X67135000Y-19488000I0J-75000D01*
G01*
X67135000Y-20813000D01*
G75*
G02*
X67060000Y-20888000I-75000J0D01*
G01*
X66910000Y-20888000D01*
G75*
G02*
X66835000Y-20813000I0J75000D01*
G01*
X66835000Y-19488000D01*
G75*
G02*
X66910000Y-19413000I75000J0D01*
G01*
G37*
%TD.AperFunction*%
%TO.P,U4,19*%
%TO.N,2560_CS*%
%TA.AperFunction,SMDPad,CuDef*%
G36*
G01*
X67410000Y-19413000D02*
X67560000Y-19413000D01*
G75*
G02*
X67635000Y-19488000I0J-75000D01*
G01*
X67635000Y-20813000D01*
G75*
G02*
X67560000Y-20888000I-75000J0D01*
G01*
X67410000Y-20888000D01*
G75*
G02*
X67335000Y-20813000I0J75000D01*
G01*
X67335000Y-19488000D01*
G75*
G02*
X67410000Y-19413000I75000J0D01*
G01*
G37*
%TD.AperFunction*%
%TO.P,U4,18*%
%TO.N,PWM7*%
%TA.AperFunction,SMDPad,CuDef*%
G36*
G01*
X67910000Y-19413000D02*
X68060000Y-19413000D01*
G75*
G02*
X68135000Y-19488000I0J-75000D01*
G01*
X68135000Y-20813000D01*
G75*
G02*
X68060000Y-20888000I-75000J0D01*
G01*
X67910000Y-20888000D01*
G75*
G02*
X67835000Y-20813000I0J75000D01*
G01*
X67835000Y-19488000D01*
G75*
G02*
X67910000Y-19413000I75000J0D01*
G01*
G37*
%TD.AperFunction*%
%TO.P,U4,17*%
%TO.N,PWM6*%
%TA.AperFunction,SMDPad,CuDef*%
G36*
G01*
X68410000Y-19413000D02*
X68560000Y-19413000D01*
G75*
G02*
X68635000Y-19488000I0J-75000D01*
G01*
X68635000Y-20813000D01*
G75*
G02*
X68560000Y-20888000I-75000J0D01*
G01*
X68410000Y-20888000D01*
G75*
G02*
X68335000Y-20813000I0J75000D01*
G01*
X68335000Y-19488000D01*
G75*
G02*
X68410000Y-19413000I75000J0D01*
G01*
G37*
%TD.AperFunction*%
%TO.P,U4,16*%
%TO.N,PWM5*%
%TA.AperFunction,SMDPad,CuDef*%
G36*
G01*
X68910000Y-19413000D02*
X69060000Y-19413000D01*
G75*
G02*
X69135000Y-19488000I0J-75000D01*
G01*
X69135000Y-20813000D01*
G75*
G02*
X69060000Y-20888000I-75000J0D01*
G01*
X68910000Y-20888000D01*
G75*
G02*
X68835000Y-20813000I0J75000D01*
G01*
X68835000Y-19488000D01*
G75*
G02*
X68910000Y-19413000I75000J0D01*
G01*
G37*
%TD.AperFunction*%
%TO.P,U4,15*%
%TO.N,PWM4*%
%TA.AperFunction,SMDPad,CuDef*%
G36*
G01*
X69410000Y-19413000D02*
X69560000Y-19413000D01*
G75*
G02*
X69635000Y-19488000I0J-75000D01*
G01*
X69635000Y-20813000D01*
G75*
G02*
X69560000Y-20888000I-75000J0D01*
G01*
X69410000Y-20888000D01*
G75*
G02*
X69335000Y-20813000I0J75000D01*
G01*
X69335000Y-19488000D01*
G75*
G02*
X69410000Y-19413000I75000J0D01*
G01*
G37*
%TD.AperFunction*%
%TO.P,U4,14*%
%TO.N,N/C*%
%TA.AperFunction,SMDPad,CuDef*%
G36*
G01*
X69910000Y-19413000D02*
X70060000Y-19413000D01*
G75*
G02*
X70135000Y-19488000I0J-75000D01*
G01*
X70135000Y-20813000D01*
G75*
G02*
X70060000Y-20888000I-75000J0D01*
G01*
X69910000Y-20888000D01*
G75*
G02*
X69835000Y-20813000I0J75000D01*
G01*
X69835000Y-19488000D01*
G75*
G02*
X69910000Y-19413000I75000J0D01*
G01*
G37*
%TD.AperFunction*%
%TO.P,U4,13*%
%TO.N,wireless_rx*%
%TA.AperFunction,SMDPad,CuDef*%
G36*
G01*
X70410000Y-19413000D02*
X70560000Y-19413000D01*
G75*
G02*
X70635000Y-19488000I0J-75000D01*
G01*
X70635000Y-20813000D01*
G75*
G02*
X70560000Y-20888000I-75000J0D01*
G01*
X70410000Y-20888000D01*
G75*
G02*
X70335000Y-20813000I0J75000D01*
G01*
X70335000Y-19488000D01*
G75*
G02*
X70410000Y-19413000I75000J0D01*
G01*
G37*
%TD.AperFunction*%
%TO.P,U4,12*%
%TO.N,wireless_tx*%
%TA.AperFunction,SMDPad,CuDef*%
G36*
G01*
X70910000Y-19413000D02*
X71060000Y-19413000D01*
G75*
G02*
X71135000Y-19488000I0J-75000D01*
G01*
X71135000Y-20813000D01*
G75*
G02*
X71060000Y-20888000I-75000J0D01*
G01*
X70910000Y-20888000D01*
G75*
G02*
X70835000Y-20813000I0J75000D01*
G01*
X70835000Y-19488000D01*
G75*
G02*
X70910000Y-19413000I75000J0D01*
G01*
G37*
%TD.AperFunction*%
%TO.P,U4,11*%
%TO.N,GND*%
%TA.AperFunction,SMDPad,CuDef*%
G36*
G01*
X71410000Y-19413000D02*
X71560000Y-19413000D01*
G75*
G02*
X71635000Y-19488000I0J-75000D01*
G01*
X71635000Y-20813000D01*
G75*
G02*
X71560000Y-20888000I-75000J0D01*
G01*
X71410000Y-20888000D01*
G75*
G02*
X71335000Y-20813000I0J75000D01*
G01*
X71335000Y-19488000D01*
G75*
G02*
X71410000Y-19413000I75000J0D01*
G01*
G37*
%TD.AperFunction*%
%TO.P,U4,10*%
%TO.N,USB_VIN*%
%TA.AperFunction,SMDPad,CuDef*%
G36*
G01*
X71910000Y-19413000D02*
X72060000Y-19413000D01*
G75*
G02*
X72135000Y-19488000I0J-75000D01*
G01*
X72135000Y-20813000D01*
G75*
G02*
X72060000Y-20888000I-75000J0D01*
G01*
X71910000Y-20888000D01*
G75*
G02*
X71835000Y-20813000I0J75000D01*
G01*
X71835000Y-19488000D01*
G75*
G02*
X71910000Y-19413000I75000J0D01*
G01*
G37*
%TD.AperFunction*%
%TO.P,U4,9*%
%TO.N,N/C*%
%TA.AperFunction,SMDPad,CuDef*%
G36*
G01*
X72410000Y-19413000D02*
X72560000Y-19413000D01*
G75*
G02*
X72635000Y-19488000I0J-75000D01*
G01*
X72635000Y-20813000D01*
G75*
G02*
X72560000Y-20888000I-75000J0D01*
G01*
X72410000Y-20888000D01*
G75*
G02*
X72335000Y-20813000I0J75000D01*
G01*
X72335000Y-19488000D01*
G75*
G02*
X72410000Y-19413000I75000J0D01*
G01*
G37*
%TD.AperFunction*%
%TO.P,U4,8*%
%TA.AperFunction,SMDPad,CuDef*%
G36*
G01*
X72910000Y-19413000D02*
X73060000Y-19413000D01*
G75*
G02*
X73135000Y-19488000I0J-75000D01*
G01*
X73135000Y-20813000D01*
G75*
G02*
X73060000Y-20888000I-75000J0D01*
G01*
X72910000Y-20888000D01*
G75*
G02*
X72835000Y-20813000I0J75000D01*
G01*
X72835000Y-19488000D01*
G75*
G02*
X72910000Y-19413000I75000J0D01*
G01*
G37*
%TD.AperFunction*%
%TO.P,U4,7*%
%TO.N,PWM1*%
%TA.AperFunction,SMDPad,CuDef*%
G36*
G01*
X73410000Y-19413000D02*
X73560000Y-19413000D01*
G75*
G02*
X73635000Y-19488000I0J-75000D01*
G01*
X73635000Y-20813000D01*
G75*
G02*
X73560000Y-20888000I-75000J0D01*
G01*
X73410000Y-20888000D01*
G75*
G02*
X73335000Y-20813000I0J75000D01*
G01*
X73335000Y-19488000D01*
G75*
G02*
X73410000Y-19413000I75000J0D01*
G01*
G37*
%TD.AperFunction*%
%TO.P,U4,6*%
%TO.N,PWM0*%
%TA.AperFunction,SMDPad,CuDef*%
G36*
G01*
X73910000Y-19413000D02*
X74060000Y-19413000D01*
G75*
G02*
X74135000Y-19488000I0J-75000D01*
G01*
X74135000Y-20813000D01*
G75*
G02*
X74060000Y-20888000I-75000J0D01*
G01*
X73910000Y-20888000D01*
G75*
G02*
X73835000Y-20813000I0J75000D01*
G01*
X73835000Y-19488000D01*
G75*
G02*
X73910000Y-19413000I75000J0D01*
G01*
G37*
%TD.AperFunction*%
%TO.P,U4,5*%
%TO.N,PWM3*%
%TA.AperFunction,SMDPad,CuDef*%
G36*
G01*
X74410000Y-19413000D02*
X74560000Y-19413000D01*
G75*
G02*
X74635000Y-19488000I0J-75000D01*
G01*
X74635000Y-20813000D01*
G75*
G02*
X74560000Y-20888000I-75000J0D01*
G01*
X74410000Y-20888000D01*
G75*
G02*
X74335000Y-20813000I0J75000D01*
G01*
X74335000Y-19488000D01*
G75*
G02*
X74410000Y-19413000I75000J0D01*
G01*
G37*
%TD.AperFunction*%
%TO.P,U4,4*%
%TO.N,N/C*%
%TA.AperFunction,SMDPad,CuDef*%
G36*
G01*
X74910000Y-19413000D02*
X75060000Y-19413000D01*
G75*
G02*
X75135000Y-19488000I0J-75000D01*
G01*
X75135000Y-20813000D01*
G75*
G02*
X75060000Y-20888000I-75000J0D01*
G01*
X74910000Y-20888000D01*
G75*
G02*
X74835000Y-20813000I0J75000D01*
G01*
X74835000Y-19488000D01*
G75*
G02*
X74910000Y-19413000I75000J0D01*
G01*
G37*
%TD.AperFunction*%
%TO.P,U4,3*%
%TO.N,ProgrammerRx*%
%TA.AperFunction,SMDPad,CuDef*%
G36*
G01*
X75410000Y-19413000D02*
X75560000Y-19413000D01*
G75*
G02*
X75635000Y-19488000I0J-75000D01*
G01*
X75635000Y-20813000D01*
G75*
G02*
X75560000Y-20888000I-75000J0D01*
G01*
X75410000Y-20888000D01*
G75*
G02*
X75335000Y-20813000I0J75000D01*
G01*
X75335000Y-19488000D01*
G75*
G02*
X75410000Y-19413000I75000J0D01*
G01*
G37*
%TD.AperFunction*%
%TO.P,U4,2*%
%TO.N,ProgrammerTx*%
%TA.AperFunction,SMDPad,CuDef*%
G36*
G01*
X75910000Y-19413000D02*
X76060000Y-19413000D01*
G75*
G02*
X76135000Y-19488000I0J-75000D01*
G01*
X76135000Y-20813000D01*
G75*
G02*
X76060000Y-20888000I-75000J0D01*
G01*
X75910000Y-20888000D01*
G75*
G02*
X75835000Y-20813000I0J75000D01*
G01*
X75835000Y-19488000D01*
G75*
G02*
X75910000Y-19413000I75000J0D01*
G01*
G37*
%TD.AperFunction*%
%TO.P,U4,1*%
%TO.N,PWM2*%
%TA.AperFunction,SMDPad,CuDef*%
G36*
G01*
X76410000Y-19413000D02*
X76560000Y-19413000D01*
G75*
G02*
X76635000Y-19488000I0J-75000D01*
G01*
X76635000Y-20813000D01*
G75*
G02*
X76560000Y-20888000I-75000J0D01*
G01*
X76410000Y-20888000D01*
G75*
G02*
X76335000Y-20813000I0J75000D01*
G01*
X76335000Y-19488000D01*
G75*
G02*
X76410000Y-19413000I75000J0D01*
G01*
G37*
%TD.AperFunction*%
%TD*%
D21*
%TO.P,U3,2*%
%TO.N,USB_VIN*%
X110593000Y-24639000D03*
D22*
%TO.P,U3,3*%
%TO.N,Net-(J5-Pad1)*%
X104293000Y-26919000D03*
%TO.P,U3,1*%
%TO.N,GND*%
X104293000Y-22359000D03*
%TD*%
D23*
%TO.P,U1,1*%
%TO.N,8U2_XTAL1*%
X54997000Y-40708000D03*
%TO.P,U1,2*%
%TO.N,8U2_XTAL2*%
X54197000Y-40708000D03*
%TO.P,U1,3*%
%TO.N,GND*%
X53397000Y-40708000D03*
%TO.P,U1,4*%
%TO.N,USB_VIN*%
X52597000Y-40708000D03*
%TO.P,U1,5*%
%TO.N,N/C*%
X51797000Y-40708000D03*
%TO.P,U1,6*%
X50997000Y-40708000D03*
%TO.P,U1,7*%
X50197000Y-40708000D03*
%TO.P,U1,8*%
%TO.N,Net-(R9-Pad2)*%
X49397000Y-40708000D03*
D24*
%TO.P,U1,9*%
%TO.N,Net-(R10-Pad2)*%
X47947000Y-42158000D03*
%TO.P,U1,10*%
%TO.N,Net-(D2-Pad1)*%
X47947000Y-42958000D03*
%TO.P,U1,11*%
%TO.N,Net-(D3-Pad1)*%
X47947000Y-43758000D03*
%TO.P,U1,12*%
%TO.N,N/C*%
X47947000Y-44558000D03*
%TO.P,U1,13*%
%TO.N,Net-(C5-Pad2)*%
X47947000Y-45358000D03*
%TO.P,U1,14*%
%TO.N,N/C*%
X47947000Y-46158000D03*
%TO.P,U1,15*%
%TO.N,8U2_SCK*%
X47947000Y-46958000D03*
%TO.P,U1,16*%
%TO.N,8U2_MOSI*%
X47947000Y-47758000D03*
D23*
%TO.P,U1,17*%
%TO.N,8U2_MISO*%
X49397000Y-49208000D03*
%TO.P,U1,18*%
%TO.N,N/C*%
X50197000Y-49208000D03*
%TO.P,U1,19*%
X50997000Y-49208000D03*
%TO.P,U1,20*%
X51797000Y-49208000D03*
%TO.P,U1,21*%
X52597000Y-49208000D03*
%TO.P,U1,22*%
X53397000Y-49208000D03*
%TO.P,U1,23*%
X54197000Y-49208000D03*
%TO.P,U1,24*%
%TO.N,8U2_RESET*%
X54997000Y-49208000D03*
D24*
%TO.P,U1,25*%
%TO.N,N/C*%
X56447000Y-47758000D03*
%TO.P,U1,26*%
X56447000Y-46958000D03*
%TO.P,U1,27*%
%TO.N,Net-(C3-Pad1)*%
X56447000Y-46158000D03*
%TO.P,U1,28*%
%TO.N,usb_ground*%
X56447000Y-45358000D03*
%TO.P,U1,29*%
%TO.N,USB_D+*%
X56447000Y-44558000D03*
%TO.P,U1,30*%
%TO.N,USB_D-*%
X56447000Y-43758000D03*
%TO.P,U1,31*%
%TO.N,USB_VIN*%
X56447000Y-42958000D03*
%TO.P,U1,32*%
X56447000Y-42158000D03*
%TD*%
%TO.P,R28,2*%
%TO.N,Net-(D1-Pad2)*%
%TA.AperFunction,SMDPad,CuDef*%
G36*
G01*
X73450500Y-48698999D02*
X73450500Y-49599001D01*
G75*
G02*
X73200501Y-49849000I-249999J0D01*
G01*
X72500499Y-49849000D01*
G75*
G02*
X72250500Y-49599001I0J249999D01*
G01*
X72250500Y-48698999D01*
G75*
G02*
X72500499Y-48449000I249999J0D01*
G01*
X73200501Y-48449000D01*
G75*
G02*
X73450500Y-48698999I0J-249999D01*
G01*
G37*
%TD.AperFunction*%
%TO.P,R28,1*%
%TO.N,USB_VIN*%
%TA.AperFunction,SMDPad,CuDef*%
G36*
G01*
X75450500Y-48698999D02*
X75450500Y-49599001D01*
G75*
G02*
X75200501Y-49849000I-249999J0D01*
G01*
X74500499Y-49849000D01*
G75*
G02*
X74250500Y-49599001I0J249999D01*
G01*
X74250500Y-48698999D01*
G75*
G02*
X74500499Y-48449000I249999J0D01*
G01*
X75200501Y-48449000D01*
G75*
G02*
X75450500Y-48698999I0J-249999D01*
G01*
G37*
%TD.AperFunction*%
%TD*%
%TO.P,R27,2*%
%TO.N,GND*%
%TA.AperFunction,SMDPad,CuDef*%
G36*
G01*
X24911000Y-24072001D02*
X24911000Y-23171999D01*
G75*
G02*
X25160999Y-22922000I249999J0D01*
G01*
X25861001Y-22922000D01*
G75*
G02*
X26111000Y-23171999I0J-249999D01*
G01*
X26111000Y-24072001D01*
G75*
G02*
X25861001Y-24322000I-249999J0D01*
G01*
X25160999Y-24322000D01*
G75*
G02*
X24911000Y-24072001I0J249999D01*
G01*
G37*
%TD.AperFunction*%
%TO.P,R27,1*%
%TO.N,Net-(J4-Pad2)*%
%TA.AperFunction,SMDPad,CuDef*%
G36*
G01*
X22911000Y-24072001D02*
X22911000Y-23171999D01*
G75*
G02*
X23160999Y-22922000I249999J0D01*
G01*
X23861001Y-22922000D01*
G75*
G02*
X24111000Y-23171999I0J-249999D01*
G01*
X24111000Y-24072001D01*
G75*
G02*
X23861001Y-24322000I-249999J0D01*
G01*
X23160999Y-24322000D01*
G75*
G02*
X22911000Y-24072001I0J249999D01*
G01*
G37*
%TD.AperFunction*%
%TD*%
%TO.P,R26,2*%
%TO.N,GND*%
%TA.AperFunction,SMDPad,CuDef*%
G36*
G01*
X24911000Y-18992001D02*
X24911000Y-18091999D01*
G75*
G02*
X25160999Y-17842000I249999J0D01*
G01*
X25861001Y-17842000D01*
G75*
G02*
X26111000Y-18091999I0J-249999D01*
G01*
X26111000Y-18992001D01*
G75*
G02*
X25861001Y-19242000I-249999J0D01*
G01*
X25160999Y-19242000D01*
G75*
G02*
X24911000Y-18992001I0J249999D01*
G01*
G37*
%TD.AperFunction*%
%TO.P,R26,1*%
%TO.N,Net-(J4-Pad3)*%
%TA.AperFunction,SMDPad,CuDef*%
G36*
G01*
X22911000Y-18992001D02*
X22911000Y-18091999D01*
G75*
G02*
X23160999Y-17842000I249999J0D01*
G01*
X23861001Y-17842000D01*
G75*
G02*
X24111000Y-18091999I0J-249999D01*
G01*
X24111000Y-18992001D01*
G75*
G02*
X23861001Y-19242000I-249999J0D01*
G01*
X23160999Y-19242000D01*
G75*
G02*
X22911000Y-18992001I0J249999D01*
G01*
G37*
%TD.AperFunction*%
%TD*%
%TO.P,R25,2*%
%TO.N,GND*%
%TA.AperFunction,SMDPad,CuDef*%
G36*
G01*
X24911000Y-16452001D02*
X24911000Y-15551999D01*
G75*
G02*
X25160999Y-15302000I249999J0D01*
G01*
X25861001Y-15302000D01*
G75*
G02*
X26111000Y-15551999I0J-249999D01*
G01*
X26111000Y-16452001D01*
G75*
G02*
X25861001Y-16702000I-249999J0D01*
G01*
X25160999Y-16702000D01*
G75*
G02*
X24911000Y-16452001I0J249999D01*
G01*
G37*
%TD.AperFunction*%
%TO.P,R25,1*%
%TO.N,Net-(J4-Pad5)*%
%TA.AperFunction,SMDPad,CuDef*%
G36*
G01*
X22911000Y-16452001D02*
X22911000Y-15551999D01*
G75*
G02*
X23160999Y-15302000I249999J0D01*
G01*
X23861001Y-15302000D01*
G75*
G02*
X24111000Y-15551999I0J-249999D01*
G01*
X24111000Y-16452001D01*
G75*
G02*
X23861001Y-16702000I-249999J0D01*
G01*
X23160999Y-16702000D01*
G75*
G02*
X22911000Y-16452001I0J249999D01*
G01*
G37*
%TD.AperFunction*%
%TD*%
%TO.P,R24,2*%
%TO.N,Net-(J4-Pad5)*%
%TA.AperFunction,SMDPad,CuDef*%
G36*
G01*
X24111000Y-13011999D02*
X24111000Y-13912001D01*
G75*
G02*
X23861001Y-14162000I-249999J0D01*
G01*
X23160999Y-14162000D01*
G75*
G02*
X22911000Y-13912001I0J249999D01*
G01*
X22911000Y-13011999D01*
G75*
G02*
X23160999Y-12762000I249999J0D01*
G01*
X23861001Y-12762000D01*
G75*
G02*
X24111000Y-13011999I0J-249999D01*
G01*
G37*
%TD.AperFunction*%
%TO.P,R24,1*%
%TO.N,2560_SCK*%
%TA.AperFunction,SMDPad,CuDef*%
G36*
G01*
X26111000Y-13011999D02*
X26111000Y-13912001D01*
G75*
G02*
X25861001Y-14162000I-249999J0D01*
G01*
X25160999Y-14162000D01*
G75*
G02*
X24911000Y-13912001I0J249999D01*
G01*
X24911000Y-13011999D01*
G75*
G02*
X25160999Y-12762000I249999J0D01*
G01*
X25861001Y-12762000D01*
G75*
G02*
X26111000Y-13011999I0J-249999D01*
G01*
G37*
%TD.AperFunction*%
%TD*%
%TO.P,R23,2*%
%TO.N,Net-(J4-Pad3)*%
%TA.AperFunction,SMDPad,CuDef*%
G36*
G01*
X24111000Y-20631999D02*
X24111000Y-21532001D01*
G75*
G02*
X23861001Y-21782000I-249999J0D01*
G01*
X23160999Y-21782000D01*
G75*
G02*
X22911000Y-21532001I0J249999D01*
G01*
X22911000Y-20631999D01*
G75*
G02*
X23160999Y-20382000I249999J0D01*
G01*
X23861001Y-20382000D01*
G75*
G02*
X24111000Y-20631999I0J-249999D01*
G01*
G37*
%TD.AperFunction*%
%TO.P,R23,1*%
%TO.N,2560_MOSI*%
%TA.AperFunction,SMDPad,CuDef*%
G36*
G01*
X26111000Y-20631999D02*
X26111000Y-21532001D01*
G75*
G02*
X25861001Y-21782000I-249999J0D01*
G01*
X25160999Y-21782000D01*
G75*
G02*
X24911000Y-21532001I0J249999D01*
G01*
X24911000Y-20631999D01*
G75*
G02*
X25160999Y-20382000I249999J0D01*
G01*
X25861001Y-20382000D01*
G75*
G02*
X26111000Y-20631999I0J-249999D01*
G01*
G37*
%TD.AperFunction*%
%TD*%
%TO.P,R22,2*%
%TO.N,Net-(J4-Pad2)*%
%TA.AperFunction,SMDPad,CuDef*%
G36*
G01*
X24095000Y-25648499D02*
X24095000Y-26548501D01*
G75*
G02*
X23845001Y-26798500I-249999J0D01*
G01*
X23144999Y-26798500D01*
G75*
G02*
X22895000Y-26548501I0J249999D01*
G01*
X22895000Y-25648499D01*
G75*
G02*
X23144999Y-25398500I249999J0D01*
G01*
X23845001Y-25398500D01*
G75*
G02*
X24095000Y-25648499I0J-249999D01*
G01*
G37*
%TD.AperFunction*%
%TO.P,R22,1*%
%TO.N,2560_CS*%
%TA.AperFunction,SMDPad,CuDef*%
G36*
G01*
X26095000Y-25648499D02*
X26095000Y-26548501D01*
G75*
G02*
X25845001Y-26798500I-249999J0D01*
G01*
X25144999Y-26798500D01*
G75*
G02*
X24895000Y-26548501I0J249999D01*
G01*
X24895000Y-25648499D01*
G75*
G02*
X25144999Y-25398500I249999J0D01*
G01*
X25845001Y-25398500D01*
G75*
G02*
X26095000Y-25648499I0J-249999D01*
G01*
G37*
%TD.AperFunction*%
%TD*%
%TO.P,R15,2*%
%TO.N,USB_VIN*%
%TA.AperFunction,SMDPad,CuDef*%
G36*
G01*
X83000001Y-34922000D02*
X82099999Y-34922000D01*
G75*
G02*
X81850000Y-34672001I0J249999D01*
G01*
X81850000Y-33971999D01*
G75*
G02*
X82099999Y-33722000I249999J0D01*
G01*
X83000001Y-33722000D01*
G75*
G02*
X83250000Y-33971999I0J-249999D01*
G01*
X83250000Y-34672001D01*
G75*
G02*
X83000001Y-34922000I-249999J0D01*
G01*
G37*
%TD.AperFunction*%
%TO.P,R15,1*%
%TO.N,2560_RESET*%
%TA.AperFunction,SMDPad,CuDef*%
G36*
G01*
X83000001Y-36922000D02*
X82099999Y-36922000D01*
G75*
G02*
X81850000Y-36672001I0J249999D01*
G01*
X81850000Y-35971999D01*
G75*
G02*
X82099999Y-35722000I249999J0D01*
G01*
X83000001Y-35722000D01*
G75*
G02*
X83250000Y-35971999I0J-249999D01*
G01*
X83250000Y-36672001D01*
G75*
G02*
X83000001Y-36922000I-249999J0D01*
G01*
G37*
%TD.AperFunction*%
%TD*%
%TO.P,R14,2*%
%TO.N,atmega2560_clockPinA*%
%TA.AperFunction,SMDPad,CuDef*%
G36*
G01*
X51057000Y-26866001D02*
X51057000Y-25965999D01*
G75*
G02*
X51306999Y-25716000I249999J0D01*
G01*
X52007001Y-25716000D01*
G75*
G02*
X52257000Y-25965999I0J-249999D01*
G01*
X52257000Y-26866001D01*
G75*
G02*
X52007001Y-27116000I-249999J0D01*
G01*
X51306999Y-27116000D01*
G75*
G02*
X51057000Y-26866001I0J249999D01*
G01*
G37*
%TD.AperFunction*%
%TO.P,R14,1*%
%TO.N,atmega2560_clockPinB*%
%TA.AperFunction,SMDPad,CuDef*%
G36*
G01*
X49057000Y-26866001D02*
X49057000Y-25965999D01*
G75*
G02*
X49306999Y-25716000I249999J0D01*
G01*
X50007001Y-25716000D01*
G75*
G02*
X50257000Y-25965999I0J-249999D01*
G01*
X50257000Y-26866001D01*
G75*
G02*
X50007001Y-27116000I-249999J0D01*
G01*
X49306999Y-27116000D01*
G75*
G02*
X49057000Y-26866001I0J249999D01*
G01*
G37*
%TD.AperFunction*%
%TD*%
%TO.P,R13,2*%
%TO.N,USB_VIN*%
%TA.AperFunction,SMDPad,CuDef*%
G36*
G01*
X74250500Y-47059001D02*
X74250500Y-46158999D01*
G75*
G02*
X74500499Y-45909000I249999J0D01*
G01*
X75200501Y-45909000D01*
G75*
G02*
X75450500Y-46158999I0J-249999D01*
G01*
X75450500Y-47059001D01*
G75*
G02*
X75200501Y-47309000I-249999J0D01*
G01*
X74500499Y-47309000D01*
G75*
G02*
X74250500Y-47059001I0J249999D01*
G01*
G37*
%TD.AperFunction*%
%TO.P,R13,1*%
%TO.N,Net-(D1-Pad2)*%
%TA.AperFunction,SMDPad,CuDef*%
G36*
G01*
X72250500Y-47059001D02*
X72250500Y-46158999D01*
G75*
G02*
X72500499Y-45909000I249999J0D01*
G01*
X73200501Y-45909000D01*
G75*
G02*
X73450500Y-46158999I0J-249999D01*
G01*
X73450500Y-47059001D01*
G75*
G02*
X73200501Y-47309000I-249999J0D01*
G01*
X72500499Y-47309000D01*
G75*
G02*
X72250500Y-47059001I0J249999D01*
G01*
G37*
%TD.AperFunction*%
%TD*%
%TO.P,R12,2*%
%TO.N,Net-(D2-Pad2)*%
%TA.AperFunction,SMDPad,CuDef*%
G36*
G01*
X37103000Y-41153501D02*
X37103000Y-40253499D01*
G75*
G02*
X37352999Y-40003500I249999J0D01*
G01*
X38053001Y-40003500D01*
G75*
G02*
X38303000Y-40253499I0J-249999D01*
G01*
X38303000Y-41153501D01*
G75*
G02*
X38053001Y-41403500I-249999J0D01*
G01*
X37352999Y-41403500D01*
G75*
G02*
X37103000Y-41153501I0J249999D01*
G01*
G37*
%TD.AperFunction*%
%TO.P,R12,1*%
%TO.N,USB_VIN*%
%TA.AperFunction,SMDPad,CuDef*%
G36*
G01*
X35103000Y-41153501D02*
X35103000Y-40253499D01*
G75*
G02*
X35352999Y-40003500I249999J0D01*
G01*
X36053001Y-40003500D01*
G75*
G02*
X36303000Y-40253499I0J-249999D01*
G01*
X36303000Y-41153501D01*
G75*
G02*
X36053001Y-41403500I-249999J0D01*
G01*
X35352999Y-41403500D01*
G75*
G02*
X35103000Y-41153501I0J249999D01*
G01*
G37*
%TD.AperFunction*%
%TD*%
%TO.P,R11,2*%
%TO.N,Net-(D3-Pad2)*%
%TA.AperFunction,SMDPad,CuDef*%
G36*
G01*
X37166500Y-45852501D02*
X37166500Y-44952499D01*
G75*
G02*
X37416499Y-44702500I249999J0D01*
G01*
X38116501Y-44702500D01*
G75*
G02*
X38366500Y-44952499I0J-249999D01*
G01*
X38366500Y-45852501D01*
G75*
G02*
X38116501Y-46102500I-249999J0D01*
G01*
X37416499Y-46102500D01*
G75*
G02*
X37166500Y-45852501I0J249999D01*
G01*
G37*
%TD.AperFunction*%
%TO.P,R11,1*%
%TO.N,USB_VIN*%
%TA.AperFunction,SMDPad,CuDef*%
G36*
G01*
X35166500Y-45852501D02*
X35166500Y-44952499D01*
G75*
G02*
X35416499Y-44702500I249999J0D01*
G01*
X36116501Y-44702500D01*
G75*
G02*
X36366500Y-44952499I0J-249999D01*
G01*
X36366500Y-45852501D01*
G75*
G02*
X36116501Y-46102500I-249999J0D01*
G01*
X35416499Y-46102500D01*
G75*
G02*
X35166500Y-45852501I0J249999D01*
G01*
G37*
%TD.AperFunction*%
%TD*%
%TO.P,R10,1*%
%TO.N,ProgrammerTx*%
%TA.AperFunction,SMDPad,CuDef*%
G36*
G01*
X88195999Y-33960000D02*
X89096001Y-33960000D01*
G75*
G02*
X89346000Y-34209999I0J-249999D01*
G01*
X89346000Y-34910001D01*
G75*
G02*
X89096001Y-35160000I-249999J0D01*
G01*
X88195999Y-35160000D01*
G75*
G02*
X87946000Y-34910001I0J249999D01*
G01*
X87946000Y-34209999D01*
G75*
G02*
X88195999Y-33960000I249999J0D01*
G01*
G37*
%TD.AperFunction*%
%TO.P,R10,2*%
%TO.N,Net-(R10-Pad2)*%
%TA.AperFunction,SMDPad,CuDef*%
G36*
G01*
X88195999Y-35960000D02*
X89096001Y-35960000D01*
G75*
G02*
X89346000Y-36209999I0J-249999D01*
G01*
X89346000Y-36910001D01*
G75*
G02*
X89096001Y-37160000I-249999J0D01*
G01*
X88195999Y-37160000D01*
G75*
G02*
X87946000Y-36910001I0J249999D01*
G01*
X87946000Y-36209999D01*
G75*
G02*
X88195999Y-35960000I249999J0D01*
G01*
G37*
%TD.AperFunction*%
%TD*%
%TO.P,R9,1*%
%TO.N,ProgrammerRx*%
%TA.AperFunction,SMDPad,CuDef*%
G36*
G01*
X85274999Y-34007500D02*
X86175001Y-34007500D01*
G75*
G02*
X86425000Y-34257499I0J-249999D01*
G01*
X86425000Y-34957501D01*
G75*
G02*
X86175001Y-35207500I-249999J0D01*
G01*
X85274999Y-35207500D01*
G75*
G02*
X85025000Y-34957501I0J249999D01*
G01*
X85025000Y-34257499D01*
G75*
G02*
X85274999Y-34007500I249999J0D01*
G01*
G37*
%TD.AperFunction*%
%TO.P,R9,2*%
%TO.N,Net-(R9-Pad2)*%
%TA.AperFunction,SMDPad,CuDef*%
G36*
G01*
X85274999Y-36007500D02*
X86175001Y-36007500D01*
G75*
G02*
X86425000Y-36257499I0J-249999D01*
G01*
X86425000Y-36957501D01*
G75*
G02*
X86175001Y-37207500I-249999J0D01*
G01*
X85274999Y-37207500D01*
G75*
G02*
X85025000Y-36957501I0J249999D01*
G01*
X85025000Y-36257499D01*
G75*
G02*
X85274999Y-36007500I249999J0D01*
G01*
G37*
%TD.AperFunction*%
%TD*%
%TO.P,R8,2*%
%TO.N,Net-(C5-Pad2)*%
%TA.AperFunction,SMDPad,CuDef*%
G36*
G01*
X48676000Y-34676501D02*
X48676000Y-33776499D01*
G75*
G02*
X48925999Y-33526500I249999J0D01*
G01*
X49626001Y-33526500D01*
G75*
G02*
X49876000Y-33776499I0J-249999D01*
G01*
X49876000Y-34676501D01*
G75*
G02*
X49626001Y-34926500I-249999J0D01*
G01*
X48925999Y-34926500D01*
G75*
G02*
X48676000Y-34676501I0J249999D01*
G01*
G37*
%TD.AperFunction*%
%TO.P,R8,1*%
%TO.N,GND*%
%TA.AperFunction,SMDPad,CuDef*%
G36*
G01*
X46676000Y-34676501D02*
X46676000Y-33776499D01*
G75*
G02*
X46925999Y-33526500I249999J0D01*
G01*
X47626001Y-33526500D01*
G75*
G02*
X47876000Y-33776499I0J-249999D01*
G01*
X47876000Y-34676501D01*
G75*
G02*
X47626001Y-34926500I-249999J0D01*
G01*
X46925999Y-34926500D01*
G75*
G02*
X46676000Y-34676501I0J249999D01*
G01*
G37*
%TD.AperFunction*%
%TD*%
%TO.P,R7,2*%
%TO.N,Net-(J3-PadA7)*%
%TA.AperFunction,SMDPad,CuDef*%
G36*
G01*
X15678999Y-37246000D02*
X16579001Y-37246000D01*
G75*
G02*
X16829000Y-37495999I0J-249999D01*
G01*
X16829000Y-38196001D01*
G75*
G02*
X16579001Y-38446000I-249999J0D01*
G01*
X15678999Y-38446000D01*
G75*
G02*
X15429000Y-38196001I0J249999D01*
G01*
X15429000Y-37495999D01*
G75*
G02*
X15678999Y-37246000I249999J0D01*
G01*
G37*
%TD.AperFunction*%
%TO.P,R7,1*%
%TO.N,USB_VIN*%
%TA.AperFunction,SMDPad,CuDef*%
G36*
G01*
X15678999Y-35246000D02*
X16579001Y-35246000D01*
G75*
G02*
X16829000Y-35495999I0J-249999D01*
G01*
X16829000Y-36196001D01*
G75*
G02*
X16579001Y-36446000I-249999J0D01*
G01*
X15678999Y-36446000D01*
G75*
G02*
X15429000Y-36196001I0J249999D01*
G01*
X15429000Y-35495999D01*
G75*
G02*
X15678999Y-35246000I249999J0D01*
G01*
G37*
%TD.AperFunction*%
%TD*%
%TO.P,R6,2*%
%TO.N,Net-(J3-PadA6)*%
%TA.AperFunction,SMDPad,CuDef*%
G36*
G01*
X24695999Y-37722000D02*
X25596001Y-37722000D01*
G75*
G02*
X25846000Y-37971999I0J-249999D01*
G01*
X25846000Y-38672001D01*
G75*
G02*
X25596001Y-38922000I-249999J0D01*
G01*
X24695999Y-38922000D01*
G75*
G02*
X24446000Y-38672001I0J249999D01*
G01*
X24446000Y-37971999D01*
G75*
G02*
X24695999Y-37722000I249999J0D01*
G01*
G37*
%TD.AperFunction*%
%TO.P,R6,1*%
%TO.N,USB_D+*%
%TA.AperFunction,SMDPad,CuDef*%
G36*
G01*
X24695999Y-35722000D02*
X25596001Y-35722000D01*
G75*
G02*
X25846000Y-35971999I0J-249999D01*
G01*
X25846000Y-36672001D01*
G75*
G02*
X25596001Y-36922000I-249999J0D01*
G01*
X24695999Y-36922000D01*
G75*
G02*
X24446000Y-36672001I0J249999D01*
G01*
X24446000Y-35971999D01*
G75*
G02*
X24695999Y-35722000I249999J0D01*
G01*
G37*
%TD.AperFunction*%
%TD*%
%TO.P,R5,2*%
%TO.N,Net-(J3-PadA7)*%
%TA.AperFunction,SMDPad,CuDef*%
G36*
G01*
X27235999Y-37722000D02*
X28136001Y-37722000D01*
G75*
G02*
X28386000Y-37971999I0J-249999D01*
G01*
X28386000Y-38672001D01*
G75*
G02*
X28136001Y-38922000I-249999J0D01*
G01*
X27235999Y-38922000D01*
G75*
G02*
X26986000Y-38672001I0J249999D01*
G01*
X26986000Y-37971999D01*
G75*
G02*
X27235999Y-37722000I249999J0D01*
G01*
G37*
%TD.AperFunction*%
%TO.P,R5,1*%
%TO.N,USB_D-*%
%TA.AperFunction,SMDPad,CuDef*%
G36*
G01*
X27235999Y-35722000D02*
X28136001Y-35722000D01*
G75*
G02*
X28386000Y-35971999I0J-249999D01*
G01*
X28386000Y-36672001D01*
G75*
G02*
X28136001Y-36922000I-249999J0D01*
G01*
X27235999Y-36922000D01*
G75*
G02*
X26986000Y-36672001I0J249999D01*
G01*
X26986000Y-35971999D01*
G75*
G02*
X27235999Y-35722000I249999J0D01*
G01*
G37*
%TD.AperFunction*%
%TD*%
%TO.P,R4,2*%
%TO.N,Net-(J3-PadB5)*%
%TA.AperFunction,SMDPad,CuDef*%
G36*
G01*
X29775999Y-37595000D02*
X30676001Y-37595000D01*
G75*
G02*
X30926000Y-37844999I0J-249999D01*
G01*
X30926000Y-38545001D01*
G75*
G02*
X30676001Y-38795000I-249999J0D01*
G01*
X29775999Y-38795000D01*
G75*
G02*
X29526000Y-38545001I0J249999D01*
G01*
X29526000Y-37844999D01*
G75*
G02*
X29775999Y-37595000I249999J0D01*
G01*
G37*
%TD.AperFunction*%
%TO.P,R4,1*%
%TO.N,GND*%
%TA.AperFunction,SMDPad,CuDef*%
G36*
G01*
X29775999Y-35595000D02*
X30676001Y-35595000D01*
G75*
G02*
X30926000Y-35844999I0J-249999D01*
G01*
X30926000Y-36545001D01*
G75*
G02*
X30676001Y-36795000I-249999J0D01*
G01*
X29775999Y-36795000D01*
G75*
G02*
X29526000Y-36545001I0J249999D01*
G01*
X29526000Y-35844999D01*
G75*
G02*
X29775999Y-35595000I249999J0D01*
G01*
G37*
%TD.AperFunction*%
%TD*%
%TO.P,R3,2*%
%TO.N,Net-(J3-PadA5)*%
%TA.AperFunction,SMDPad,CuDef*%
G36*
G01*
X22155999Y-37722000D02*
X23056001Y-37722000D01*
G75*
G02*
X23306000Y-37971999I0J-249999D01*
G01*
X23306000Y-38672001D01*
G75*
G02*
X23056001Y-38922000I-249999J0D01*
G01*
X22155999Y-38922000D01*
G75*
G02*
X21906000Y-38672001I0J249999D01*
G01*
X21906000Y-37971999D01*
G75*
G02*
X22155999Y-37722000I249999J0D01*
G01*
G37*
%TD.AperFunction*%
%TO.P,R3,1*%
%TO.N,GND*%
%TA.AperFunction,SMDPad,CuDef*%
G36*
G01*
X22155999Y-35722000D02*
X23056001Y-35722000D01*
G75*
G02*
X23306000Y-35971999I0J-249999D01*
G01*
X23306000Y-36672001D01*
G75*
G02*
X23056001Y-36922000I-249999J0D01*
G01*
X22155999Y-36922000D01*
G75*
G02*
X21906000Y-36672001I0J249999D01*
G01*
X21906000Y-35971999D01*
G75*
G02*
X22155999Y-35722000I249999J0D01*
G01*
G37*
%TD.AperFunction*%
%TD*%
%TO.P,R2,2*%
%TO.N,8U2_XTAL2*%
%TA.AperFunction,SMDPad,CuDef*%
G36*
G01*
X38119000Y-26612001D02*
X38119000Y-25711999D01*
G75*
G02*
X38368999Y-25462000I249999J0D01*
G01*
X39069001Y-25462000D01*
G75*
G02*
X39319000Y-25711999I0J-249999D01*
G01*
X39319000Y-26612001D01*
G75*
G02*
X39069001Y-26862000I-249999J0D01*
G01*
X38368999Y-26862000D01*
G75*
G02*
X38119000Y-26612001I0J249999D01*
G01*
G37*
%TD.AperFunction*%
%TO.P,R2,1*%
%TO.N,8U2_XTAL1*%
%TA.AperFunction,SMDPad,CuDef*%
G36*
G01*
X36119000Y-26612001D02*
X36119000Y-25711999D01*
G75*
G02*
X36368999Y-25462000I249999J0D01*
G01*
X37069001Y-25462000D01*
G75*
G02*
X37319000Y-25711999I0J-249999D01*
G01*
X37319000Y-26612001D01*
G75*
G02*
X37069001Y-26862000I-249999J0D01*
G01*
X36368999Y-26862000D01*
G75*
G02*
X36119000Y-26612001I0J249999D01*
G01*
G37*
%TD.AperFunction*%
%TD*%
%TO.P,R1,2*%
%TO.N,8U2_RESET*%
%TA.AperFunction,SMDPad,CuDef*%
G36*
G01*
X37230000Y-49980001D02*
X37230000Y-49079999D01*
G75*
G02*
X37479999Y-48830000I249999J0D01*
G01*
X38180001Y-48830000D01*
G75*
G02*
X38430000Y-49079999I0J-249999D01*
G01*
X38430000Y-49980001D01*
G75*
G02*
X38180001Y-50230000I-249999J0D01*
G01*
X37479999Y-50230000D01*
G75*
G02*
X37230000Y-49980001I0J249999D01*
G01*
G37*
%TD.AperFunction*%
%TO.P,R1,1*%
%TO.N,USB_VIN*%
%TA.AperFunction,SMDPad,CuDef*%
G36*
G01*
X35230000Y-49980001D02*
X35230000Y-49079999D01*
G75*
G02*
X35479999Y-48830000I249999J0D01*
G01*
X36180001Y-48830000D01*
G75*
G02*
X36430000Y-49079999I0J-249999D01*
G01*
X36430000Y-49980001D01*
G75*
G02*
X36180001Y-50230000I-249999J0D01*
G01*
X35479999Y-50230000D01*
G75*
G02*
X35230000Y-49980001I0J249999D01*
G01*
G37*
%TD.AperFunction*%
%TD*%
D12*
%TO.P,PWM_I/O10,1*%
%TO.N,PWM9*%
X17145000Y1905000D03*
D11*
%TO.P,PWM_I/O10,2*%
%TO.N,USB_VIN*%
X17145000Y4445000D03*
%TO.P,PWM_I/O10,3*%
%TO.N,GND*%
X17145000Y6985000D03*
%TD*%
D12*
%TO.P,PWM_I/O9,1*%
%TO.N,PWM8*%
X20955000Y1905000D03*
D11*
%TO.P,PWM_I/O9,2*%
%TO.N,USB_VIN*%
X20955000Y4445000D03*
%TO.P,PWM_I/O9,3*%
%TO.N,GND*%
X20955000Y6985000D03*
%TD*%
D12*
%TO.P,PWM_I/O8,1*%
%TO.N,PWM7*%
X24765000Y1905000D03*
D11*
%TO.P,PWM_I/O8,2*%
%TO.N,USB_VIN*%
X24765000Y4445000D03*
%TO.P,PWM_I/O8,3*%
%TO.N,GND*%
X24765000Y6985000D03*
%TD*%
D12*
%TO.P,PWM_I/O7,1*%
%TO.N,PWM6*%
X28575000Y1905000D03*
D11*
%TO.P,PWM_I/O7,2*%
%TO.N,USB_VIN*%
X28575000Y4445000D03*
%TO.P,PWM_I/O7,3*%
%TO.N,GND*%
X28575000Y6985000D03*
%TD*%
D12*
%TO.P,PWM_I/O6,1*%
%TO.N,PWM5*%
X32385000Y1905000D03*
D11*
%TO.P,PWM_I/O6,2*%
%TO.N,USB_VIN*%
X32385000Y4445000D03*
%TO.P,PWM_I/O6,3*%
%TO.N,GND*%
X32385000Y6985000D03*
%TD*%
D12*
%TO.P,PWM_I/O5,1*%
%TO.N,PWM4*%
X36195000Y1905000D03*
D11*
%TO.P,PWM_I/O5,2*%
%TO.N,USB_VIN*%
X36195000Y4445000D03*
%TO.P,PWM_I/O5,3*%
%TO.N,GND*%
X36195000Y6985000D03*
%TD*%
D12*
%TO.P,PWM_I/O4,1*%
%TO.N,PWM3*%
X47625000Y1905000D03*
D11*
%TO.P,PWM_I/O4,2*%
%TO.N,USB_VIN*%
X47625000Y4445000D03*
%TO.P,PWM_I/O4,3*%
%TO.N,GND*%
X47625000Y6985000D03*
%TD*%
D12*
%TO.P,PWM_I/O3,1*%
%TO.N,PWM2*%
X51435000Y1905000D03*
D11*
%TO.P,PWM_I/O3,2*%
%TO.N,USB_VIN*%
X51435000Y4445000D03*
%TO.P,PWM_I/O3,3*%
%TO.N,GND*%
X51435000Y6985000D03*
%TD*%
D12*
%TO.P,PWM_I/O2,1*%
%TO.N,PWM1*%
X40005000Y1905000D03*
D11*
%TO.P,PWM_I/O2,2*%
%TO.N,USB_VIN*%
X40005000Y4445000D03*
%TO.P,PWM_I/O2,3*%
%TO.N,GND*%
X40005000Y6985000D03*
%TD*%
D12*
%TO.P,PWM_I/O1,1*%
%TO.N,PWM0*%
X43815000Y1905000D03*
D11*
%TO.P,PWM_I/O1,2*%
%TO.N,USB_VIN*%
X43815000Y4445000D03*
%TO.P,PWM_I/O1,3*%
%TO.N,GND*%
X43815000Y6985000D03*
%TD*%
%TA.AperFunction,SMDPad,CuDef*%
D13*
%TO.P,JP4,1*%
%TO.N,+3V3*%
G36*
X76950000Y7124000D02*
G01*
X76950000Y6574000D01*
X76949398Y6574000D01*
X76949398Y6549466D01*
X76944588Y6500635D01*
X76935016Y6452510D01*
X76920772Y6405555D01*
X76901995Y6360222D01*
X76878864Y6316949D01*
X76851604Y6276150D01*
X76820476Y6238221D01*
X76785779Y6203524D01*
X76747850Y6172396D01*
X76707051Y6145136D01*
X76663778Y6122005D01*
X76618445Y6103228D01*
X76571490Y6088984D01*
X76523365Y6079412D01*
X76474534Y6074602D01*
X76450000Y6074602D01*
X76450000Y6074000D01*
X75950000Y6074000D01*
X75950000Y6074602D01*
X75925466Y6074602D01*
X75876635Y6079412D01*
X75828510Y6088984D01*
X75781555Y6103228D01*
X75736222Y6122005D01*
X75692949Y6145136D01*
X75652150Y6172396D01*
X75614221Y6203524D01*
X75579524Y6238221D01*
X75548396Y6276150D01*
X75521136Y6316949D01*
X75498005Y6360222D01*
X75479228Y6405555D01*
X75464984Y6452510D01*
X75455412Y6500635D01*
X75450602Y6549466D01*
X75450602Y6574000D01*
X75450000Y6574000D01*
X75450000Y7124000D01*
X76950000Y7124000D01*
G37*
%TD.AperFunction*%
D14*
%TO.P,JP4,2*%
%TO.N,Net-(JP4-Pad2)*%
X76200000Y7874000D03*
%TA.AperFunction,SMDPad,CuDef*%
D13*
%TO.P,JP4,3*%
%TO.N,USB_VIN*%
G36*
X75450602Y9174000D02*
G01*
X75450602Y9198534D01*
X75455412Y9247365D01*
X75464984Y9295490D01*
X75479228Y9342445D01*
X75498005Y9387778D01*
X75521136Y9431051D01*
X75548396Y9471850D01*
X75579524Y9509779D01*
X75614221Y9544476D01*
X75652150Y9575604D01*
X75692949Y9602864D01*
X75736222Y9625995D01*
X75781555Y9644772D01*
X75828510Y9659016D01*
X75876635Y9668588D01*
X75925466Y9673398D01*
X75950000Y9673398D01*
X75950000Y9674000D01*
X76450000Y9674000D01*
X76450000Y9673398D01*
X76474534Y9673398D01*
X76523365Y9668588D01*
X76571490Y9659016D01*
X76618445Y9644772D01*
X76663778Y9625995D01*
X76707051Y9602864D01*
X76747850Y9575604D01*
X76785779Y9544476D01*
X76820476Y9509779D01*
X76851604Y9471850D01*
X76878864Y9431051D01*
X76901995Y9387778D01*
X76920772Y9342445D01*
X76935016Y9295490D01*
X76944588Y9247365D01*
X76949398Y9198534D01*
X76949398Y9174000D01*
X76950000Y9174000D01*
X76950000Y8624000D01*
X75450000Y8624000D01*
X75450000Y9174000D01*
X75450602Y9174000D01*
G37*
%TD.AperFunction*%
%TD*%
%TA.AperFunction,SMDPad,CuDef*%
%TO.P,JP3,1*%
%TO.N,+3V3*%
G36*
X97524000Y7124000D02*
G01*
X97524000Y6574000D01*
X97523398Y6574000D01*
X97523398Y6549466D01*
X97518588Y6500635D01*
X97509016Y6452510D01*
X97494772Y6405555D01*
X97475995Y6360222D01*
X97452864Y6316949D01*
X97425604Y6276150D01*
X97394476Y6238221D01*
X97359779Y6203524D01*
X97321850Y6172396D01*
X97281051Y6145136D01*
X97237778Y6122005D01*
X97192445Y6103228D01*
X97145490Y6088984D01*
X97097365Y6079412D01*
X97048534Y6074602D01*
X97024000Y6074602D01*
X97024000Y6074000D01*
X96524000Y6074000D01*
X96524000Y6074602D01*
X96499466Y6074602D01*
X96450635Y6079412D01*
X96402510Y6088984D01*
X96355555Y6103228D01*
X96310222Y6122005D01*
X96266949Y6145136D01*
X96226150Y6172396D01*
X96188221Y6203524D01*
X96153524Y6238221D01*
X96122396Y6276150D01*
X96095136Y6316949D01*
X96072005Y6360222D01*
X96053228Y6405555D01*
X96038984Y6452510D01*
X96029412Y6500635D01*
X96024602Y6549466D01*
X96024602Y6574000D01*
X96024000Y6574000D01*
X96024000Y7124000D01*
X97524000Y7124000D01*
G37*
%TD.AperFunction*%
D14*
%TO.P,JP3,2*%
%TO.N,Net-(Anemometer1-Pad4)*%
X96774000Y7874000D03*
%TA.AperFunction,SMDPad,CuDef*%
D13*
%TO.P,JP3,3*%
%TO.N,USB_VIN*%
G36*
X96024602Y9174000D02*
G01*
X96024602Y9198534D01*
X96029412Y9247365D01*
X96038984Y9295490D01*
X96053228Y9342445D01*
X96072005Y9387778D01*
X96095136Y9431051D01*
X96122396Y9471850D01*
X96153524Y9509779D01*
X96188221Y9544476D01*
X96226150Y9575604D01*
X96266949Y9602864D01*
X96310222Y9625995D01*
X96355555Y9644772D01*
X96402510Y9659016D01*
X96450635Y9668588D01*
X96499466Y9673398D01*
X96524000Y9673398D01*
X96524000Y9674000D01*
X97024000Y9674000D01*
X97024000Y9673398D01*
X97048534Y9673398D01*
X97097365Y9668588D01*
X97145490Y9659016D01*
X97192445Y9644772D01*
X97237778Y9625995D01*
X97281051Y9602864D01*
X97321850Y9575604D01*
X97359779Y9544476D01*
X97394476Y9509779D01*
X97425604Y9471850D01*
X97452864Y9431051D01*
X97475995Y9387778D01*
X97494772Y9342445D01*
X97509016Y9295490D01*
X97518588Y9247365D01*
X97523398Y9198534D01*
X97523398Y9174000D01*
X97524000Y9174000D01*
X97524000Y8624000D01*
X96024000Y8624000D01*
X96024000Y9174000D01*
X96024602Y9174000D01*
G37*
%TD.AperFunction*%
%TD*%
%TA.AperFunction,SMDPad,CuDef*%
%TO.P,JP2,1*%
%TO.N,+3V3*%
G36*
X90412000Y7124000D02*
G01*
X90412000Y6574000D01*
X90411398Y6574000D01*
X90411398Y6549466D01*
X90406588Y6500635D01*
X90397016Y6452510D01*
X90382772Y6405555D01*
X90363995Y6360222D01*
X90340864Y6316949D01*
X90313604Y6276150D01*
X90282476Y6238221D01*
X90247779Y6203524D01*
X90209850Y6172396D01*
X90169051Y6145136D01*
X90125778Y6122005D01*
X90080445Y6103228D01*
X90033490Y6088984D01*
X89985365Y6079412D01*
X89936534Y6074602D01*
X89912000Y6074602D01*
X89912000Y6074000D01*
X89412000Y6074000D01*
X89412000Y6074602D01*
X89387466Y6074602D01*
X89338635Y6079412D01*
X89290510Y6088984D01*
X89243555Y6103228D01*
X89198222Y6122005D01*
X89154949Y6145136D01*
X89114150Y6172396D01*
X89076221Y6203524D01*
X89041524Y6238221D01*
X89010396Y6276150D01*
X88983136Y6316949D01*
X88960005Y6360222D01*
X88941228Y6405555D01*
X88926984Y6452510D01*
X88917412Y6500635D01*
X88912602Y6549466D01*
X88912602Y6574000D01*
X88912000Y6574000D01*
X88912000Y7124000D01*
X90412000Y7124000D01*
G37*
%TD.AperFunction*%
D14*
%TO.P,JP2,2*%
%TO.N,Net-(JP2-Pad2)*%
X89662000Y7874000D03*
%TA.AperFunction,SMDPad,CuDef*%
D13*
%TO.P,JP2,3*%
%TO.N,USB_VIN*%
G36*
X88912602Y9174000D02*
G01*
X88912602Y9198534D01*
X88917412Y9247365D01*
X88926984Y9295490D01*
X88941228Y9342445D01*
X88960005Y9387778D01*
X88983136Y9431051D01*
X89010396Y9471850D01*
X89041524Y9509779D01*
X89076221Y9544476D01*
X89114150Y9575604D01*
X89154949Y9602864D01*
X89198222Y9625995D01*
X89243555Y9644772D01*
X89290510Y9659016D01*
X89338635Y9668588D01*
X89387466Y9673398D01*
X89412000Y9673398D01*
X89412000Y9674000D01*
X89912000Y9674000D01*
X89912000Y9673398D01*
X89936534Y9673398D01*
X89985365Y9668588D01*
X90033490Y9659016D01*
X90080445Y9644772D01*
X90125778Y9625995D01*
X90169051Y9602864D01*
X90209850Y9575604D01*
X90247779Y9544476D01*
X90282476Y9509779D01*
X90313604Y9471850D01*
X90340864Y9431051D01*
X90363995Y9387778D01*
X90382772Y9342445D01*
X90397016Y9295490D01*
X90406588Y9247365D01*
X90411398Y9198534D01*
X90411398Y9174000D01*
X90412000Y9174000D01*
X90412000Y8624000D01*
X88912000Y8624000D01*
X88912000Y9174000D01*
X88912602Y9174000D01*
G37*
%TD.AperFunction*%
%TD*%
%TA.AperFunction,SMDPad,CuDef*%
%TO.P,JP1,1*%
%TO.N,2560_RESET*%
G36*
X57188000Y-33540000D02*
G01*
X57688000Y-33540000D01*
X57688000Y-33540602D01*
X57712534Y-33540602D01*
X57761365Y-33545412D01*
X57809490Y-33554984D01*
X57856445Y-33569228D01*
X57901778Y-33588005D01*
X57945051Y-33611136D01*
X57985850Y-33638396D01*
X58023779Y-33669524D01*
X58058476Y-33704221D01*
X58089604Y-33742150D01*
X58116864Y-33782949D01*
X58139995Y-33826222D01*
X58158772Y-33871555D01*
X58173016Y-33918510D01*
X58182588Y-33966635D01*
X58187398Y-34015466D01*
X58187398Y-34040000D01*
X58188000Y-34040000D01*
X58188000Y-34540000D01*
X58187398Y-34540000D01*
X58187398Y-34564534D01*
X58182588Y-34613365D01*
X58173016Y-34661490D01*
X58158772Y-34708445D01*
X58139995Y-34753778D01*
X58116864Y-34797051D01*
X58089604Y-34837850D01*
X58058476Y-34875779D01*
X58023779Y-34910476D01*
X57985850Y-34941604D01*
X57945051Y-34968864D01*
X57901778Y-34991995D01*
X57856445Y-35010772D01*
X57809490Y-35025016D01*
X57761365Y-35034588D01*
X57712534Y-35039398D01*
X57688000Y-35039398D01*
X57688000Y-35040000D01*
X57188000Y-35040000D01*
X57188000Y-33540000D01*
G37*
%TD.AperFunction*%
%TA.AperFunction,SMDPad,CuDef*%
%TO.P,JP1,2*%
%TO.N,Net-(C5-Pad1)*%
G36*
X56388000Y-35039398D02*
G01*
X56363466Y-35039398D01*
X56314635Y-35034588D01*
X56266510Y-35025016D01*
X56219555Y-35010772D01*
X56174222Y-34991995D01*
X56130949Y-34968864D01*
X56090150Y-34941604D01*
X56052221Y-34910476D01*
X56017524Y-34875779D01*
X55986396Y-34837850D01*
X55959136Y-34797051D01*
X55936005Y-34753778D01*
X55917228Y-34708445D01*
X55902984Y-34661490D01*
X55893412Y-34613365D01*
X55888602Y-34564534D01*
X55888602Y-34540000D01*
X55888000Y-34540000D01*
X55888000Y-34040000D01*
X55888602Y-34040000D01*
X55888602Y-34015466D01*
X55893412Y-33966635D01*
X55902984Y-33918510D01*
X55917228Y-33871555D01*
X55936005Y-33826222D01*
X55959136Y-33782949D01*
X55986396Y-33742150D01*
X56017524Y-33704221D01*
X56052221Y-33669524D01*
X56090150Y-33638396D01*
X56130949Y-33611136D01*
X56174222Y-33588005D01*
X56219555Y-33569228D01*
X56266510Y-33554984D01*
X56314635Y-33545412D01*
X56363466Y-33540602D01*
X56388000Y-33540602D01*
X56388000Y-33540000D01*
X56888000Y-33540000D01*
X56888000Y-35040000D01*
X56388000Y-35040000D01*
X56388000Y-35039398D01*
G37*
%TD.AperFunction*%
%TD*%
D25*
%TO.P,J4,11*%
%TO.N,Net-(J4-Pad11)*%
X4055000Y-25852000D03*
D26*
X4505000Y-12352000D03*
D27*
%TO.P,J4,10*%
%TO.N,N/C*%
X8655000Y-12352000D03*
D28*
%TO.P,J4,11*%
%TO.N,Net-(J4-Pad11)*%
X14855000Y-12352000D03*
X19155000Y-23502000D03*
D29*
%TO.P,J4,7*%
%TO.N,2560_MISO*%
X19155000Y-15352000D03*
%TO.P,J4,6*%
%TO.N,GND*%
X19155000Y-16452000D03*
%TO.P,J4,5*%
%TO.N,Net-(J4-Pad5)*%
X19155000Y-17552000D03*
%TO.P,J4,4*%
%TO.N,+3V3*%
X19155000Y-18652000D03*
%TO.P,J4,3*%
%TO.N,Net-(J4-Pad3)*%
X19155000Y-19752000D03*
%TO.P,J4,2*%
%TO.N,Net-(J4-Pad2)*%
X19155000Y-20852000D03*
%TO.P,J4,1*%
%TO.N,N/C*%
X19155000Y-21952000D03*
%TO.P,J4,8*%
X19155000Y-14252000D03*
%TO.P,J4,9*%
X19155000Y-13302000D03*
%TD*%
D30*
%TO.P,J3,B11*%
%TO.N,N/C*%
X20206000Y-44488000D03*
%TO.P,J3,B10*%
X21006000Y-44488000D03*
%TO.P,J3,B8*%
X21806000Y-44488000D03*
%TO.P,J3,B5*%
%TO.N,Net-(J3-PadB5)*%
X23406000Y-44488000D03*
%TO.P,J3,B3*%
%TO.N,N/C*%
X24206000Y-44488000D03*
%TO.P,J3,B2*%
X25006000Y-44488000D03*
%TO.P,J3,B12*%
%TO.N,usb_ground*%
X19806000Y-43788000D03*
%TO.P,J3,B9*%
%TO.N,Net-(500ma1-Pad2)*%
X21406000Y-43788000D03*
%TO.P,J3,B7*%
%TO.N,Net-(J3-PadA7)*%
X22206000Y-43788000D03*
%TO.P,J3,B6*%
%TO.N,Net-(J3-PadA6)*%
X23006000Y-43788000D03*
%TO.P,J3,B4*%
%TO.N,Net-(500ma1-Pad2)*%
X23806000Y-43788000D03*
%TO.P,J3,B1*%
%TO.N,usb_ground*%
X25406000Y-43788000D03*
D31*
%TO.P,J3,S1*%
%TO.N,Net-(J3-PadS1)*%
X18116000Y-50338000D03*
X27096000Y-50338000D03*
X26736000Y-44388000D03*
D32*
%TO.P,J3,A11*%
%TO.N,N/C*%
X24856000Y-42478000D03*
%TO.P,J3,A8*%
X23356000Y-42478000D03*
%TO.P,J3,A9*%
%TO.N,Net-(500ma1-Pad2)*%
X23856000Y-42478000D03*
%TO.P,J3,A10*%
%TO.N,N/C*%
X24356000Y-42478000D03*
%TO.P,J3,A12*%
%TO.N,usb_ground*%
X25356000Y-42478000D03*
%TO.P,J3,A7*%
%TO.N,Net-(J3-PadA7)*%
X22856000Y-42478000D03*
%TO.P,J3,A6*%
%TO.N,Net-(J3-PadA6)*%
X22356000Y-42478000D03*
%TO.P,J3,A5*%
%TO.N,Net-(J3-PadA5)*%
X21856000Y-42478000D03*
%TO.P,J3,A4*%
%TO.N,Net-(500ma1-Pad2)*%
X21356000Y-42478000D03*
%TO.P,J3,A3*%
%TO.N,N/C*%
X20856000Y-42478000D03*
%TO.P,J3,A2*%
X20356000Y-42478000D03*
%TO.P,J3,A1*%
%TO.N,usb_ground*%
X19856000Y-42478000D03*
D31*
%TO.P,J3,S1*%
%TO.N,Net-(J3-PadS1)*%
X18476000Y-44388000D03*
%TD*%
D11*
%TO.P,J2,6*%
%TO.N,GND*%
X105410000Y-38862000D03*
%TO.P,J2,5*%
%TO.N,2560_RESET*%
X102870000Y-38862000D03*
%TO.P,J2,4*%
%TO.N,2560_MOSI*%
X105410000Y-36322000D03*
%TO.P,J2,3*%
%TO.N,2560_SCK*%
X102870000Y-36322000D03*
%TO.P,J2,2*%
%TO.N,USB_VIN*%
X105410000Y-33782000D03*
D12*
%TO.P,J2,1*%
%TO.N,2560_MISO*%
X102870000Y-33782000D03*
%TD*%
D11*
%TO.P,J1,6*%
%TO.N,GND*%
X105410000Y-48260000D03*
%TO.P,J1,5*%
%TO.N,8U2_RESET*%
X102870000Y-48260000D03*
%TO.P,J1,4*%
%TO.N,8U2_MOSI*%
X105410000Y-45720000D03*
%TO.P,J1,3*%
%TO.N,8U2_SCK*%
X102870000Y-45720000D03*
%TO.P,J1,2*%
%TO.N,USB_VIN*%
X105410000Y-43180000D03*
D12*
%TO.P,J1,1*%
%TO.N,8U2_MISO*%
X102870000Y-43180000D03*
%TD*%
%TO.P,D3,2*%
%TO.N,Net-(D3-Pad2)*%
%TA.AperFunction,SMDPad,CuDef*%
G36*
G01*
X41646500Y-45190000D02*
X41646500Y-45615000D01*
G75*
G02*
X41434000Y-45827500I-212500J0D01*
G01*
X40634000Y-45827500D01*
G75*
G02*
X40421500Y-45615000I0J212500D01*
G01*
X40421500Y-45190000D01*
G75*
G02*
X40634000Y-44977500I212500J0D01*
G01*
X41434000Y-44977500D01*
G75*
G02*
X41646500Y-45190000I0J-212500D01*
G01*
G37*
%TD.AperFunction*%
%TO.P,D3,1*%
%TO.N,Net-(D3-Pad1)*%
%TA.AperFunction,SMDPad,CuDef*%
G36*
G01*
X43271500Y-45190000D02*
X43271500Y-45615000D01*
G75*
G02*
X43059000Y-45827500I-212500J0D01*
G01*
X42259000Y-45827500D01*
G75*
G02*
X42046500Y-45615000I0J212500D01*
G01*
X42046500Y-45190000D01*
G75*
G02*
X42259000Y-44977500I212500J0D01*
G01*
X43059000Y-44977500D01*
G75*
G02*
X43271500Y-45190000I0J-212500D01*
G01*
G37*
%TD.AperFunction*%
%TD*%
%TO.P,D2,2*%
%TO.N,Net-(D2-Pad2)*%
%TA.AperFunction,SMDPad,CuDef*%
G36*
G01*
X41583000Y-40491000D02*
X41583000Y-40916000D01*
G75*
G02*
X41370500Y-41128500I-212500J0D01*
G01*
X40570500Y-41128500D01*
G75*
G02*
X40358000Y-40916000I0J212500D01*
G01*
X40358000Y-40491000D01*
G75*
G02*
X40570500Y-40278500I212500J0D01*
G01*
X41370500Y-40278500D01*
G75*
G02*
X41583000Y-40491000I0J-212500D01*
G01*
G37*
%TD.AperFunction*%
%TO.P,D2,1*%
%TO.N,Net-(D2-Pad1)*%
%TA.AperFunction,SMDPad,CuDef*%
G36*
G01*
X43208000Y-40491000D02*
X43208000Y-40916000D01*
G75*
G02*
X42995500Y-41128500I-212500J0D01*
G01*
X42195500Y-41128500D01*
G75*
G02*
X41983000Y-40916000I0J212500D01*
G01*
X41983000Y-40491000D01*
G75*
G02*
X42195500Y-40278500I212500J0D01*
G01*
X42995500Y-40278500D01*
G75*
G02*
X43208000Y-40491000I0J-212500D01*
G01*
G37*
%TD.AperFunction*%
%TD*%
%TO.P,D1,2*%
%TO.N,Net-(D1-Pad2)*%
%TA.AperFunction,SMDPad,CuDef*%
G36*
G01*
X73650500Y-43856500D02*
X73650500Y-44281500D01*
G75*
G02*
X73438000Y-44494000I-212500J0D01*
G01*
X72638000Y-44494000D01*
G75*
G02*
X72425500Y-44281500I0J212500D01*
G01*
X72425500Y-43856500D01*
G75*
G02*
X72638000Y-43644000I212500J0D01*
G01*
X73438000Y-43644000D01*
G75*
G02*
X73650500Y-43856500I0J-212500D01*
G01*
G37*
%TD.AperFunction*%
%TO.P,D1,1*%
%TO.N,GND*%
%TA.AperFunction,SMDPad,CuDef*%
G36*
G01*
X75275500Y-43856500D02*
X75275500Y-44281500D01*
G75*
G02*
X75063000Y-44494000I-212500J0D01*
G01*
X74263000Y-44494000D01*
G75*
G02*
X74050500Y-44281500I0J212500D01*
G01*
X74050500Y-43856500D01*
G75*
G02*
X74263000Y-43644000I212500J0D01*
G01*
X75063000Y-43644000D01*
G75*
G02*
X75275500Y-43856500I0J-212500D01*
G01*
G37*
%TD.AperFunction*%
%TD*%
D33*
%TO.P,Crystal2,2*%
%TO.N,atmega2560_clockPinA*%
X53140000Y-21209000D03*
%TO.P,Crystal2,1*%
%TO.N,atmega2560_clockPinB*%
X48260000Y-21209000D03*
%TD*%
%TO.P,Crystal1,2*%
%TO.N,8U2_XTAL2*%
X40059000Y-21082000D03*
%TO.P,Crystal1,1*%
%TO.N,8U2_XTAL1*%
X35179000Y-21082000D03*
%TD*%
%TO.P,C13,2*%
%TO.N,USB_VIN*%
%TA.AperFunction,SMDPad,CuDef*%
G36*
G01*
X83497000Y-21877000D02*
X83497000Y-22827000D01*
G75*
G02*
X83247000Y-23077000I-250000J0D01*
G01*
X82572000Y-23077000D01*
G75*
G02*
X82322000Y-22827000I0J250000D01*
G01*
X82322000Y-21877000D01*
G75*
G02*
X82572000Y-21627000I250000J0D01*
G01*
X83247000Y-21627000D01*
G75*
G02*
X83497000Y-21877000I0J-250000D01*
G01*
G37*
%TD.AperFunction*%
%TO.P,C13,1*%
%TO.N,GND*%
%TA.AperFunction,SMDPad,CuDef*%
G36*
G01*
X85572000Y-21877000D02*
X85572000Y-22827000D01*
G75*
G02*
X85322000Y-23077000I-250000J0D01*
G01*
X84647000Y-23077000D01*
G75*
G02*
X84397000Y-22827000I0J250000D01*
G01*
X84397000Y-21877000D01*
G75*
G02*
X84647000Y-21627000I250000J0D01*
G01*
X85322000Y-21627000D01*
G75*
G02*
X85572000Y-21877000I0J-250000D01*
G01*
G37*
%TD.AperFunction*%
%TD*%
%TO.P,C11,2*%
%TO.N,atmega2560_clockPinA*%
%TA.AperFunction,SMDPad,CuDef*%
G36*
G01*
X53409000Y-16223000D02*
X53409000Y-15273000D01*
G75*
G02*
X53659000Y-15023000I250000J0D01*
G01*
X54334000Y-15023000D01*
G75*
G02*
X54584000Y-15273000I0J-250000D01*
G01*
X54584000Y-16223000D01*
G75*
G02*
X54334000Y-16473000I-250000J0D01*
G01*
X53659000Y-16473000D01*
G75*
G02*
X53409000Y-16223000I0J250000D01*
G01*
G37*
%TD.AperFunction*%
%TO.P,C11,1*%
%TO.N,GND*%
%TA.AperFunction,SMDPad,CuDef*%
G36*
G01*
X51334000Y-16223000D02*
X51334000Y-15273000D01*
G75*
G02*
X51584000Y-15023000I250000J0D01*
G01*
X52259000Y-15023000D01*
G75*
G02*
X52509000Y-15273000I0J-250000D01*
G01*
X52509000Y-16223000D01*
G75*
G02*
X52259000Y-16473000I-250000J0D01*
G01*
X51584000Y-16473000D01*
G75*
G02*
X51334000Y-16223000I0J250000D01*
G01*
G37*
%TD.AperFunction*%
%TD*%
%TO.P,C10,2*%
%TO.N,atmega2560_clockPinB*%
%TA.AperFunction,SMDPad,CuDef*%
G36*
G01*
X48423500Y-15273000D02*
X48423500Y-16223000D01*
G75*
G02*
X48173500Y-16473000I-250000J0D01*
G01*
X47498500Y-16473000D01*
G75*
G02*
X47248500Y-16223000I0J250000D01*
G01*
X47248500Y-15273000D01*
G75*
G02*
X47498500Y-15023000I250000J0D01*
G01*
X48173500Y-15023000D01*
G75*
G02*
X48423500Y-15273000I0J-250000D01*
G01*
G37*
%TD.AperFunction*%
%TO.P,C10,1*%
%TO.N,GND*%
%TA.AperFunction,SMDPad,CuDef*%
G36*
G01*
X50498500Y-15273000D02*
X50498500Y-16223000D01*
G75*
G02*
X50248500Y-16473000I-250000J0D01*
G01*
X49573500Y-16473000D01*
G75*
G02*
X49323500Y-16223000I0J250000D01*
G01*
X49323500Y-15273000D01*
G75*
G02*
X49573500Y-15023000I250000J0D01*
G01*
X50248500Y-15023000D01*
G75*
G02*
X50498500Y-15273000I0J-250000D01*
G01*
G37*
%TD.AperFunction*%
%TD*%
%TO.P,C5,2*%
%TO.N,Net-(C5-Pad2)*%
%TA.AperFunction,SMDPad,CuDef*%
G36*
G01*
X52424000Y-33751500D02*
X52424000Y-34701500D01*
G75*
G02*
X52174000Y-34951500I-250000J0D01*
G01*
X51499000Y-34951500D01*
G75*
G02*
X51249000Y-34701500I0J250000D01*
G01*
X51249000Y-33751500D01*
G75*
G02*
X51499000Y-33501500I250000J0D01*
G01*
X52174000Y-33501500D01*
G75*
G02*
X52424000Y-33751500I0J-250000D01*
G01*
G37*
%TD.AperFunction*%
%TO.P,C5,1*%
%TO.N,Net-(C5-Pad1)*%
%TA.AperFunction,SMDPad,CuDef*%
G36*
G01*
X54499000Y-33751500D02*
X54499000Y-34701500D01*
G75*
G02*
X54249000Y-34951500I-250000J0D01*
G01*
X53574000Y-34951500D01*
G75*
G02*
X53324000Y-34701500I0J250000D01*
G01*
X53324000Y-33751500D01*
G75*
G02*
X53574000Y-33501500I250000J0D01*
G01*
X54249000Y-33501500D01*
G75*
G02*
X54499000Y-33751500I0J-250000D01*
G01*
G37*
%TD.AperFunction*%
%TD*%
%TO.P,C4,1*%
%TO.N,GND*%
%TA.AperFunction,SMDPad,CuDef*%
G36*
G01*
X43767500Y-48801000D02*
X43767500Y-49751000D01*
G75*
G02*
X43517500Y-50001000I-250000J0D01*
G01*
X42842500Y-50001000D01*
G75*
G02*
X42592500Y-49751000I0J250000D01*
G01*
X42592500Y-48801000D01*
G75*
G02*
X42842500Y-48551000I250000J0D01*
G01*
X43517500Y-48551000D01*
G75*
G02*
X43767500Y-48801000I0J-250000D01*
G01*
G37*
%TD.AperFunction*%
%TO.P,C4,2*%
%TO.N,USB_VIN*%
%TA.AperFunction,SMDPad,CuDef*%
G36*
G01*
X41692500Y-48801000D02*
X41692500Y-49751000D01*
G75*
G02*
X41442500Y-50001000I-250000J0D01*
G01*
X40767500Y-50001000D01*
G75*
G02*
X40517500Y-49751000I0J250000D01*
G01*
X40517500Y-48801000D01*
G75*
G02*
X40767500Y-48551000I250000J0D01*
G01*
X41442500Y-48551000D01*
G75*
G02*
X41692500Y-48801000I0J-250000D01*
G01*
G37*
%TD.AperFunction*%
%TD*%
%TO.P,C2,2*%
%TO.N,GND*%
%TA.AperFunction,SMDPad,CuDef*%
G36*
G01*
X39809000Y-15527000D02*
X39809000Y-16477000D01*
G75*
G02*
X39559000Y-16727000I-250000J0D01*
G01*
X38884000Y-16727000D01*
G75*
G02*
X38634000Y-16477000I0J250000D01*
G01*
X38634000Y-15527000D01*
G75*
G02*
X38884000Y-15277000I250000J0D01*
G01*
X39559000Y-15277000D01*
G75*
G02*
X39809000Y-15527000I0J-250000D01*
G01*
G37*
%TD.AperFunction*%
%TO.P,C2,1*%
%TO.N,8U2_XTAL2*%
%TA.AperFunction,SMDPad,CuDef*%
G36*
G01*
X41884000Y-15527000D02*
X41884000Y-16477000D01*
G75*
G02*
X41634000Y-16727000I-250000J0D01*
G01*
X40959000Y-16727000D01*
G75*
G02*
X40709000Y-16477000I0J250000D01*
G01*
X40709000Y-15527000D01*
G75*
G02*
X40959000Y-15277000I250000J0D01*
G01*
X41634000Y-15277000D01*
G75*
G02*
X41884000Y-15527000I0J-250000D01*
G01*
G37*
%TD.AperFunction*%
%TD*%
%TO.P,C1,2*%
%TO.N,GND*%
%TA.AperFunction,SMDPad,CuDef*%
G36*
G01*
X36666500Y-16477000D02*
X36666500Y-15527000D01*
G75*
G02*
X36916500Y-15277000I250000J0D01*
G01*
X37591500Y-15277000D01*
G75*
G02*
X37841500Y-15527000I0J-250000D01*
G01*
X37841500Y-16477000D01*
G75*
G02*
X37591500Y-16727000I-250000J0D01*
G01*
X36916500Y-16727000D01*
G75*
G02*
X36666500Y-16477000I0J250000D01*
G01*
G37*
%TD.AperFunction*%
%TO.P,C1,1*%
%TO.N,8U2_XTAL1*%
%TA.AperFunction,SMDPad,CuDef*%
G36*
G01*
X34591500Y-16477000D02*
X34591500Y-15527000D01*
G75*
G02*
X34841500Y-15277000I250000J0D01*
G01*
X35516500Y-15277000D01*
G75*
G02*
X35766500Y-15527000I0J-250000D01*
G01*
X35766500Y-16477000D01*
G75*
G02*
X35516500Y-16727000I-250000J0D01*
G01*
X34841500Y-16727000D01*
G75*
G02*
X34591500Y-16477000I0J250000D01*
G01*
G37*
%TD.AperFunction*%
%TD*%
%TO.P,500ma1,2*%
%TO.N,Net-(500ma1-Pad2)*%
%TA.AperFunction,SMDPad,CuDef*%
G36*
G01*
X18933000Y-37441500D02*
X20183000Y-37441500D01*
G75*
G02*
X20433000Y-37691500I0J-250000D01*
G01*
X20433000Y-38616500D01*
G75*
G02*
X20183000Y-38866500I-250000J0D01*
G01*
X18933000Y-38866500D01*
G75*
G02*
X18683000Y-38616500I0J250000D01*
G01*
X18683000Y-37691500D01*
G75*
G02*
X18933000Y-37441500I250000J0D01*
G01*
G37*
%TD.AperFunction*%
%TO.P,500ma1,1*%
%TO.N,USB_VIN*%
%TA.AperFunction,SMDPad,CuDef*%
G36*
G01*
X18933000Y-34466500D02*
X20183000Y-34466500D01*
G75*
G02*
X20433000Y-34716500I0J-250000D01*
G01*
X20433000Y-35641500D01*
G75*
G02*
X20183000Y-35891500I-250000J0D01*
G01*
X18933000Y-35891500D01*
G75*
G02*
X18683000Y-35641500I0J250000D01*
G01*
X18683000Y-34716500D01*
G75*
G02*
X18933000Y-34466500I250000J0D01*
G01*
G37*
%TD.AperFunction*%
%TD*%
D34*
%TO.N,GND*%
X47561500Y-32067500D03*
X44450000Y-46990000D03*
X44450000Y-40894000D03*
X56007000Y-23622000D03*
X44450000Y-17145000D03*
X44450000Y-15748000D03*
X44450000Y-29083000D03*
X44450000Y-28067000D03*
X44450000Y-27051000D03*
%TO.N,Net-(2s_battery_pin1-Pad1)*%
X91313000Y-14859000D03*
X91821000Y-16002000D03*
X90424000Y-15748000D03*
X89780000Y-16519000D03*
%TO.N,+3V3*%
X93472000Y5334000D03*
X107031000Y5334000D03*
X79218000Y5461000D03*
X66167000Y5207000D03*
X100838000Y-11049000D03*
X13208000Y-4064000D03*
%TO.N,Int1_B*%
X72771000Y-28194000D03*
%TO.N,Int1_A*%
X72898000Y-26416000D03*
%TO.N,Int3_B*%
X80899000Y-31496000D03*
%TO.N,Int3_A*%
X80645000Y-30099000D03*
%TO.N,2560_SDA*%
X60960000Y-27051000D03*
%TO.N,2560_SCL*%
X64516000Y-27813000D03*
%TO.N,8U2_XTAL1*%
X54997000Y-38106000D03*
X54483000Y-31750000D03*
%TO.N,8U2_XTAL2*%
X40513000Y-28321000D03*
X53340000Y-38227000D03*
%TO.N,usb_ground*%
X53613000Y-45358000D03*
%TO.N,Net-(C5-Pad2)*%
X45847000Y-44704000D03*
X46228000Y-39243000D03*
%TO.N,GPStx*%
X61006010Y-31288010D03*
%TO.N,GPSrx*%
X60833000Y-33528000D03*
X64643000Y-8255000D03*
%TO.N,extraTX*%
X70231000Y-33147000D03*
%TO.N,extraRX*%
X71755000Y-33147000D03*
%TO.N,8U2_RESET*%
X60579000Y-49784000D03*
%TO.N,8U2_MOSI*%
X52572000Y-47758000D03*
%TO.N,8U2_SCK*%
X51022000Y-46958000D03*
X97790000Y-50038000D03*
%TO.N,8U2_MISO*%
X47625000Y-50038000D03*
%TO.N,2560_RESET*%
X59690000Y-35179000D03*
X80518000Y-40386000D03*
X59589501Y-22833499D03*
%TO.N,2560_MOSI*%
X66802000Y-22860000D03*
X67183000Y-30353000D03*
%TO.N,2560_SCK*%
X68199000Y-22733000D03*
X59944000Y-18288000D03*
%TO.N,2560_MISO*%
X66167000Y-23749000D03*
X97155000Y-36957000D03*
X58801000Y-17272000D03*
X66230500Y-16319500D03*
%TO.N,Net-(J3-PadA7)*%
X16129000Y-50927000D03*
X26416000Y-40386000D03*
%TO.N,PWM0*%
X73088500Y-15049500D03*
X69342000Y-10668000D03*
%TO.N,PWM1*%
X72390000Y-16637000D03*
X68453000Y-12319000D03*
%TO.N,PWM2*%
X77851000Y-17399000D03*
%TO.N,PWM3*%
X74485000Y-13017000D03*
X70231000Y-9525000D03*
%TO.N,USB_D-*%
X51181000Y-44196000D03*
X27940000Y-34417000D03*
%TO.N,USB_D+*%
X52197000Y-44958000D03*
X25019000Y-34671000D03*
%TO.N,Net-(R9-Pad2)*%
X50800000Y-39116000D03*
X84582000Y-38481000D03*
%TO.N,ProgrammerRx*%
X84518500Y-32194500D03*
X83947000Y-20828000D03*
%TO.N,Net-(R10-Pad2)*%
X50292000Y-43180000D03*
X86233000Y-38608000D03*
%TO.N,ProgrammerTx*%
X85725000Y-30734000D03*
X84645500Y-16700500D03*
%TO.N,2560_CS*%
X27813000Y-27305000D03*
X55880000Y-21844000D03*
X67183000Y-17653000D03*
X63627000Y-18415000D03*
%TO.N,Int0_A*%
X74295000Y-23876000D03*
%TO.N,Int0_B*%
X70485000Y-25146000D03*
%TO.N,Int2_A*%
X80137000Y-27813000D03*
%TO.N,Int2_B*%
X75025000Y-29813000D03*
%TO.N,USB_VIN*%
X115697000Y-27686000D03*
X45720000Y-49784000D03*
X58801000Y-44450000D03*
X69977000Y-37592000D03*
X64738556Y-23336556D03*
%TO.N,Net-(J5-Pad1)*%
X103505000Y-19304000D03*
X104521000Y-19304000D03*
X105283000Y-19304000D03*
X106299000Y-19558000D03*
X93345000Y-29464000D03*
X94488000Y-29464000D03*
X95758000Y-29464000D03*
X97536000Y-29464000D03*
X98806000Y-29464000D03*
X99949000Y-29464000D03*
X100965000Y-29464000D03*
%TD*%
D35*
%TO.N,GND*%
X120690000Y-4826000D02*
X116626000Y-762000D01*
X110236000Y-762000D02*
X110109000Y-635000D01*
X116626000Y-762000D02*
X110236000Y-762000D01*
X97075000Y-635000D02*
X96901000Y-461000D01*
X89662000Y-461000D02*
X89535000Y-588000D01*
X82764000Y-588000D02*
X82677000Y-675000D01*
X75859000Y-675000D02*
X75819000Y-715000D01*
X69342000Y-715000D02*
X69215000Y-588000D01*
X118324000Y-40600000D02*
X120396000Y-38528000D01*
X112776000Y-40600000D02*
X118324000Y-40600000D01*
X105410000Y-38862000D02*
X107950000Y-38862000D01*
X109688000Y-40600000D02*
X112776000Y-40600000D01*
X107950000Y-38862000D02*
X109688000Y-40600000D01*
X109688000Y-43982000D02*
X109688000Y-40600000D01*
X105410000Y-48260000D02*
X109688000Y-43982000D01*
D36*
X17145000Y6985000D02*
X20955000Y6985000D01*
X20955000Y6985000D02*
X24765000Y6985000D01*
X24765000Y6985000D02*
X28575000Y6985000D01*
X28575000Y6985000D02*
X32385000Y6985000D01*
X32385000Y6985000D02*
X36195000Y6985000D01*
X36195000Y6985000D02*
X40005000Y6985000D01*
X40005000Y6985000D02*
X43815000Y6985000D01*
X43815000Y6985000D02*
X47625000Y6985000D01*
X47625000Y6985000D02*
X51435000Y6985000D01*
D37*
X105410000Y-50546000D02*
X105410000Y-48260000D01*
X104648000Y-51308000D02*
X105410000Y-50546000D01*
D36*
X62865000Y-588000D02*
X69215000Y-588000D01*
X75692000Y-588000D02*
X75819000Y-715000D01*
X69215000Y-588000D02*
X75692000Y-588000D01*
X82637000Y-715000D02*
X82677000Y-675000D01*
X75819000Y-715000D02*
X82637000Y-715000D01*
X89448000Y-675000D02*
X89535000Y-588000D01*
X82677000Y-675000D02*
X89448000Y-675000D01*
X96774000Y-588000D02*
X96901000Y-461000D01*
X89535000Y-588000D02*
X96774000Y-588000D01*
X103331000Y-461000D02*
X103505000Y-635000D01*
X96901000Y-461000D02*
X103331000Y-461000D01*
X103505000Y-635000D02*
X110109000Y-635000D01*
X62865000Y-588000D02*
X60278000Y-588000D01*
X60278000Y-588000D02*
X57912000Y1778000D01*
X57912000Y1778000D02*
X57912000Y6350000D01*
X57277000Y6985000D02*
X51435000Y6985000D01*
X57912000Y6350000D02*
X57277000Y6985000D01*
X120690000Y-4826000D02*
X120690000Y-13208000D01*
X120690000Y-13208000D02*
X120690000Y-21590000D01*
X120690000Y-13208000D02*
X117094000Y-13208000D01*
X117094000Y-13208000D02*
X114300000Y-10414000D01*
X106838000Y-10414000D02*
X104293000Y-12959000D01*
X114300000Y-10414000D02*
X106838000Y-10414000D01*
X104293000Y-12959000D02*
X104293000Y-13055000D01*
X104293000Y-13055000D02*
X101473000Y-15875000D01*
X101473000Y-19539000D02*
X104293000Y-22359000D01*
X101473000Y-15875000D02*
X101473000Y-19539000D01*
X89999000Y-20999000D02*
X89999000Y-22232000D01*
X91459000Y-19539000D02*
X89999000Y-20999000D01*
X101473000Y-19539000D02*
X91459000Y-19539000D01*
D38*
X49911000Y-15748000D02*
X49911000Y-14732000D01*
D35*
X89780000Y-12959000D02*
X87249000Y-15490000D01*
X87249000Y-19482000D02*
X89999000Y-22232000D01*
X87249000Y-15490000D02*
X87249000Y-19482000D01*
X89879000Y-22352000D02*
X89999000Y-22232000D01*
X84984500Y-22352000D02*
X89879000Y-22352000D01*
D39*
X74663000Y-40956702D02*
X74663000Y-44069000D01*
X69985000Y-35475500D02*
X69985000Y-36278702D01*
D38*
X47561500Y-32067500D02*
X47625000Y-32004000D01*
D39*
X25511000Y-23374980D02*
X25511000Y-23622000D01*
X25511000Y-15500980D02*
X25511000Y-16002000D01*
X24436010Y-14425990D02*
X25511000Y-15500980D01*
X24436010Y-12117010D02*
X24436010Y-14425990D01*
X22479000Y-11938000D02*
X24257000Y-11938000D01*
X22098000Y-12319000D02*
X22479000Y-11938000D01*
X22098000Y-14359000D02*
X22098000Y-12319000D01*
X20005000Y-16452000D02*
X22098000Y-14359000D01*
X24257000Y-11938000D02*
X24436010Y-12117010D01*
X19155000Y-16452000D02*
X20005000Y-16452000D01*
D38*
X37254000Y-15029000D02*
X37254000Y-16002000D01*
X30226000Y-36195000D02*
X30226000Y-35052000D01*
X23622000Y-30607000D02*
X30226000Y-30607000D01*
X30226000Y-30607000D02*
X30226000Y-36195000D01*
X30226000Y-27305000D02*
X30226000Y-30607000D01*
D39*
X47276000Y-34226500D02*
X47276000Y-36290000D01*
X44831000Y-39751000D02*
X45847000Y-40767000D01*
X45847000Y-40767000D02*
X46609000Y-40767000D01*
X46609000Y-40767000D02*
X49022000Y-38354000D01*
X53397000Y-39847998D02*
X53397000Y-40708000D01*
X51903002Y-38354000D02*
X53397000Y-39847998D01*
X49022000Y-38354000D02*
X51903002Y-38354000D01*
X43180000Y-49276000D02*
X43180000Y-48260000D01*
X43180000Y-48260000D02*
X44450000Y-46990000D01*
X44450000Y-46990000D02*
X44450000Y-46990000D01*
X44450000Y-40894000D02*
X44450000Y-40132000D01*
X47276000Y-36163000D02*
X47276000Y-34226500D01*
X44831000Y-38608000D02*
X47276000Y-36163000D01*
X44831000Y-39751000D02*
X44831000Y-38608000D01*
X44450000Y-40132000D02*
X44831000Y-39751000D01*
X71485000Y-21828000D02*
X71485000Y-20150500D01*
X71970000Y-22313000D02*
X71485000Y-21828000D01*
X71970000Y-22313000D02*
X71970000Y-22518000D01*
X62822500Y-24813000D02*
X68532000Y-24813000D01*
X71032000Y-22313000D02*
X72683000Y-22313000D01*
X68532000Y-24813000D02*
X71032000Y-22313000D01*
X72683000Y-22313000D02*
X71970000Y-22313000D01*
X78147500Y-22313000D02*
X72683000Y-22313000D01*
X78147500Y-31313000D02*
X76779000Y-31313000D01*
X76779000Y-31313000D02*
X76454000Y-30988000D01*
X69985000Y-36278702D02*
X74663000Y-40956702D01*
X68532000Y-25028002D02*
X68532000Y-24813000D01*
X74491998Y-30988000D02*
X68532000Y-25028002D01*
X76454000Y-30988000D02*
X74491998Y-30988000D01*
X71485000Y-20150500D02*
X71485000Y-13478000D01*
X71485000Y-13478000D02*
X73406000Y-11557000D01*
X88378000Y-11557000D02*
X89780000Y-12959000D01*
X73406000Y-11557000D02*
X88378000Y-11557000D01*
X62019298Y-24813000D02*
X62822500Y-24813000D01*
X60764798Y-23558500D02*
X62019298Y-24813000D01*
X58864500Y-23558500D02*
X60764798Y-23558500D01*
D36*
X45307500Y-36195000D02*
X47276000Y-34226500D01*
X30226000Y-36195000D02*
X45307500Y-36195000D01*
D39*
X58801000Y-23622000D02*
X58864500Y-23558500D01*
X56007000Y-23622000D02*
X58801000Y-23622000D01*
D36*
X44450000Y-14351000D02*
X44196000Y-14097000D01*
X44450000Y-15748000D02*
X44450000Y-14351000D01*
D37*
X49911000Y-15748000D02*
X49911000Y-14859000D01*
X49149000Y-14097000D02*
X44196000Y-14097000D01*
X49911000Y-14859000D02*
X49149000Y-14097000D01*
X44450000Y-14351000D02*
X40005000Y-14351000D01*
X39221500Y-15134500D02*
X39221500Y-16002000D01*
X40005000Y-14351000D02*
X39221500Y-15134500D01*
X37254000Y-16002000D02*
X37254000Y-15283000D01*
X37254000Y-15283000D02*
X36322000Y-14351000D01*
X29702000Y-14351000D02*
X25511000Y-18542000D01*
X36322000Y-14351000D02*
X29702000Y-14351000D01*
X25511000Y-18542000D02*
X25511000Y-16002000D01*
D36*
X44450000Y-15748000D02*
X44450000Y-17145000D01*
X44450000Y-17145000D02*
X44450000Y-27051000D01*
X44450000Y-29083000D02*
X44450000Y-29083000D01*
X44450000Y-28067000D02*
X44450000Y-29083000D01*
X44450000Y-27051000D02*
X44450000Y-28067000D01*
X47276000Y-32353000D02*
X47561500Y-32067500D01*
X47276000Y-34226500D02*
X47276000Y-32353000D01*
X26543000Y-23622000D02*
X30226000Y-27305000D01*
X25511000Y-23622000D02*
X26543000Y-23622000D01*
X22606000Y-31623000D02*
X23622000Y-30607000D01*
X22606000Y-36322000D02*
X22606000Y-31623000D01*
X29972000Y-30607000D02*
X30226000Y-30861000D01*
X23622000Y-30607000D02*
X29972000Y-30607000D01*
X30226000Y-30861000D02*
X30226000Y-36195000D01*
X30226000Y-27305000D02*
X30226000Y-30861000D01*
X76653000Y-44069000D02*
X81534000Y-48950000D01*
X74663000Y-44069000D02*
X76653000Y-44069000D01*
X81534000Y-48950000D02*
X88034000Y-48950000D01*
X93400000Y-48950000D02*
X95758000Y-51308000D01*
X88034000Y-48950000D02*
X93400000Y-48950000D01*
D37*
X95758000Y-51308000D02*
X104648000Y-51308000D01*
D36*
X51921500Y-15748000D02*
X49911000Y-15748000D01*
X39221500Y-16002000D02*
X37254000Y-16002000D01*
D39*
X78147500Y-22313000D02*
X79717000Y-22313000D01*
X83312000Y-25908000D02*
X83312000Y-26140500D01*
X79717000Y-22313000D02*
X83312000Y-25908000D01*
D35*
%TO.N,Net-(2s_battery_pin1-Pad1)*%
X119968000Y-33100000D02*
X120396000Y-33528000D01*
X112776000Y-33100000D02*
X119968000Y-33100000D01*
D36*
X89780000Y-17519000D02*
X89780000Y-16519000D01*
X89780000Y-16392000D02*
X90424000Y-15748000D01*
X91313000Y-14859000D02*
X91313000Y-15494000D01*
X91313000Y-15494000D02*
X91821000Y-16002000D01*
X91313000Y-14859000D02*
X91313000Y-14859000D01*
X91821000Y-16002000D02*
X91948000Y-16129000D01*
X90424000Y-15748000D02*
X91313000Y-14859000D01*
X89780000Y-16519000D02*
X89780000Y-16392000D01*
D39*
%TO.N,Net-(500ma1-Pad2)*%
X19558000Y-38154000D02*
X19558000Y-39370000D01*
X21356000Y-41168000D02*
X21356000Y-42478000D01*
X19558000Y-39370000D02*
X21356000Y-41168000D01*
X21356000Y-43738000D02*
X21406000Y-43788000D01*
X21356000Y-42478000D02*
X21356000Y-43738000D01*
X23856000Y-43738000D02*
X23806000Y-43788000D01*
X23856000Y-42478000D02*
X23856000Y-43738000D01*
D40*
%TO.N,+3V3*%
X110236000Y6574000D02*
X107031000Y6574000D01*
X62992000Y6544000D02*
X66107000Y6544000D01*
X82520000Y6574000D02*
X82550000Y6604000D01*
X76200000Y6574000D02*
X79218000Y6574000D01*
X93315000Y6574000D02*
X96774000Y6574000D01*
X107031000Y6574000D02*
X103632000Y6574000D01*
X79218000Y6574000D02*
X82520000Y6574000D01*
X66107000Y6544000D02*
X69596000Y6544000D01*
D38*
X66167000Y6484000D02*
X66107000Y6544000D01*
X66167000Y5207000D02*
X66167000Y6484000D01*
X79218000Y5461000D02*
X79218000Y6574000D01*
X93472000Y6163000D02*
X93061000Y6574000D01*
X93472000Y5334000D02*
X93472000Y6163000D01*
D40*
X93061000Y6574000D02*
X93315000Y6574000D01*
X89662000Y6574000D02*
X93061000Y6574000D01*
D38*
X107031000Y5334000D02*
X107031000Y6574000D01*
X100270000Y-11049000D02*
X96080000Y-15239000D01*
X100838000Y-11049000D02*
X100270000Y-11049000D01*
X13208000Y-4064000D02*
X13208000Y-7112000D01*
X13208000Y-7112000D02*
X16764000Y-10668000D01*
X16764000Y-10668000D02*
X16764000Y-18415000D01*
X17001000Y-18652000D02*
X19155000Y-18652000D01*
X16764000Y-18415000D02*
X17001000Y-18652000D01*
D39*
%TO.N,Int1_B*%
X78147500Y-28813000D02*
X73390000Y-28813000D01*
X73390000Y-28813000D02*
X72771000Y-28194000D01*
X72771000Y-28194000D02*
X72771000Y-28194000D01*
%TO.N,Int1_A*%
X76752020Y-28238020D02*
X74720020Y-28238020D01*
X76827000Y-28313000D02*
X76752020Y-28238020D01*
X78147500Y-28313000D02*
X76827000Y-28313000D01*
X74720020Y-28238020D02*
X73787000Y-27305000D01*
X73787000Y-27305000D02*
X73787000Y-27305000D01*
X73787000Y-27305000D02*
X72898000Y-26416000D01*
X72898000Y-26416000D02*
X72898000Y-26416000D01*
%TO.N,Int3_B*%
X80240990Y-30837990D02*
X80899000Y-31496000D01*
X78208990Y-30837990D02*
X80240990Y-30837990D01*
X78184000Y-30813000D02*
X78208990Y-30837990D01*
X78147500Y-30813000D02*
X78184000Y-30813000D01*
%TO.N,Int3_A*%
X80431000Y-30313000D02*
X80645000Y-30099000D01*
X78147500Y-30313000D02*
X80431000Y-30313000D01*
%TO.N,2560_SDA*%
X61283010Y-30076712D02*
X61283010Y-27374010D01*
X62019298Y-30813000D02*
X61283010Y-30076712D01*
X62822500Y-30813000D02*
X62019298Y-30813000D01*
X61283010Y-27374010D02*
X60960000Y-27051000D01*
X60960000Y-27051000D02*
X60960000Y-27051000D01*
%TO.N,2560_SCL*%
X63650692Y-30288010D02*
X64516000Y-29422702D01*
X62844990Y-30288010D02*
X63650692Y-30288010D01*
X62822500Y-30310500D02*
X62844990Y-30288010D01*
X62822500Y-30313000D02*
X62822500Y-30310500D01*
X64516000Y-29422702D02*
X64516000Y-27813000D01*
X64516000Y-27813000D02*
X64516000Y-27813000D01*
D40*
%TO.N,8U2_XTAL1*%
X36719000Y-22622000D02*
X35179000Y-21082000D01*
X36719000Y-26162000D02*
X36719000Y-22622000D01*
X35179000Y-21082000D02*
X35179000Y-16002000D01*
D39*
X54997000Y-40708000D02*
X54997000Y-38106000D01*
X54997000Y-38106000D02*
X54997000Y-38106000D01*
X36719000Y-26162000D02*
X41291000Y-30734000D01*
X41291000Y-30734000D02*
X53467000Y-30734000D01*
X53467000Y-30734000D02*
X54483000Y-31750000D01*
X54483000Y-31750000D02*
X54483000Y-31750000D01*
D40*
%TO.N,8U2_XTAL2*%
X38719000Y-22422000D02*
X40059000Y-21082000D01*
X38719000Y-26162000D02*
X38719000Y-22422000D01*
X40059000Y-21082000D02*
X41719500Y-19421500D01*
X41719500Y-16425000D02*
X41296500Y-16002000D01*
X41719500Y-19421500D02*
X41719500Y-16425000D01*
D39*
X38719000Y-26162000D02*
X38719000Y-26527000D01*
X38719000Y-26527000D02*
X40513000Y-28321000D01*
X40513000Y-28321000D02*
X40513000Y-28321000D01*
X54197000Y-40708000D02*
X54197000Y-39084000D01*
X54197000Y-39084000D02*
X53340000Y-38227000D01*
X53340000Y-38227000D02*
X53340000Y-38227000D01*
%TO.N,usb_ground*%
X56533500Y-45444500D02*
X56447000Y-45358000D01*
X66040000Y-45444500D02*
X56533500Y-45444500D01*
X25406000Y-42528000D02*
X25356000Y-42478000D01*
X25406000Y-43788000D02*
X25406000Y-42528000D01*
X19856000Y-43738000D02*
X19806000Y-43788000D01*
X19856000Y-42478000D02*
X19856000Y-43738000D01*
X56447000Y-45358000D02*
X53613000Y-45358000D01*
X53613000Y-45358000D02*
X53613000Y-45358000D01*
%TO.N,Net-(C3-Pad1)*%
X66040000Y-47519500D02*
X63013500Y-47519500D01*
X61652000Y-46158000D02*
X56447000Y-46158000D01*
X63013500Y-47519500D02*
X61652000Y-46158000D01*
D41*
%TO.N,Net-(C5-Pad2)*%
X49276000Y-34226500D02*
X51836500Y-34226500D01*
D39*
X47190001Y-45158001D02*
X46301001Y-45158001D01*
X47390000Y-45358000D02*
X47190001Y-45158001D01*
X47947000Y-45358000D02*
X47390000Y-45358000D01*
X46301001Y-45158001D02*
X45847000Y-44704000D01*
X45847000Y-44704000D02*
X45847000Y-44704000D01*
X46228000Y-39243000D02*
X48768000Y-36703000D01*
X48768000Y-34734500D02*
X49276000Y-34226500D01*
X48768000Y-36703000D02*
X48768000Y-34734500D01*
D41*
%TO.N,Net-(C5-Pad1)*%
X56324500Y-34226500D02*
X56388000Y-34290000D01*
X53911500Y-34226500D02*
X56324500Y-34226500D01*
%TO.N,atmega2560_clockPinB*%
X48260000Y-25019000D02*
X49657000Y-26416000D01*
X48260000Y-21209000D02*
X48260000Y-25019000D01*
X47836000Y-20785000D02*
X48260000Y-21209000D01*
X47836000Y-15748000D02*
X47836000Y-20785000D01*
D38*
X49657000Y-26416000D02*
X49657000Y-28575000D01*
X49657000Y-28575000D02*
X50038000Y-28956000D01*
X61818232Y-25908000D02*
X61913232Y-25813000D01*
D39*
X56229000Y-25813000D02*
X53086000Y-28956000D01*
X62822500Y-25813000D02*
X56229000Y-25813000D01*
D38*
X50038000Y-28956000D02*
X53086000Y-28956000D01*
D41*
%TO.N,atmega2560_clockPinA*%
X51657000Y-26416000D02*
X51657000Y-26321000D01*
X53140000Y-24838000D02*
X53140000Y-21209000D01*
X51657000Y-26321000D02*
X53140000Y-24838000D01*
X53140000Y-21209000D02*
X53140000Y-19504000D01*
X53996500Y-18647500D02*
X53996500Y-15748000D01*
X53140000Y-19504000D02*
X53996500Y-18647500D01*
D39*
X62130699Y-25287991D02*
X61228991Y-25287991D01*
X62130718Y-25288010D02*
X62130699Y-25287991D01*
X62753010Y-25288010D02*
X62130718Y-25288010D01*
X62778000Y-25313000D02*
X62753010Y-25288010D01*
X62822500Y-25313000D02*
X62778000Y-25313000D01*
X60779000Y-24838000D02*
X53140000Y-24838000D01*
X61228991Y-25287991D02*
X60779000Y-24838000D01*
%TO.N,Net-(C12-Pad1)*%
X78950702Y-22813000D02*
X80391000Y-24253298D01*
X78147500Y-22813000D02*
X78950702Y-22813000D01*
X80391000Y-24253298D02*
X80391000Y-24892000D01*
X80391000Y-24892000D02*
X81534000Y-26035000D01*
X81534000Y-26035000D02*
X81534000Y-27559000D01*
X82190500Y-28215500D02*
X83312000Y-28215500D01*
X81534000Y-27559000D02*
X82190500Y-28215500D01*
D41*
%TO.N,Net-(D1-Pad2)*%
X72850500Y-49149000D02*
X72850500Y-46609000D01*
X72850500Y-44256500D02*
X73038000Y-44069000D01*
X72850500Y-46609000D02*
X72850500Y-44256500D01*
%TO.N,Net-(D2-Pad2)*%
X37703000Y-40703500D02*
X40970500Y-40703500D01*
D38*
%TO.N,Net-(D2-Pad1)*%
X44850000Y-42958000D02*
X47947000Y-42958000D01*
X42595500Y-40703500D02*
X44850000Y-42958000D01*
D41*
%TO.N,Net-(D3-Pad2)*%
X37766500Y-45402500D02*
X41034000Y-45402500D01*
D38*
%TO.N,Net-(D3-Pad1)*%
X42659000Y-45402500D02*
X43497500Y-45402500D01*
X45142000Y-43758000D02*
X47947000Y-43758000D01*
X43497500Y-45402500D02*
X45142000Y-43758000D01*
D39*
%TO.N,GPStx*%
X62784010Y-31288010D02*
X61006010Y-31288010D01*
X62809000Y-31313000D02*
X62784010Y-31288010D01*
X62822500Y-31313000D02*
X62809000Y-31313000D01*
X61006010Y-31288010D02*
X61006010Y-31288010D01*
%TO.N,GPSrx*%
X62822500Y-31813000D02*
X62019298Y-31813000D01*
X62019298Y-31813000D02*
X60833000Y-32999298D01*
X60833000Y-32999298D02*
X60833000Y-33528000D01*
X60833000Y-33528000D02*
X60833000Y-33528000D01*
X64643000Y-7366000D02*
X62865000Y-5588000D01*
X64643000Y-8255000D02*
X64643000Y-7366000D01*
%TO.N,extraTX*%
X70485000Y-35475500D02*
X70485000Y-33401000D01*
X70485000Y-33401000D02*
X70231000Y-33147000D01*
X70231000Y-33147000D02*
X70231000Y-33147000D01*
%TO.N,extraRX*%
X70985000Y-35475500D02*
X70985000Y-33917000D01*
X70985000Y-33917000D02*
X71755000Y-33147000D01*
X71755000Y-33147000D02*
X71755000Y-33147000D01*
%TO.N,8U2_RESET*%
X54997000Y-50068002D02*
X54997000Y-49208000D01*
X53757002Y-51308000D02*
X54997000Y-50068002D01*
X39751029Y-51308000D02*
X53757002Y-51308000D01*
X37973029Y-49530000D02*
X39751029Y-51308000D01*
X37830000Y-49530000D02*
X37973029Y-49530000D01*
X55573000Y-49784000D02*
X54997000Y-49208000D01*
X60579000Y-49784000D02*
X55573000Y-49784000D01*
%TO.N,8U2_MOSI*%
X47947000Y-47758000D02*
X52572000Y-47758000D01*
X52572000Y-47758000D02*
X52572000Y-47758000D01*
%TO.N,8U2_SCK*%
X47947000Y-46958000D02*
X51022000Y-46958000D01*
X51022000Y-46958000D02*
X51022000Y-46958000D01*
X97790000Y-50038000D02*
X97790000Y-49403000D01*
X101473000Y-45720000D02*
X102870000Y-45720000D01*
X97790000Y-49403000D02*
X101473000Y-45720000D01*
%TO.N,8U2_MISO*%
X49397000Y-49208000D02*
X48455000Y-49208000D01*
X48455000Y-49208000D02*
X47625000Y-50038000D01*
X47625000Y-50038000D02*
X47498000Y-50165000D01*
D36*
%TO.N,2560_RESET*%
X81534000Y-44450000D02*
X88034000Y-44450000D01*
D37*
X102870000Y-38862000D02*
X96520000Y-38862000D01*
X90932000Y-44450000D02*
X88034000Y-44450000D01*
X96520000Y-38862000D02*
X90932000Y-44450000D01*
X82550000Y-36322000D02*
X82550000Y-39370000D01*
X81534000Y-40386000D02*
X81534000Y-44450000D01*
X82550000Y-39370000D02*
X81534000Y-40386000D01*
D38*
X57688000Y-34290000D02*
X58801000Y-34290000D01*
X58801000Y-34290000D02*
X59690000Y-35179000D01*
X59690000Y-35179000D02*
X59690000Y-35179000D01*
X81534000Y-40386000D02*
X80518000Y-40386000D01*
X80518000Y-40386000D02*
X80518000Y-40386000D01*
D39*
X63650692Y-23788010D02*
X61994308Y-23788010D01*
X63625702Y-23813000D02*
X63650692Y-23788010D01*
X62822500Y-23813000D02*
X63625702Y-23813000D01*
X61039797Y-22833499D02*
X61457649Y-23251351D01*
X59589501Y-22833499D02*
X61039797Y-22833499D01*
X61994308Y-23788010D02*
X61457649Y-23251351D01*
%TO.N,2560_MOSI*%
X66485000Y-20150500D02*
X66485000Y-22543000D01*
X66485000Y-22543000D02*
X66802000Y-22860000D01*
X66802000Y-22860000D02*
X66802000Y-22860000D01*
X25511000Y-21082000D02*
X27051000Y-21082000D01*
X27051000Y-21082000D02*
X37211000Y-31242000D01*
X37211000Y-31242000D02*
X51562000Y-31242000D01*
X51562000Y-31242000D02*
X53086000Y-32766000D01*
X53086000Y-32766000D02*
X58928000Y-32766000D01*
X58928000Y-32766000D02*
X59055000Y-32766000D01*
X59055000Y-32766000D02*
X59055000Y-33147000D01*
X59055000Y-33147000D02*
X61341000Y-35433000D01*
X61341000Y-35433000D02*
X62865000Y-35433000D01*
X62865000Y-35433000D02*
X67183000Y-31115000D01*
X67183000Y-31115000D02*
X67183000Y-30353000D01*
X67183000Y-30353000D02*
X67183000Y-30353000D01*
%TO.N,2560_SCK*%
X66985000Y-20150500D02*
X66985000Y-21519000D01*
X66985000Y-21519000D02*
X68199000Y-22733000D01*
X68199000Y-22733000D02*
X68199000Y-22733000D01*
X25511000Y-13462000D02*
X39497000Y-13462000D01*
X39497000Y-13462000D02*
X39878000Y-13081000D01*
X39878000Y-13081000D02*
X53467000Y-13081000D01*
X53467000Y-13081000D02*
X57150000Y-16764000D01*
X57150000Y-16764000D02*
X57150000Y-17653000D01*
X57150000Y-17653000D02*
X57531000Y-17653000D01*
X57531000Y-17653000D02*
X58166000Y-18288000D01*
X58166000Y-18288000D02*
X59309000Y-18288000D01*
X59309000Y-18288000D02*
X59944000Y-18288000D01*
X59944000Y-18288000D02*
X59944000Y-18288000D01*
%TO.N,2560_MISO*%
X65985000Y-20150500D02*
X65985000Y-23567000D01*
X65985000Y-23567000D02*
X66167000Y-23749000D01*
X66167000Y-23749000D02*
X66167000Y-23749000D01*
X97155000Y-36957000D02*
X100203000Y-33909000D01*
X102743000Y-33909000D02*
X102870000Y-33782000D01*
X100203000Y-33909000D02*
X102743000Y-33909000D01*
X19155000Y-15352000D02*
X20081000Y-15352000D01*
X20081000Y-15352000D02*
X21336000Y-14097000D01*
X21336000Y-12444590D02*
X22606000Y-11174590D01*
X21336000Y-14097000D02*
X21336000Y-12444590D01*
X22606000Y-11174590D02*
X52703590Y-11174590D01*
X52703590Y-11174590D02*
X58801000Y-17272000D01*
X58801000Y-17272000D02*
X58801000Y-17272000D01*
X66230500Y-16319500D02*
X66230500Y-17843500D01*
X65985000Y-18089000D02*
X65985000Y-20150500D01*
X66230500Y-17843500D02*
X65985000Y-18089000D01*
%TO.N,Net-(J3-PadB5)*%
X30226000Y-49276000D02*
X30226000Y-38195000D01*
X27813000Y-51689000D02*
X30226000Y-49276000D01*
X25654000Y-50927000D02*
X26416000Y-51689000D01*
X25654000Y-50221318D02*
X25654000Y-50927000D01*
X23406000Y-47973318D02*
X25654000Y-50221318D01*
X26416000Y-51689000D02*
X27813000Y-51689000D01*
X23406000Y-44488000D02*
X23406000Y-47973318D01*
%TO.N,Net-(J3-PadA7)*%
X26986000Y-38322000D02*
X24795000Y-40513000D01*
X27686000Y-38322000D02*
X26986000Y-38322000D01*
X24235998Y-40513000D02*
X22856000Y-41892998D01*
X22856000Y-41892998D02*
X22856000Y-42478000D01*
X24795000Y-40513000D02*
X24235998Y-40513000D01*
X16129000Y-37846000D02*
X16129000Y-50927000D01*
X26416000Y-39592000D02*
X27686000Y-38322000D01*
X26416000Y-40386000D02*
X26416000Y-39592000D01*
%TO.N,Net-(J3-PadA6)*%
X25146000Y-38806500D02*
X25146000Y-38322000D01*
X22356000Y-41271000D02*
X22356000Y-42478000D01*
X25146000Y-38481000D02*
X22356000Y-41271000D01*
X25146000Y-38322000D02*
X25146000Y-38481000D01*
X22856001Y-43638001D02*
X23006000Y-43788000D01*
X22856001Y-43475999D02*
X22856001Y-43638001D01*
X22356000Y-42975998D02*
X22856001Y-43475999D01*
X22356000Y-42478000D02*
X22356000Y-42975998D01*
%TO.N,Net-(J3-PadS1)*%
X18476000Y-49978000D02*
X18116000Y-50338000D01*
X18476000Y-44388000D02*
X18476000Y-49978000D01*
X26736000Y-49978000D02*
X27096000Y-50338000D01*
X26736000Y-44388000D02*
X26736000Y-49978000D01*
%TO.N,Net-(J3-PadA5)*%
X22606000Y-38322000D02*
X22606000Y-40005000D01*
X21856000Y-40755000D02*
X21856000Y-42478000D01*
X22606000Y-40005000D02*
X21856000Y-40755000D01*
D38*
%TO.N,Net-(J4-Pad11)*%
X4055000Y-12802000D02*
X4505000Y-12352000D01*
X4055000Y-25852000D02*
X4055000Y-12802000D01*
X4505000Y-12352000D02*
X6250000Y-14097000D01*
X13110000Y-14097000D02*
X14855000Y-12352000D01*
X6250000Y-14097000D02*
X13110000Y-14097000D01*
X14855000Y-12352000D02*
X14855000Y-22221000D01*
X16136000Y-23502000D02*
X19155000Y-23502000D01*
X14855000Y-22221000D02*
X16136000Y-23502000D01*
%TO.N,Net-(J4-Pad5)*%
X21961000Y-17552000D02*
X23511000Y-16002000D01*
X19155000Y-17552000D02*
X21961000Y-17552000D01*
X23511000Y-13462000D02*
X23511000Y-16002000D01*
%TO.N,Net-(J4-Pad3)*%
X22301000Y-19752000D02*
X23511000Y-18542000D01*
X19155000Y-19752000D02*
X22301000Y-19752000D01*
X23511000Y-18542000D02*
X23511000Y-21082000D01*
D40*
%TO.N,Net-(J4-Pad2)*%
X23495000Y-23638000D02*
X23511000Y-23622000D01*
X23495000Y-26098500D02*
X23495000Y-23638000D01*
D38*
X20741000Y-20852000D02*
X23511000Y-23622000D01*
X19155000Y-20852000D02*
X20741000Y-20852000D01*
D39*
%TO.N,wireless_rx*%
X82677000Y-6477000D02*
X82677000Y-5675000D01*
X79756000Y-9398000D02*
X82677000Y-6477000D01*
X72644000Y-9398000D02*
X79756000Y-9398000D01*
X70485000Y-11557000D02*
X72644000Y-9398000D01*
X70485000Y-20150500D02*
X70485000Y-11557000D01*
%TO.N,wireless_tx*%
X84074000Y-3175000D02*
X82677000Y-3175000D01*
X85344000Y-4445000D02*
X84074000Y-3175000D01*
X85344000Y-9398000D02*
X85344000Y-4445000D01*
X84074000Y-10668000D02*
X85344000Y-9398000D01*
X73279000Y-10668000D02*
X84074000Y-10668000D01*
X70985000Y-12962000D02*
X73279000Y-10668000D01*
X70985000Y-20150500D02*
X70985000Y-12962000D01*
%TO.N,PWM0*%
X73960010Y-20097010D02*
X73960010Y-15921010D01*
X73985000Y-20122000D02*
X73960010Y-20097010D01*
X73985000Y-20150500D02*
X73985000Y-20122000D01*
X73960010Y-15921010D02*
X73088500Y-15049500D01*
X73088500Y-15049500D02*
X73025000Y-14986000D01*
X61087000Y-11430000D02*
X51689000Y-2032000D01*
X47752000Y-2032000D02*
X43815000Y1905000D01*
X51689000Y-2032000D02*
X47752000Y-2032000D01*
X69342000Y-10668000D02*
X68199000Y-10668000D01*
X67437000Y-11430000D02*
X65786000Y-11430000D01*
X68199000Y-10668000D02*
X67437000Y-11430000D01*
X65786000Y-11430000D02*
X61087000Y-11430000D01*
X66167000Y-11430000D02*
X65786000Y-11430000D01*
%TO.N,PWM1*%
X73460010Y-20120010D02*
X73460010Y-17707010D01*
X73485000Y-20145000D02*
X73460010Y-20120010D01*
X73485000Y-20150500D02*
X73485000Y-20145000D01*
X73460010Y-17707010D02*
X72390000Y-16637000D01*
X72390000Y-16637000D02*
X72390000Y-16637000D01*
X60833000Y-12573000D02*
X51054000Y-2794000D01*
X51054000Y-2794000D02*
X46609000Y-2794000D01*
X46609000Y-2794000D02*
X44196000Y-381000D01*
X42291000Y-381000D02*
X40005000Y1905000D01*
X44196000Y-381000D02*
X42291000Y-381000D01*
X68453000Y-12319000D02*
X67691000Y-12319000D01*
X67437000Y-12573000D02*
X65278000Y-12573000D01*
X67691000Y-12319000D02*
X67437000Y-12573000D01*
X65278000Y-12573000D02*
X60833000Y-12573000D01*
X65786000Y-12573000D02*
X65278000Y-12573000D01*
%TO.N,PWM2*%
X76485000Y-20150500D02*
X76485000Y-18765000D01*
X76485000Y-18765000D02*
X77851000Y-17399000D01*
X77851000Y-17399000D02*
X77851000Y-17399000D01*
%TO.N,PWM3*%
X74485000Y-20150500D02*
X74485000Y-13017000D01*
X74485000Y-13017000D02*
X74485000Y-13017000D01*
X61468000Y-10287000D02*
X54737000Y-3556000D01*
X54737000Y-3556000D02*
X54737000Y-3048000D01*
X54737000Y-3048000D02*
X52578000Y-889000D01*
X50419000Y-889000D02*
X47625000Y1905000D01*
X52578000Y-889000D02*
X50419000Y-889000D01*
X70231000Y-9525000D02*
X67818000Y-9525000D01*
X67056000Y-10287000D02*
X66294000Y-10287000D01*
X67818000Y-9525000D02*
X67056000Y-10287000D01*
X66294000Y-10287000D02*
X61468000Y-10287000D01*
X66676000Y-10287000D02*
X66294000Y-10287000D01*
%TO.N,PWM4*%
X69485000Y-20050000D02*
X69469000Y-20034000D01*
X69485000Y-20150500D02*
X69485000Y-20050000D01*
X69469000Y-20034000D02*
X69469000Y-15367000D01*
X69469000Y-15367000D02*
X67310000Y-13208000D01*
X67310000Y-13208000D02*
X60198000Y-13208000D01*
X60198000Y-13208000D02*
X60198000Y-13081000D01*
X60198000Y-13081000D02*
X50673000Y-3556000D01*
X50673000Y-3556000D02*
X43688000Y-3556000D01*
X43688000Y-3556000D02*
X40894000Y-762000D01*
X40005000Y-762000D02*
X39370000Y-127000D01*
X40894000Y-762000D02*
X40005000Y-762000D01*
X38227000Y-127000D02*
X36195000Y1905000D01*
X39370000Y-127000D02*
X38227000Y-127000D01*
%TO.N,PWM5*%
X68985000Y-20042000D02*
X68961000Y-20018000D01*
X68985000Y-20150500D02*
X68985000Y-20042000D01*
X68961000Y-20018000D02*
X68961000Y-15875000D01*
X68961000Y-15875000D02*
X66929000Y-13843000D01*
X66929000Y-13843000D02*
X59817000Y-13843000D01*
X59817000Y-13843000D02*
X50292000Y-4318000D01*
X38608000Y-4318000D02*
X32385000Y1905000D01*
X50292000Y-4318000D02*
X38608000Y-4318000D01*
%TO.N,PWM6*%
X68485000Y-20150500D02*
X68485000Y-16415000D01*
X68485000Y-16415000D02*
X66675000Y-14605000D01*
X66675000Y-14605000D02*
X59690000Y-14605000D01*
X59690000Y-14605000D02*
X50546000Y-5461000D01*
X35941000Y-5461000D02*
X28575000Y1905000D01*
X50546000Y-5461000D02*
X35941000Y-5461000D01*
%TO.N,PWM7*%
X67985000Y-20150500D02*
X67985000Y-16804000D01*
X67985000Y-16804000D02*
X66421000Y-15240000D01*
X66421000Y-15240000D02*
X59309000Y-15240000D01*
X59309000Y-15240000D02*
X50165000Y-6096000D01*
X50165000Y-6096000D02*
X33909000Y-6096000D01*
X33909000Y-6096000D02*
X29845000Y-2032000D01*
X28702000Y-2032000D02*
X24765000Y1905000D01*
X29845000Y-2032000D02*
X28702000Y-2032000D01*
%TO.N,PWM8*%
X65485000Y-19347298D02*
X65485000Y-20150500D01*
X21590000Y1905000D02*
X20955000Y1905000D01*
X30353000Y-6858000D02*
X21590000Y1905000D01*
X41402000Y-6985000D02*
X41275000Y-6858000D01*
X50038000Y-6985000D02*
X41402000Y-6985000D01*
X41275000Y-6858000D02*
X30353000Y-6858000D01*
X64643000Y-16002000D02*
X59055000Y-16002000D01*
X59055000Y-16002000D02*
X50038000Y-6985000D01*
X65485000Y-16844000D02*
X64643000Y-16002000D01*
X65485000Y-20150500D02*
X65485000Y-16844000D01*
%TO.N,PWM9*%
X64897000Y-17653000D02*
X64897000Y-17780000D01*
X65009990Y-17765990D02*
X64897000Y-17653000D01*
X64985000Y-19978000D02*
X65009990Y-19953010D01*
X65009990Y-19953010D02*
X65009990Y-17765990D01*
X64985000Y-20150500D02*
X64985000Y-19978000D01*
X64008000Y-16764000D02*
X64897000Y-17653000D01*
X63754000Y-16510000D02*
X64008000Y-16764000D01*
X58418590Y-16002000D02*
X58926590Y-16510000D01*
X58293000Y-16002000D02*
X58418590Y-16002000D01*
X51562000Y-9271000D02*
X58293000Y-16002000D01*
X58926590Y-16510000D02*
X63754000Y-16510000D01*
X27940000Y-9271000D02*
X51562000Y-9271000D01*
X17145000Y1524000D02*
X27940000Y-9271000D01*
X17145000Y1905000D02*
X17145000Y1524000D01*
%TO.N,USB_D-*%
X56447000Y-43758000D02*
X51619000Y-43758000D01*
X51619000Y-43758000D02*
X51181000Y-44196000D01*
X51181000Y-44196000D02*
X51181000Y-44196000D01*
X27686000Y-34671000D02*
X27940000Y-34417000D01*
X27686000Y-36322000D02*
X27686000Y-34671000D01*
%TO.N,USB_D+*%
X56423001Y-44358001D02*
X52796999Y-44358001D01*
X56447000Y-44382000D02*
X56423001Y-44358001D01*
X56447000Y-44558000D02*
X56447000Y-44382000D01*
X52796999Y-44358001D02*
X52197000Y-44958000D01*
X52197000Y-44958000D02*
X52197000Y-44958000D01*
X25146000Y-34798000D02*
X25019000Y-34671000D01*
X25146000Y-36322000D02*
X25146000Y-34798000D01*
%TO.N,Net-(R9-Pad2)*%
X49397000Y-39658000D02*
X49939000Y-39116000D01*
X49397000Y-40708000D02*
X49397000Y-39658000D01*
X49939000Y-39116000D02*
X50800000Y-39116000D01*
X50800000Y-39116000D02*
X50800000Y-39116000D01*
X84582000Y-37750500D02*
X85725000Y-36607500D01*
X84582000Y-38481000D02*
X84582000Y-37750500D01*
%TO.N,ProgrammerRx*%
X85725000Y-34607500D02*
X85725000Y-33401000D01*
X85725000Y-33401000D02*
X84518500Y-32194500D01*
X84518500Y-32194500D02*
X84455000Y-32131000D01*
X85370501Y-19404499D02*
X85370501Y-17499499D01*
X83947000Y-20828000D02*
X85370501Y-19404499D01*
X85370501Y-17499499D02*
X85471000Y-17399000D01*
X85471000Y-17399000D02*
X85471000Y-15748000D01*
X85471000Y-15748000D02*
X85090000Y-15367000D01*
X75460010Y-20130010D02*
X75460010Y-17040010D01*
X75480500Y-20150500D02*
X75460010Y-20130010D01*
X75485000Y-20150500D02*
X75480500Y-20150500D01*
X77133020Y-15367000D02*
X77851000Y-15367000D01*
X77851000Y-15367000D02*
X77597000Y-15367000D01*
X75460010Y-17040010D02*
X77133020Y-15367000D01*
X85090000Y-15367000D02*
X77851000Y-15367000D01*
%TO.N,Net-(R10-Pad2)*%
X48997000Y-42158000D02*
X50019000Y-43180000D01*
X47947000Y-42158000D02*
X48997000Y-42158000D01*
X50019000Y-43180000D02*
X50292000Y-43180000D01*
X50292000Y-43180000D02*
X50292000Y-43180000D01*
X88281000Y-36560000D02*
X88646000Y-36560000D01*
X86233000Y-38608000D02*
X88281000Y-36560000D01*
%TO.N,ProgrammerTx*%
X88646000Y-34560000D02*
X88646000Y-33655000D01*
X88646000Y-33655000D02*
X85725000Y-30734000D01*
X85725000Y-30734000D02*
X85725000Y-30734000D01*
X84645500Y-16700500D02*
X78676500Y-16700500D01*
X78676500Y-16700500D02*
X78232000Y-16256000D01*
X75960010Y-20125510D02*
X75985000Y-20150500D01*
X75960010Y-18216988D02*
X75960010Y-20125510D01*
X77920998Y-16256000D02*
X75960010Y-18216988D01*
X78232000Y-16256000D02*
X77920998Y-16256000D01*
%TO.N,2560_CS*%
X25495000Y-26098500D02*
X26225500Y-26098500D01*
X25495000Y-26098500D02*
X26606500Y-26098500D01*
X26606500Y-26098500D02*
X27813000Y-27305000D01*
X27813000Y-27305000D02*
X27813000Y-27305000D01*
X55880000Y-21844000D02*
X57277000Y-21844000D01*
X57277000Y-21844000D02*
X59944000Y-19177000D01*
X67485000Y-19347298D02*
X67437000Y-19299298D01*
X67485000Y-20150500D02*
X67485000Y-19347298D01*
X67437000Y-19299298D02*
X67437000Y-17907000D01*
X67437000Y-17907000D02*
X67183000Y-17653000D01*
X67183000Y-17653000D02*
X67183000Y-17653000D01*
X59944000Y-19177000D02*
X62865000Y-19177000D01*
X62865000Y-19177000D02*
X63627000Y-18415000D01*
X63627000Y-18415000D02*
X63627000Y-18415000D01*
%TO.N,Int0_A*%
X77344298Y-27313000D02*
X75946000Y-25914702D01*
X78147500Y-27313000D02*
X77344298Y-27313000D01*
X75946000Y-25914702D02*
X75946000Y-25400000D01*
X75946000Y-25400000D02*
X75184000Y-24638000D01*
X75184000Y-24638000D02*
X75184000Y-24638000D01*
X75184000Y-24638000D02*
X75057000Y-24638000D01*
X75057000Y-24638000D02*
X74358500Y-23939500D01*
X74358500Y-23939500D02*
X74295000Y-23876000D01*
X74295000Y-23876000D02*
X74295000Y-23876000D01*
%TO.N,Int0_B*%
X77826010Y-27788010D02*
X76175010Y-27788010D01*
X77851000Y-27813000D02*
X77826010Y-27788010D01*
X78147500Y-27813000D02*
X77851000Y-27813000D01*
X76175010Y-27788010D02*
X74295000Y-25908000D01*
X74295000Y-25908000D02*
X74295000Y-25908000D01*
X74295000Y-25908000D02*
X74295000Y-25781000D01*
X74295000Y-25781000D02*
X73660000Y-25146000D01*
X73660000Y-25146000D02*
X73660000Y-25146000D01*
X71882000Y-25146000D02*
X71755000Y-25146000D01*
X72009000Y-25146000D02*
X70485000Y-25146000D01*
X73660000Y-25146000D02*
X72009000Y-25146000D01*
X72009000Y-25146000D02*
X71882000Y-25146000D01*
X70485000Y-25146000D02*
X70358000Y-25146000D01*
%TO.N,Int2_A*%
X78129000Y-29313000D02*
X78105000Y-29337000D01*
X78147500Y-29313000D02*
X78129000Y-29313000D01*
X78147500Y-29313000D02*
X79145000Y-29313000D01*
X79145000Y-29313000D02*
X80137000Y-28321000D01*
X80137000Y-27813000D02*
X80137000Y-28321000D01*
%TO.N,Int2_B*%
X78147500Y-29802500D02*
X78133010Y-29788010D01*
X78147500Y-29813000D02*
X78147500Y-29802500D01*
X78147500Y-29813000D02*
X76486000Y-29813000D01*
X76486000Y-29813000D02*
X75025000Y-29813000D01*
X75025000Y-29813000D02*
X75025000Y-29813000D01*
D40*
%TO.N,Net-(JP4-Pad2)*%
X75819000Y1785000D02*
X75431000Y1785000D01*
X75431000Y1785000D02*
X73660000Y3556000D01*
X73660000Y3556000D02*
X73660000Y6858000D01*
X74676000Y7874000D02*
X76200000Y7874000D01*
X73660000Y6858000D02*
X74676000Y7874000D01*
%TO.N,Net-(Anemometer1-Pad4)*%
X96901000Y2039000D02*
X98051000Y2039000D01*
X98051000Y2039000D02*
X99060000Y3048000D01*
X98024000Y7874000D02*
X96774000Y7874000D01*
X99060000Y6838000D02*
X98024000Y7874000D01*
X99060000Y3048000D02*
X99060000Y6838000D01*
%TO.N,Net-(BNO55-Pad4)*%
X69215000Y1912000D02*
X68700000Y1912000D01*
X69215000Y1912000D02*
X70746000Y1912000D01*
X70746000Y1912000D02*
X72644000Y3810000D01*
X72644000Y3810000D02*
X72644000Y6858000D01*
X71658000Y7844000D02*
X69596000Y7844000D01*
X72644000Y6858000D02*
X71658000Y7844000D01*
%TO.N,Net-(Extra1-Pad4)*%
X103505000Y1865000D02*
X102529000Y1865000D01*
X102529000Y1865000D02*
X100838000Y3556000D01*
X100838000Y6330000D02*
X102382000Y7874000D01*
X102382000Y7874000D02*
X103632000Y7874000D01*
X100838000Y3556000D02*
X100838000Y6330000D01*
%TO.N,Net-(Extra2-Pad4)*%
X110109000Y1865000D02*
X111085000Y1865000D01*
X111085000Y1865000D02*
X112776000Y3556000D01*
X111486000Y7874000D02*
X110236000Y7874000D01*
X112776000Y6584000D02*
X111486000Y7874000D01*
X112776000Y3556000D02*
X112776000Y6584000D01*
%TO.N,Net-(GPS1-Pad4)*%
X62865000Y1912000D02*
X61080000Y1912000D01*
X61080000Y1912000D02*
X59944000Y3048000D01*
X59944000Y3048000D02*
X59944000Y6858000D01*
X60930000Y7844000D02*
X62992000Y7844000D01*
X59944000Y6858000D02*
X60930000Y7844000D01*
%TO.N,Net-(JP2-Pad2)*%
X89535000Y1912000D02*
X88258000Y1912000D01*
X88258000Y1912000D02*
X86614000Y3556000D01*
X86614000Y3556000D02*
X86614000Y6604000D01*
X87884000Y7874000D02*
X89662000Y7874000D01*
X86614000Y6604000D02*
X87884000Y7874000D01*
%TO.N,Net-(JP8-Pad2)*%
X82677000Y1825000D02*
X83359000Y1825000D01*
X83359000Y1825000D02*
X85090000Y3556000D01*
X85090000Y3556000D02*
X85090000Y7366000D01*
X84552000Y7904000D02*
X82550000Y7904000D01*
X85090000Y7366000D02*
X84552000Y7904000D01*
D41*
%TO.N,USB_VIN*%
X98399000Y-22232000D02*
X98399000Y-22124000D01*
D36*
X110593000Y-15239000D02*
X110593000Y-24639000D01*
D41*
X74850500Y-46609000D02*
X74850500Y-49149000D01*
D40*
X82580000Y9174000D02*
X82550000Y9204000D01*
X69626000Y9174000D02*
X69596000Y9144000D01*
D36*
X17145000Y4445000D02*
X20955000Y4445000D01*
X20955000Y4445000D02*
X24765000Y4445000D01*
X24765000Y4445000D02*
X28575000Y4445000D01*
X28575000Y4445000D02*
X32385000Y4445000D01*
X32385000Y4445000D02*
X36195000Y4445000D01*
X36195000Y4445000D02*
X40005000Y4445000D01*
X40005000Y4445000D02*
X43815000Y4445000D01*
X43815000Y4445000D02*
X47625000Y4445000D01*
X47625000Y4445000D02*
X51435000Y4445000D01*
D41*
X35703000Y-45339000D02*
X35766500Y-45402500D01*
X35703000Y-40703500D02*
X35703000Y-45339000D01*
X35766500Y-49466500D02*
X35830000Y-49530000D01*
X41105000Y-49276000D02*
X40640000Y-49276000D01*
X38814500Y-47450500D02*
X35766500Y-47450500D01*
X40640000Y-49276000D02*
X38814500Y-47450500D01*
X35766500Y-47450500D02*
X35766500Y-49466500D01*
X35766500Y-45402500D02*
X35766500Y-47450500D01*
D36*
X17145000Y4445000D02*
X15875000Y4445000D01*
X15875000Y4445000D02*
X14732000Y5588000D01*
X14732000Y5588000D02*
X14732000Y8890000D01*
X14986000Y9144000D02*
X62992000Y9144000D01*
X14732000Y8890000D02*
X14986000Y9144000D01*
X62992000Y9144000D02*
X69596000Y9144000D01*
X76170000Y9144000D02*
X76200000Y9174000D01*
X69596000Y9144000D02*
X76170000Y9144000D01*
X82520000Y9174000D02*
X82550000Y9204000D01*
X76200000Y9174000D02*
X82520000Y9174000D01*
X89632000Y9204000D02*
X89662000Y9174000D01*
X82550000Y9204000D02*
X89632000Y9204000D01*
X89662000Y9174000D02*
X96774000Y9174000D01*
X96774000Y9174000D02*
X103632000Y9174000D01*
X103632000Y9174000D02*
X110236000Y9174000D01*
X123190000Y-21590000D02*
X123190000Y-13208000D01*
X123190000Y-13208000D02*
X123190000Y-4826000D01*
X111529517Y9174000D02*
X110236000Y9174000D01*
X123190000Y-2486483D02*
X111529517Y9174000D01*
X123190000Y-4826000D02*
X123190000Y-2486483D01*
X123190000Y-21590000D02*
X123190000Y-22479000D01*
X121030000Y-24639000D02*
X110593000Y-24639000D01*
X123190000Y-22479000D02*
X121030000Y-24639000D01*
X96426000Y-24639000D02*
X96299000Y-24512000D01*
X110593000Y-24639000D02*
X96426000Y-24639000D01*
D35*
X110593000Y-24639000D02*
X113793000Y-24639000D01*
X112650000Y-24639000D02*
X115697000Y-27686000D01*
D39*
X69485000Y-35475500D02*
X69485000Y-37100000D01*
X71374000Y-50292000D02*
X71755000Y-50673000D01*
X71755000Y-50673000D02*
X74041000Y-50673000D01*
X74850500Y-49863500D02*
X74850500Y-49149000D01*
X74041000Y-50673000D02*
X74850500Y-49863500D01*
X56447000Y-42158000D02*
X56447000Y-42958000D01*
X71114000Y-42158000D02*
X71374000Y-42418000D01*
X71374000Y-42418000D02*
X71374000Y-50292000D01*
X71374000Y-38989000D02*
X71374000Y-42418000D01*
D40*
X96299000Y-24512000D02*
X89768998Y-24512000D01*
X82909500Y-22352000D02*
X81639500Y-21082000D01*
X78247510Y-21712990D02*
X78147500Y-21712990D01*
X78878500Y-21082000D02*
X78247510Y-21712990D01*
X81639500Y-21082000D02*
X78878500Y-21082000D01*
D39*
X82550000Y-34322000D02*
X82201000Y-34322000D01*
X79692000Y-31813000D02*
X78147500Y-31813000D01*
X82201000Y-34322000D02*
X79692000Y-31813000D01*
D42*
X81915000Y-33687000D02*
X82550000Y-34322000D01*
D39*
X70491998Y-31813000D02*
X70300998Y-32004000D01*
X78147500Y-31813000D02*
X70491998Y-31813000D01*
X70300998Y-32004000D02*
X69723000Y-32004000D01*
X69485000Y-32242000D02*
X69485000Y-35475500D01*
X69723000Y-32004000D02*
X69485000Y-32242000D01*
X18891000Y-35846000D02*
X19558000Y-35179000D01*
X16129000Y-35846000D02*
X18891000Y-35846000D01*
D40*
X16129000Y-35846000D02*
X15208000Y-35846000D01*
X15208000Y-35846000D02*
X14732000Y-36322000D01*
X14732000Y-36322000D02*
X14732000Y-51435000D01*
X14732000Y-51435000D02*
X15875000Y-52578000D01*
X32782000Y-52578000D02*
X35830000Y-49530000D01*
X15875000Y-52578000D02*
X32782000Y-52578000D01*
D39*
X52597000Y-40708000D02*
X52597000Y-41548000D01*
X52597000Y-41548000D02*
X53594000Y-42545000D01*
X55207002Y-42158000D02*
X56447000Y-42158000D01*
X54820002Y-42545000D02*
X55207002Y-42158000D01*
X53594000Y-42545000D02*
X54820002Y-42545000D01*
X41105000Y-49276000D02*
X42375000Y-50546000D01*
X42375000Y-50546000D02*
X44958000Y-50546000D01*
X44958000Y-50546000D02*
X45720000Y-49784000D01*
X45720000Y-49784000D02*
X45720000Y-49784000D01*
X58801000Y-42279000D02*
X58680000Y-42158000D01*
X58680000Y-42158000D02*
X71114000Y-42158000D01*
X58801000Y-44450000D02*
X58801000Y-42279000D01*
X56447000Y-42158000D02*
X58680000Y-42158000D01*
X71985000Y-20953702D02*
X72644000Y-21612702D01*
X71985000Y-20150500D02*
X71985000Y-20953702D01*
X75742596Y-21813000D02*
X78147500Y-21813000D01*
X75542298Y-21612702D02*
X75742596Y-21813000D01*
X72644000Y-21612702D02*
X75542298Y-21612702D01*
X63762112Y-24313000D02*
X64738556Y-23336556D01*
X62822500Y-24313000D02*
X63762112Y-24313000D01*
X64770000Y-23305112D02*
X64770000Y-22860000D01*
X70231000Y-37846000D02*
X69850000Y-37846000D01*
X69485000Y-37100000D02*
X69977000Y-37592000D01*
X70231000Y-37846000D02*
X71374000Y-38989000D01*
X69977000Y-37592000D02*
X70231000Y-37846000D01*
X64738556Y-23336556D02*
X64770000Y-23305112D01*
D40*
X82909500Y-22352000D02*
X82909500Y-23346500D01*
X82909500Y-23346500D02*
X83820000Y-24257000D01*
X83820000Y-24257000D02*
X84836000Y-24257000D01*
X86350499Y-25771499D02*
X86350499Y-27930499D01*
X84836000Y-24257000D02*
X86350499Y-25771499D01*
X86350499Y-27930499D02*
X85578998Y-28702000D01*
X89768998Y-24512000D02*
X86350499Y-27930499D01*
X82550000Y-34322000D02*
X82550000Y-32258000D01*
X85578998Y-29229002D02*
X85578998Y-28702000D01*
X82550000Y-32258000D02*
X85578998Y-29229002D01*
D36*
%TO.N,Net-(J5-Pad1)*%
X89999000Y-26792000D02*
X92671000Y-29464000D01*
X101748000Y-29464000D02*
X104293000Y-26919000D01*
X92671000Y-29464000D02*
X101748000Y-29464000D01*
X103759000Y-19558000D02*
X103505000Y-19304000D01*
X106299000Y-19558000D02*
X103759000Y-19558000D01*
X104293000Y-18516000D02*
X103505000Y-19304000D01*
X104293000Y-17519000D02*
X104293000Y-18516000D01*
X104521000Y-17747000D02*
X104293000Y-17519000D01*
X104521000Y-19304000D02*
X104521000Y-17747000D01*
%TD*%
M02*
