%TF.GenerationSoftware,KiCad,Pcbnew,(5.1.9)-1*%
%TF.CreationDate,2021-03-02T01:46:48-05:00*%
%TF.ProjectId,sailboatController,7361696c-626f-4617-9443-6f6e74726f6c,rev?*%
%TF.SameCoordinates,Original*%
%TF.FileFunction,Soldermask,Top*%
%TF.FilePolarity,Negative*%
%FSLAX46Y46*%
G04 Gerber Fmt 4.6, Leading zero omitted, Abs format (unit mm)*
G04 Created by KiCad (PCBNEW (5.1.9)-1) date 2021-03-02 01:46:48*
%MOMM*%
%LPD*%
G01*
G04 APERTURE LIST*
%ADD10O,1.700000X1.700000*%
%ADD11R,1.700000X1.700000*%
%ADD12C,0.100000*%
%ADD13R,1.500000X1.000000*%
%ADD14C,1.600000*%
%ADD15R,1.600000X1.600000*%
%ADD16C,0.800000*%
%ADD17C,7.000000*%
%ADD18O,1.950000X1.700000*%
%ADD19C,2.000000*%
%ADD20R,6.400000X5.800000*%
%ADD21R,2.200000X1.200000*%
%ADD22R,0.550000X1.600000*%
%ADD23R,1.600000X0.550000*%
%ADD24R,1.900000X1.300000*%
%ADD25R,2.800000X1.000000*%
%ADD26R,0.800000X1.000000*%
%ADD27R,1.200000X1.000000*%
%ADD28R,1.200000X0.700000*%
%ADD29C,0.650000*%
%ADD30O,0.950000X0.650000*%
%ADD31O,0.800000X1.400000*%
%ADD32R,0.300000X0.700000*%
%ADD33C,1.500000*%
G04 APERTURE END LIST*
D10*
%TO.C,J5*%
X114808000Y-49149000D03*
D11*
X112268000Y-49149000D03*
%TD*%
%TO.C,C12*%
G36*
G01*
X83787000Y-26728000D02*
X82837000Y-26728000D01*
G75*
G02*
X82587000Y-26478000I0J250000D01*
G01*
X82587000Y-25803000D01*
G75*
G02*
X82837000Y-25553000I250000J0D01*
G01*
X83787000Y-25553000D01*
G75*
G02*
X84037000Y-25803000I0J-250000D01*
G01*
X84037000Y-26478000D01*
G75*
G02*
X83787000Y-26728000I-250000J0D01*
G01*
G37*
G36*
G01*
X83787000Y-28803000D02*
X82837000Y-28803000D01*
G75*
G02*
X82587000Y-28553000I0J250000D01*
G01*
X82587000Y-27878000D01*
G75*
G02*
X82837000Y-27628000I250000J0D01*
G01*
X83787000Y-27628000D01*
G75*
G02*
X84037000Y-27878000I0J-250000D01*
G01*
X84037000Y-28553000D01*
G75*
G02*
X83787000Y-28803000I-250000J0D01*
G01*
G37*
%TD*%
D12*
%TO.C,JP9*%
G36*
X70346000Y7094000D02*
G01*
X70346000Y6544000D01*
X70345398Y6544000D01*
X70345398Y6519466D01*
X70340588Y6470635D01*
X70331016Y6422510D01*
X70316772Y6375555D01*
X70297995Y6330222D01*
X70274864Y6286949D01*
X70247604Y6246150D01*
X70216476Y6208221D01*
X70181779Y6173524D01*
X70143850Y6142396D01*
X70103051Y6115136D01*
X70059778Y6092005D01*
X70014445Y6073228D01*
X69967490Y6058984D01*
X69919365Y6049412D01*
X69870534Y6044602D01*
X69846000Y6044602D01*
X69846000Y6044000D01*
X69346000Y6044000D01*
X69346000Y6044602D01*
X69321466Y6044602D01*
X69272635Y6049412D01*
X69224510Y6058984D01*
X69177555Y6073228D01*
X69132222Y6092005D01*
X69088949Y6115136D01*
X69048150Y6142396D01*
X69010221Y6173524D01*
X68975524Y6208221D01*
X68944396Y6246150D01*
X68917136Y6286949D01*
X68894005Y6330222D01*
X68875228Y6375555D01*
X68860984Y6422510D01*
X68851412Y6470635D01*
X68846602Y6519466D01*
X68846602Y6544000D01*
X68846000Y6544000D01*
X68846000Y7094000D01*
X70346000Y7094000D01*
G37*
D13*
X69596000Y7844000D03*
D12*
G36*
X68846602Y9144000D02*
G01*
X68846602Y9168534D01*
X68851412Y9217365D01*
X68860984Y9265490D01*
X68875228Y9312445D01*
X68894005Y9357778D01*
X68917136Y9401051D01*
X68944396Y9441850D01*
X68975524Y9479779D01*
X69010221Y9514476D01*
X69048150Y9545604D01*
X69088949Y9572864D01*
X69132222Y9595995D01*
X69177555Y9614772D01*
X69224510Y9629016D01*
X69272635Y9638588D01*
X69321466Y9643398D01*
X69346000Y9643398D01*
X69346000Y9644000D01*
X69846000Y9644000D01*
X69846000Y9643398D01*
X69870534Y9643398D01*
X69919365Y9638588D01*
X69967490Y9629016D01*
X70014445Y9614772D01*
X70059778Y9595995D01*
X70103051Y9572864D01*
X70143850Y9545604D01*
X70181779Y9514476D01*
X70216476Y9479779D01*
X70247604Y9441850D01*
X70274864Y9401051D01*
X70297995Y9357778D01*
X70316772Y9312445D01*
X70331016Y9265490D01*
X70340588Y9217365D01*
X70345398Y9168534D01*
X70345398Y9144000D01*
X70346000Y9144000D01*
X70346000Y8594000D01*
X68846000Y8594000D01*
X68846000Y9144000D01*
X68846602Y9144000D01*
G37*
%TD*%
%TO.C,JP8*%
G36*
X83300000Y7154000D02*
G01*
X83300000Y6604000D01*
X83299398Y6604000D01*
X83299398Y6579466D01*
X83294588Y6530635D01*
X83285016Y6482510D01*
X83270772Y6435555D01*
X83251995Y6390222D01*
X83228864Y6346949D01*
X83201604Y6306150D01*
X83170476Y6268221D01*
X83135779Y6233524D01*
X83097850Y6202396D01*
X83057051Y6175136D01*
X83013778Y6152005D01*
X82968445Y6133228D01*
X82921490Y6118984D01*
X82873365Y6109412D01*
X82824534Y6104602D01*
X82800000Y6104602D01*
X82800000Y6104000D01*
X82300000Y6104000D01*
X82300000Y6104602D01*
X82275466Y6104602D01*
X82226635Y6109412D01*
X82178510Y6118984D01*
X82131555Y6133228D01*
X82086222Y6152005D01*
X82042949Y6175136D01*
X82002150Y6202396D01*
X81964221Y6233524D01*
X81929524Y6268221D01*
X81898396Y6306150D01*
X81871136Y6346949D01*
X81848005Y6390222D01*
X81829228Y6435555D01*
X81814984Y6482510D01*
X81805412Y6530635D01*
X81800602Y6579466D01*
X81800602Y6604000D01*
X81800000Y6604000D01*
X81800000Y7154000D01*
X83300000Y7154000D01*
G37*
D13*
X82550000Y7904000D03*
D12*
G36*
X81800602Y9204000D02*
G01*
X81800602Y9228534D01*
X81805412Y9277365D01*
X81814984Y9325490D01*
X81829228Y9372445D01*
X81848005Y9417778D01*
X81871136Y9461051D01*
X81898396Y9501850D01*
X81929524Y9539779D01*
X81964221Y9574476D01*
X82002150Y9605604D01*
X82042949Y9632864D01*
X82086222Y9655995D01*
X82131555Y9674772D01*
X82178510Y9689016D01*
X82226635Y9698588D01*
X82275466Y9703398D01*
X82300000Y9703398D01*
X82300000Y9704000D01*
X82800000Y9704000D01*
X82800000Y9703398D01*
X82824534Y9703398D01*
X82873365Y9698588D01*
X82921490Y9689016D01*
X82968445Y9674772D01*
X83013778Y9655995D01*
X83057051Y9632864D01*
X83097850Y9605604D01*
X83135779Y9574476D01*
X83170476Y9539779D01*
X83201604Y9501850D01*
X83228864Y9461051D01*
X83251995Y9417778D01*
X83270772Y9372445D01*
X83285016Y9325490D01*
X83294588Y9277365D01*
X83299398Y9228534D01*
X83299398Y9204000D01*
X83300000Y9204000D01*
X83300000Y8654000D01*
X81800000Y8654000D01*
X81800000Y9204000D01*
X81800602Y9204000D01*
G37*
%TD*%
%TO.C,JP7*%
G36*
X110986000Y7124000D02*
G01*
X110986000Y6574000D01*
X110985398Y6574000D01*
X110985398Y6549466D01*
X110980588Y6500635D01*
X110971016Y6452510D01*
X110956772Y6405555D01*
X110937995Y6360222D01*
X110914864Y6316949D01*
X110887604Y6276150D01*
X110856476Y6238221D01*
X110821779Y6203524D01*
X110783850Y6172396D01*
X110743051Y6145136D01*
X110699778Y6122005D01*
X110654445Y6103228D01*
X110607490Y6088984D01*
X110559365Y6079412D01*
X110510534Y6074602D01*
X110486000Y6074602D01*
X110486000Y6074000D01*
X109986000Y6074000D01*
X109986000Y6074602D01*
X109961466Y6074602D01*
X109912635Y6079412D01*
X109864510Y6088984D01*
X109817555Y6103228D01*
X109772222Y6122005D01*
X109728949Y6145136D01*
X109688150Y6172396D01*
X109650221Y6203524D01*
X109615524Y6238221D01*
X109584396Y6276150D01*
X109557136Y6316949D01*
X109534005Y6360222D01*
X109515228Y6405555D01*
X109500984Y6452510D01*
X109491412Y6500635D01*
X109486602Y6549466D01*
X109486602Y6574000D01*
X109486000Y6574000D01*
X109486000Y7124000D01*
X110986000Y7124000D01*
G37*
D13*
X110236000Y7874000D03*
D12*
G36*
X109486602Y9174000D02*
G01*
X109486602Y9198534D01*
X109491412Y9247365D01*
X109500984Y9295490D01*
X109515228Y9342445D01*
X109534005Y9387778D01*
X109557136Y9431051D01*
X109584396Y9471850D01*
X109615524Y9509779D01*
X109650221Y9544476D01*
X109688150Y9575604D01*
X109728949Y9602864D01*
X109772222Y9625995D01*
X109817555Y9644772D01*
X109864510Y9659016D01*
X109912635Y9668588D01*
X109961466Y9673398D01*
X109986000Y9673398D01*
X109986000Y9674000D01*
X110486000Y9674000D01*
X110486000Y9673398D01*
X110510534Y9673398D01*
X110559365Y9668588D01*
X110607490Y9659016D01*
X110654445Y9644772D01*
X110699778Y9625995D01*
X110743051Y9602864D01*
X110783850Y9575604D01*
X110821779Y9544476D01*
X110856476Y9509779D01*
X110887604Y9471850D01*
X110914864Y9431051D01*
X110937995Y9387778D01*
X110956772Y9342445D01*
X110971016Y9295490D01*
X110980588Y9247365D01*
X110985398Y9198534D01*
X110985398Y9174000D01*
X110986000Y9174000D01*
X110986000Y8624000D01*
X109486000Y8624000D01*
X109486000Y9174000D01*
X109486602Y9174000D01*
G37*
%TD*%
%TO.C,JP6*%
G36*
X104382000Y7124000D02*
G01*
X104382000Y6574000D01*
X104381398Y6574000D01*
X104381398Y6549466D01*
X104376588Y6500635D01*
X104367016Y6452510D01*
X104352772Y6405555D01*
X104333995Y6360222D01*
X104310864Y6316949D01*
X104283604Y6276150D01*
X104252476Y6238221D01*
X104217779Y6203524D01*
X104179850Y6172396D01*
X104139051Y6145136D01*
X104095778Y6122005D01*
X104050445Y6103228D01*
X104003490Y6088984D01*
X103955365Y6079412D01*
X103906534Y6074602D01*
X103882000Y6074602D01*
X103882000Y6074000D01*
X103382000Y6074000D01*
X103382000Y6074602D01*
X103357466Y6074602D01*
X103308635Y6079412D01*
X103260510Y6088984D01*
X103213555Y6103228D01*
X103168222Y6122005D01*
X103124949Y6145136D01*
X103084150Y6172396D01*
X103046221Y6203524D01*
X103011524Y6238221D01*
X102980396Y6276150D01*
X102953136Y6316949D01*
X102930005Y6360222D01*
X102911228Y6405555D01*
X102896984Y6452510D01*
X102887412Y6500635D01*
X102882602Y6549466D01*
X102882602Y6574000D01*
X102882000Y6574000D01*
X102882000Y7124000D01*
X104382000Y7124000D01*
G37*
D13*
X103632000Y7874000D03*
D12*
G36*
X102882602Y9174000D02*
G01*
X102882602Y9198534D01*
X102887412Y9247365D01*
X102896984Y9295490D01*
X102911228Y9342445D01*
X102930005Y9387778D01*
X102953136Y9431051D01*
X102980396Y9471850D01*
X103011524Y9509779D01*
X103046221Y9544476D01*
X103084150Y9575604D01*
X103124949Y9602864D01*
X103168222Y9625995D01*
X103213555Y9644772D01*
X103260510Y9659016D01*
X103308635Y9668588D01*
X103357466Y9673398D01*
X103382000Y9673398D01*
X103382000Y9674000D01*
X103882000Y9674000D01*
X103882000Y9673398D01*
X103906534Y9673398D01*
X103955365Y9668588D01*
X104003490Y9659016D01*
X104050445Y9644772D01*
X104095778Y9625995D01*
X104139051Y9602864D01*
X104179850Y9575604D01*
X104217779Y9544476D01*
X104252476Y9509779D01*
X104283604Y9471850D01*
X104310864Y9431051D01*
X104333995Y9387778D01*
X104352772Y9342445D01*
X104367016Y9295490D01*
X104376588Y9247365D01*
X104381398Y9198534D01*
X104381398Y9174000D01*
X104382000Y9174000D01*
X104382000Y8624000D01*
X102882000Y8624000D01*
X102882000Y9174000D01*
X102882602Y9174000D01*
G37*
%TD*%
%TO.C,JP5*%
G36*
X63742000Y7094000D02*
G01*
X63742000Y6544000D01*
X63741398Y6544000D01*
X63741398Y6519466D01*
X63736588Y6470635D01*
X63727016Y6422510D01*
X63712772Y6375555D01*
X63693995Y6330222D01*
X63670864Y6286949D01*
X63643604Y6246150D01*
X63612476Y6208221D01*
X63577779Y6173524D01*
X63539850Y6142396D01*
X63499051Y6115136D01*
X63455778Y6092005D01*
X63410445Y6073228D01*
X63363490Y6058984D01*
X63315365Y6049412D01*
X63266534Y6044602D01*
X63242000Y6044602D01*
X63242000Y6044000D01*
X62742000Y6044000D01*
X62742000Y6044602D01*
X62717466Y6044602D01*
X62668635Y6049412D01*
X62620510Y6058984D01*
X62573555Y6073228D01*
X62528222Y6092005D01*
X62484949Y6115136D01*
X62444150Y6142396D01*
X62406221Y6173524D01*
X62371524Y6208221D01*
X62340396Y6246150D01*
X62313136Y6286949D01*
X62290005Y6330222D01*
X62271228Y6375555D01*
X62256984Y6422510D01*
X62247412Y6470635D01*
X62242602Y6519466D01*
X62242602Y6544000D01*
X62242000Y6544000D01*
X62242000Y7094000D01*
X63742000Y7094000D01*
G37*
D13*
X62992000Y7844000D03*
D12*
G36*
X62242602Y9144000D02*
G01*
X62242602Y9168534D01*
X62247412Y9217365D01*
X62256984Y9265490D01*
X62271228Y9312445D01*
X62290005Y9357778D01*
X62313136Y9401051D01*
X62340396Y9441850D01*
X62371524Y9479779D01*
X62406221Y9514476D01*
X62444150Y9545604D01*
X62484949Y9572864D01*
X62528222Y9595995D01*
X62573555Y9614772D01*
X62620510Y9629016D01*
X62668635Y9638588D01*
X62717466Y9643398D01*
X62742000Y9643398D01*
X62742000Y9644000D01*
X63242000Y9644000D01*
X63242000Y9643398D01*
X63266534Y9643398D01*
X63315365Y9638588D01*
X63363490Y9629016D01*
X63410445Y9614772D01*
X63455778Y9595995D01*
X63499051Y9572864D01*
X63539850Y9545604D01*
X63577779Y9514476D01*
X63612476Y9479779D01*
X63643604Y9441850D01*
X63670864Y9401051D01*
X63693995Y9357778D01*
X63712772Y9312445D01*
X63727016Y9265490D01*
X63736588Y9217365D01*
X63741398Y9168534D01*
X63741398Y9144000D01*
X63742000Y9144000D01*
X63742000Y8594000D01*
X62242000Y8594000D01*
X62242000Y9144000D01*
X62242602Y9144000D01*
G37*
%TD*%
D14*
%TO.C,Cb3*%
X120690000Y-21590000D03*
D15*
X123190000Y-21590000D03*
%TD*%
D14*
%TO.C,Cb2*%
X120690000Y-13208000D03*
D15*
X123190000Y-13208000D03*
%TD*%
D14*
%TO.C,Cb1*%
X120690000Y-4826000D03*
D15*
X123190000Y-4826000D03*
%TD*%
D16*
%TO.C,H4*%
X125046155Y8206155D03*
X123190000Y8975000D03*
X121333845Y8206155D03*
X120565000Y6350000D03*
X121333845Y4493845D03*
X123190000Y3725000D03*
X125046155Y4493845D03*
X125815000Y6350000D03*
D17*
X123190000Y6350000D03*
%TD*%
D16*
%TO.C,H3*%
X9857155Y8206155D03*
X8001000Y8975000D03*
X6144845Y8206155D03*
X5376000Y6350000D03*
X6144845Y4493845D03*
X8001000Y3725000D03*
X9857155Y4493845D03*
X10626000Y6350000D03*
D17*
X8001000Y6350000D03*
%TD*%
D16*
%TO.C,H2*%
X9857155Y-46403845D03*
X8001000Y-45635000D03*
X6144845Y-46403845D03*
X5376000Y-48260000D03*
X6144845Y-50116155D03*
X8001000Y-50885000D03*
X9857155Y-50116155D03*
X10626000Y-48260000D03*
D17*
X8001000Y-48260000D03*
%TD*%
D16*
%TO.C,H1*%
X125046155Y-46403845D03*
X123190000Y-45635000D03*
X121333845Y-46403845D03*
X120565000Y-48260000D03*
X121333845Y-50116155D03*
X123190000Y-50885000D03*
X125046155Y-50116155D03*
X125815000Y-48260000D03*
D17*
X123190000Y-48260000D03*
%TD*%
D18*
%TO.C,Windvane1*%
X89535000Y1912000D03*
X89535000Y-588000D03*
X89535000Y-3088000D03*
G36*
G01*
X90260000Y-6438000D02*
X88810000Y-6438000D01*
G75*
G02*
X88560000Y-6188000I0J250000D01*
G01*
X88560000Y-4988000D01*
G75*
G02*
X88810000Y-4738000I250000J0D01*
G01*
X90260000Y-4738000D01*
G75*
G02*
X90510000Y-4988000I0J-250000D01*
G01*
X90510000Y-6188000D01*
G75*
G02*
X90260000Y-6438000I-250000J0D01*
G01*
G37*
%TD*%
%TO.C,Transceiver1*%
X82677000Y1825000D03*
X82677000Y-675000D03*
X82677000Y-3175000D03*
G36*
G01*
X83402000Y-6525000D02*
X81952000Y-6525000D01*
G75*
G02*
X81702000Y-6275000I0J250000D01*
G01*
X81702000Y-5075000D01*
G75*
G02*
X81952000Y-4825000I250000J0D01*
G01*
X83402000Y-4825000D01*
G75*
G02*
X83652000Y-5075000I0J-250000D01*
G01*
X83652000Y-6275000D01*
G75*
G02*
X83402000Y-6525000I-250000J0D01*
G01*
G37*
%TD*%
%TO.C,GPS1*%
X62865000Y1912000D03*
X62865000Y-588000D03*
X62865000Y-3088000D03*
G36*
G01*
X63590000Y-6438000D02*
X62140000Y-6438000D01*
G75*
G02*
X61890000Y-6188000I0J250000D01*
G01*
X61890000Y-4988000D01*
G75*
G02*
X62140000Y-4738000I250000J0D01*
G01*
X63590000Y-4738000D01*
G75*
G02*
X63840000Y-4988000I0J-250000D01*
G01*
X63840000Y-6188000D01*
G75*
G02*
X63590000Y-6438000I-250000J0D01*
G01*
G37*
%TD*%
%TO.C,extraSerial1*%
X75819000Y1785000D03*
X75819000Y-715000D03*
X75819000Y-3215000D03*
G36*
G01*
X76544000Y-6565000D02*
X75094000Y-6565000D01*
G75*
G02*
X74844000Y-6315000I0J250000D01*
G01*
X74844000Y-5115000D01*
G75*
G02*
X75094000Y-4865000I250000J0D01*
G01*
X76544000Y-4865000D01*
G75*
G02*
X76794000Y-5115000I0J-250000D01*
G01*
X76794000Y-6315000D01*
G75*
G02*
X76544000Y-6565000I-250000J0D01*
G01*
G37*
%TD*%
%TO.C,Extra2*%
X110109000Y1865000D03*
X110109000Y-635000D03*
X110109000Y-3135000D03*
G36*
G01*
X110834000Y-6485000D02*
X109384000Y-6485000D01*
G75*
G02*
X109134000Y-6235000I0J250000D01*
G01*
X109134000Y-5035000D01*
G75*
G02*
X109384000Y-4785000I250000J0D01*
G01*
X110834000Y-4785000D01*
G75*
G02*
X111084000Y-5035000I0J-250000D01*
G01*
X111084000Y-6235000D01*
G75*
G02*
X110834000Y-6485000I-250000J0D01*
G01*
G37*
%TD*%
%TO.C,Extra1*%
X103505000Y1865000D03*
X103505000Y-635000D03*
X103505000Y-3135000D03*
G36*
G01*
X104230000Y-6485000D02*
X102780000Y-6485000D01*
G75*
G02*
X102530000Y-6235000I0J250000D01*
G01*
X102530000Y-5035000D01*
G75*
G02*
X102780000Y-4785000I250000J0D01*
G01*
X104230000Y-4785000D01*
G75*
G02*
X104480000Y-5035000I0J-250000D01*
G01*
X104480000Y-6235000D01*
G75*
G02*
X104230000Y-6485000I-250000J0D01*
G01*
G37*
%TD*%
%TO.C,BNO55*%
X69215000Y1912000D03*
X69215000Y-588000D03*
X69215000Y-3088000D03*
G36*
G01*
X69940000Y-6438000D02*
X68490000Y-6438000D01*
G75*
G02*
X68240000Y-6188000I0J250000D01*
G01*
X68240000Y-4988000D01*
G75*
G02*
X68490000Y-4738000I250000J0D01*
G01*
X69940000Y-4738000D01*
G75*
G02*
X70190000Y-4988000I0J-250000D01*
G01*
X70190000Y-6188000D01*
G75*
G02*
X69940000Y-6438000I-250000J0D01*
G01*
G37*
%TD*%
%TO.C,Anemometer1*%
X96901000Y2039000D03*
X96901000Y-461000D03*
X96901000Y-2961000D03*
G36*
G01*
X97626000Y-6311000D02*
X96176000Y-6311000D01*
G75*
G02*
X95926000Y-6061000I0J250000D01*
G01*
X95926000Y-4861000D01*
G75*
G02*
X96176000Y-4611000I250000J0D01*
G01*
X97626000Y-4611000D01*
G75*
G02*
X97876000Y-4861000I0J-250000D01*
G01*
X97876000Y-6061000D01*
G75*
G02*
X97626000Y-6311000I-250000J0D01*
G01*
G37*
%TD*%
%TO.C,3S_battery_pin1*%
X112776000Y-40600000D03*
X112776000Y-38100000D03*
X112776000Y-35600000D03*
G36*
G01*
X112051000Y-32250000D02*
X113501000Y-32250000D01*
G75*
G02*
X113751000Y-32500000I0J-250000D01*
G01*
X113751000Y-33700000D01*
G75*
G02*
X113501000Y-33950000I-250000J0D01*
G01*
X112051000Y-33950000D01*
G75*
G02*
X111801000Y-33700000I0J250000D01*
G01*
X111801000Y-32500000D01*
G75*
G02*
X112051000Y-32250000I250000J0D01*
G01*
G37*
%TD*%
%TO.C,2s_battery_pin1*%
X120396000Y-38528000D03*
X120396000Y-36028000D03*
G36*
G01*
X119671000Y-32678000D02*
X121121000Y-32678000D01*
G75*
G02*
X121371000Y-32928000I0J-250000D01*
G01*
X121371000Y-34128000D01*
G75*
G02*
X121121000Y-34378000I-250000J0D01*
G01*
X119671000Y-34378000D01*
G75*
G02*
X119421000Y-34128000I0J250000D01*
G01*
X119421000Y-32928000D01*
G75*
G02*
X119671000Y-32678000I250000J0D01*
G01*
G37*
%TD*%
%TO.C,C3*%
G36*
G01*
X66515000Y-48107000D02*
X65565000Y-48107000D01*
G75*
G02*
X65315000Y-47857000I0J250000D01*
G01*
X65315000Y-47182000D01*
G75*
G02*
X65565000Y-46932000I250000J0D01*
G01*
X66515000Y-46932000D01*
G75*
G02*
X66765000Y-47182000I0J-250000D01*
G01*
X66765000Y-47857000D01*
G75*
G02*
X66515000Y-48107000I-250000J0D01*
G01*
G37*
G36*
G01*
X66515000Y-46032000D02*
X65565000Y-46032000D01*
G75*
G02*
X65315000Y-45782000I0J250000D01*
G01*
X65315000Y-45107000D01*
G75*
G02*
X65565000Y-44857000I250000J0D01*
G01*
X66515000Y-44857000D01*
G75*
G02*
X66765000Y-45107000I0J-250000D01*
G01*
X66765000Y-45782000D01*
G75*
G02*
X66515000Y-46032000I-250000J0D01*
G01*
G37*
%TD*%
D19*
%TO.C,SW1*%
X88034000Y-44450000D03*
X88034000Y-48950000D03*
X81534000Y-44450000D03*
X81534000Y-48950000D03*
%TD*%
D20*
%TO.C,U7*%
X96080000Y-15239000D03*
D21*
X89780000Y-17519000D03*
X89780000Y-12959000D03*
%TD*%
D20*
%TO.C,U6*%
X96299000Y-24512000D03*
D21*
X89999000Y-26792000D03*
X89999000Y-22232000D03*
%TD*%
D20*
%TO.C,U5*%
X110593000Y-15239000D03*
D21*
X104293000Y-17519000D03*
X104293000Y-12959000D03*
%TD*%
%TO.C,U4*%
G36*
G01*
X77485000Y-21663000D02*
X78810000Y-21663000D01*
G75*
G02*
X78885000Y-21738000I0J-75000D01*
G01*
X78885000Y-21888000D01*
G75*
G02*
X78810000Y-21963000I-75000J0D01*
G01*
X77485000Y-21963000D01*
G75*
G02*
X77410000Y-21888000I0J75000D01*
G01*
X77410000Y-21738000D01*
G75*
G02*
X77485000Y-21663000I75000J0D01*
G01*
G37*
G36*
G01*
X77485000Y-22163000D02*
X78810000Y-22163000D01*
G75*
G02*
X78885000Y-22238000I0J-75000D01*
G01*
X78885000Y-22388000D01*
G75*
G02*
X78810000Y-22463000I-75000J0D01*
G01*
X77485000Y-22463000D01*
G75*
G02*
X77410000Y-22388000I0J75000D01*
G01*
X77410000Y-22238000D01*
G75*
G02*
X77485000Y-22163000I75000J0D01*
G01*
G37*
G36*
G01*
X77485000Y-22663000D02*
X78810000Y-22663000D01*
G75*
G02*
X78885000Y-22738000I0J-75000D01*
G01*
X78885000Y-22888000D01*
G75*
G02*
X78810000Y-22963000I-75000J0D01*
G01*
X77485000Y-22963000D01*
G75*
G02*
X77410000Y-22888000I0J75000D01*
G01*
X77410000Y-22738000D01*
G75*
G02*
X77485000Y-22663000I75000J0D01*
G01*
G37*
G36*
G01*
X77485000Y-23163000D02*
X78810000Y-23163000D01*
G75*
G02*
X78885000Y-23238000I0J-75000D01*
G01*
X78885000Y-23388000D01*
G75*
G02*
X78810000Y-23463000I-75000J0D01*
G01*
X77485000Y-23463000D01*
G75*
G02*
X77410000Y-23388000I0J75000D01*
G01*
X77410000Y-23238000D01*
G75*
G02*
X77485000Y-23163000I75000J0D01*
G01*
G37*
G36*
G01*
X77485000Y-23663000D02*
X78810000Y-23663000D01*
G75*
G02*
X78885000Y-23738000I0J-75000D01*
G01*
X78885000Y-23888000D01*
G75*
G02*
X78810000Y-23963000I-75000J0D01*
G01*
X77485000Y-23963000D01*
G75*
G02*
X77410000Y-23888000I0J75000D01*
G01*
X77410000Y-23738000D01*
G75*
G02*
X77485000Y-23663000I75000J0D01*
G01*
G37*
G36*
G01*
X77485000Y-24163000D02*
X78810000Y-24163000D01*
G75*
G02*
X78885000Y-24238000I0J-75000D01*
G01*
X78885000Y-24388000D01*
G75*
G02*
X78810000Y-24463000I-75000J0D01*
G01*
X77485000Y-24463000D01*
G75*
G02*
X77410000Y-24388000I0J75000D01*
G01*
X77410000Y-24238000D01*
G75*
G02*
X77485000Y-24163000I75000J0D01*
G01*
G37*
G36*
G01*
X77485000Y-24663000D02*
X78810000Y-24663000D01*
G75*
G02*
X78885000Y-24738000I0J-75000D01*
G01*
X78885000Y-24888000D01*
G75*
G02*
X78810000Y-24963000I-75000J0D01*
G01*
X77485000Y-24963000D01*
G75*
G02*
X77410000Y-24888000I0J75000D01*
G01*
X77410000Y-24738000D01*
G75*
G02*
X77485000Y-24663000I75000J0D01*
G01*
G37*
G36*
G01*
X77485000Y-25163000D02*
X78810000Y-25163000D01*
G75*
G02*
X78885000Y-25238000I0J-75000D01*
G01*
X78885000Y-25388000D01*
G75*
G02*
X78810000Y-25463000I-75000J0D01*
G01*
X77485000Y-25463000D01*
G75*
G02*
X77410000Y-25388000I0J75000D01*
G01*
X77410000Y-25238000D01*
G75*
G02*
X77485000Y-25163000I75000J0D01*
G01*
G37*
G36*
G01*
X77485000Y-25663000D02*
X78810000Y-25663000D01*
G75*
G02*
X78885000Y-25738000I0J-75000D01*
G01*
X78885000Y-25888000D01*
G75*
G02*
X78810000Y-25963000I-75000J0D01*
G01*
X77485000Y-25963000D01*
G75*
G02*
X77410000Y-25888000I0J75000D01*
G01*
X77410000Y-25738000D01*
G75*
G02*
X77485000Y-25663000I75000J0D01*
G01*
G37*
G36*
G01*
X77485000Y-26163000D02*
X78810000Y-26163000D01*
G75*
G02*
X78885000Y-26238000I0J-75000D01*
G01*
X78885000Y-26388000D01*
G75*
G02*
X78810000Y-26463000I-75000J0D01*
G01*
X77485000Y-26463000D01*
G75*
G02*
X77410000Y-26388000I0J75000D01*
G01*
X77410000Y-26238000D01*
G75*
G02*
X77485000Y-26163000I75000J0D01*
G01*
G37*
G36*
G01*
X77485000Y-26663000D02*
X78810000Y-26663000D01*
G75*
G02*
X78885000Y-26738000I0J-75000D01*
G01*
X78885000Y-26888000D01*
G75*
G02*
X78810000Y-26963000I-75000J0D01*
G01*
X77485000Y-26963000D01*
G75*
G02*
X77410000Y-26888000I0J75000D01*
G01*
X77410000Y-26738000D01*
G75*
G02*
X77485000Y-26663000I75000J0D01*
G01*
G37*
G36*
G01*
X77485000Y-27163000D02*
X78810000Y-27163000D01*
G75*
G02*
X78885000Y-27238000I0J-75000D01*
G01*
X78885000Y-27388000D01*
G75*
G02*
X78810000Y-27463000I-75000J0D01*
G01*
X77485000Y-27463000D01*
G75*
G02*
X77410000Y-27388000I0J75000D01*
G01*
X77410000Y-27238000D01*
G75*
G02*
X77485000Y-27163000I75000J0D01*
G01*
G37*
G36*
G01*
X77485000Y-27663000D02*
X78810000Y-27663000D01*
G75*
G02*
X78885000Y-27738000I0J-75000D01*
G01*
X78885000Y-27888000D01*
G75*
G02*
X78810000Y-27963000I-75000J0D01*
G01*
X77485000Y-27963000D01*
G75*
G02*
X77410000Y-27888000I0J75000D01*
G01*
X77410000Y-27738000D01*
G75*
G02*
X77485000Y-27663000I75000J0D01*
G01*
G37*
G36*
G01*
X77485000Y-28163000D02*
X78810000Y-28163000D01*
G75*
G02*
X78885000Y-28238000I0J-75000D01*
G01*
X78885000Y-28388000D01*
G75*
G02*
X78810000Y-28463000I-75000J0D01*
G01*
X77485000Y-28463000D01*
G75*
G02*
X77410000Y-28388000I0J75000D01*
G01*
X77410000Y-28238000D01*
G75*
G02*
X77485000Y-28163000I75000J0D01*
G01*
G37*
G36*
G01*
X77485000Y-28663000D02*
X78810000Y-28663000D01*
G75*
G02*
X78885000Y-28738000I0J-75000D01*
G01*
X78885000Y-28888000D01*
G75*
G02*
X78810000Y-28963000I-75000J0D01*
G01*
X77485000Y-28963000D01*
G75*
G02*
X77410000Y-28888000I0J75000D01*
G01*
X77410000Y-28738000D01*
G75*
G02*
X77485000Y-28663000I75000J0D01*
G01*
G37*
G36*
G01*
X77485000Y-29163000D02*
X78810000Y-29163000D01*
G75*
G02*
X78885000Y-29238000I0J-75000D01*
G01*
X78885000Y-29388000D01*
G75*
G02*
X78810000Y-29463000I-75000J0D01*
G01*
X77485000Y-29463000D01*
G75*
G02*
X77410000Y-29388000I0J75000D01*
G01*
X77410000Y-29238000D01*
G75*
G02*
X77485000Y-29163000I75000J0D01*
G01*
G37*
G36*
G01*
X77485000Y-29663000D02*
X78810000Y-29663000D01*
G75*
G02*
X78885000Y-29738000I0J-75000D01*
G01*
X78885000Y-29888000D01*
G75*
G02*
X78810000Y-29963000I-75000J0D01*
G01*
X77485000Y-29963000D01*
G75*
G02*
X77410000Y-29888000I0J75000D01*
G01*
X77410000Y-29738000D01*
G75*
G02*
X77485000Y-29663000I75000J0D01*
G01*
G37*
G36*
G01*
X77485000Y-30163000D02*
X78810000Y-30163000D01*
G75*
G02*
X78885000Y-30238000I0J-75000D01*
G01*
X78885000Y-30388000D01*
G75*
G02*
X78810000Y-30463000I-75000J0D01*
G01*
X77485000Y-30463000D01*
G75*
G02*
X77410000Y-30388000I0J75000D01*
G01*
X77410000Y-30238000D01*
G75*
G02*
X77485000Y-30163000I75000J0D01*
G01*
G37*
G36*
G01*
X77485000Y-30663000D02*
X78810000Y-30663000D01*
G75*
G02*
X78885000Y-30738000I0J-75000D01*
G01*
X78885000Y-30888000D01*
G75*
G02*
X78810000Y-30963000I-75000J0D01*
G01*
X77485000Y-30963000D01*
G75*
G02*
X77410000Y-30888000I0J75000D01*
G01*
X77410000Y-30738000D01*
G75*
G02*
X77485000Y-30663000I75000J0D01*
G01*
G37*
G36*
G01*
X77485000Y-31163000D02*
X78810000Y-31163000D01*
G75*
G02*
X78885000Y-31238000I0J-75000D01*
G01*
X78885000Y-31388000D01*
G75*
G02*
X78810000Y-31463000I-75000J0D01*
G01*
X77485000Y-31463000D01*
G75*
G02*
X77410000Y-31388000I0J75000D01*
G01*
X77410000Y-31238000D01*
G75*
G02*
X77485000Y-31163000I75000J0D01*
G01*
G37*
G36*
G01*
X77485000Y-31663000D02*
X78810000Y-31663000D01*
G75*
G02*
X78885000Y-31738000I0J-75000D01*
G01*
X78885000Y-31888000D01*
G75*
G02*
X78810000Y-31963000I-75000J0D01*
G01*
X77485000Y-31963000D01*
G75*
G02*
X77410000Y-31888000I0J75000D01*
G01*
X77410000Y-31738000D01*
G75*
G02*
X77485000Y-31663000I75000J0D01*
G01*
G37*
G36*
G01*
X77485000Y-32163000D02*
X78810000Y-32163000D01*
G75*
G02*
X78885000Y-32238000I0J-75000D01*
G01*
X78885000Y-32388000D01*
G75*
G02*
X78810000Y-32463000I-75000J0D01*
G01*
X77485000Y-32463000D01*
G75*
G02*
X77410000Y-32388000I0J75000D01*
G01*
X77410000Y-32238000D01*
G75*
G02*
X77485000Y-32163000I75000J0D01*
G01*
G37*
G36*
G01*
X77485000Y-32663000D02*
X78810000Y-32663000D01*
G75*
G02*
X78885000Y-32738000I0J-75000D01*
G01*
X78885000Y-32888000D01*
G75*
G02*
X78810000Y-32963000I-75000J0D01*
G01*
X77485000Y-32963000D01*
G75*
G02*
X77410000Y-32888000I0J75000D01*
G01*
X77410000Y-32738000D01*
G75*
G02*
X77485000Y-32663000I75000J0D01*
G01*
G37*
G36*
G01*
X77485000Y-33163000D02*
X78810000Y-33163000D01*
G75*
G02*
X78885000Y-33238000I0J-75000D01*
G01*
X78885000Y-33388000D01*
G75*
G02*
X78810000Y-33463000I-75000J0D01*
G01*
X77485000Y-33463000D01*
G75*
G02*
X77410000Y-33388000I0J75000D01*
G01*
X77410000Y-33238000D01*
G75*
G02*
X77485000Y-33163000I75000J0D01*
G01*
G37*
G36*
G01*
X77485000Y-33663000D02*
X78810000Y-33663000D01*
G75*
G02*
X78885000Y-33738000I0J-75000D01*
G01*
X78885000Y-33888000D01*
G75*
G02*
X78810000Y-33963000I-75000J0D01*
G01*
X77485000Y-33963000D01*
G75*
G02*
X77410000Y-33888000I0J75000D01*
G01*
X77410000Y-33738000D01*
G75*
G02*
X77485000Y-33663000I75000J0D01*
G01*
G37*
G36*
G01*
X76410000Y-34738000D02*
X76560000Y-34738000D01*
G75*
G02*
X76635000Y-34813000I0J-75000D01*
G01*
X76635000Y-36138000D01*
G75*
G02*
X76560000Y-36213000I-75000J0D01*
G01*
X76410000Y-36213000D01*
G75*
G02*
X76335000Y-36138000I0J75000D01*
G01*
X76335000Y-34813000D01*
G75*
G02*
X76410000Y-34738000I75000J0D01*
G01*
G37*
G36*
G01*
X75910000Y-34738000D02*
X76060000Y-34738000D01*
G75*
G02*
X76135000Y-34813000I0J-75000D01*
G01*
X76135000Y-36138000D01*
G75*
G02*
X76060000Y-36213000I-75000J0D01*
G01*
X75910000Y-36213000D01*
G75*
G02*
X75835000Y-36138000I0J75000D01*
G01*
X75835000Y-34813000D01*
G75*
G02*
X75910000Y-34738000I75000J0D01*
G01*
G37*
G36*
G01*
X75410000Y-34738000D02*
X75560000Y-34738000D01*
G75*
G02*
X75635000Y-34813000I0J-75000D01*
G01*
X75635000Y-36138000D01*
G75*
G02*
X75560000Y-36213000I-75000J0D01*
G01*
X75410000Y-36213000D01*
G75*
G02*
X75335000Y-36138000I0J75000D01*
G01*
X75335000Y-34813000D01*
G75*
G02*
X75410000Y-34738000I75000J0D01*
G01*
G37*
G36*
G01*
X74910000Y-34738000D02*
X75060000Y-34738000D01*
G75*
G02*
X75135000Y-34813000I0J-75000D01*
G01*
X75135000Y-36138000D01*
G75*
G02*
X75060000Y-36213000I-75000J0D01*
G01*
X74910000Y-36213000D01*
G75*
G02*
X74835000Y-36138000I0J75000D01*
G01*
X74835000Y-34813000D01*
G75*
G02*
X74910000Y-34738000I75000J0D01*
G01*
G37*
G36*
G01*
X74410000Y-34738000D02*
X74560000Y-34738000D01*
G75*
G02*
X74635000Y-34813000I0J-75000D01*
G01*
X74635000Y-36138000D01*
G75*
G02*
X74560000Y-36213000I-75000J0D01*
G01*
X74410000Y-36213000D01*
G75*
G02*
X74335000Y-36138000I0J75000D01*
G01*
X74335000Y-34813000D01*
G75*
G02*
X74410000Y-34738000I75000J0D01*
G01*
G37*
G36*
G01*
X73910000Y-34738000D02*
X74060000Y-34738000D01*
G75*
G02*
X74135000Y-34813000I0J-75000D01*
G01*
X74135000Y-36138000D01*
G75*
G02*
X74060000Y-36213000I-75000J0D01*
G01*
X73910000Y-36213000D01*
G75*
G02*
X73835000Y-36138000I0J75000D01*
G01*
X73835000Y-34813000D01*
G75*
G02*
X73910000Y-34738000I75000J0D01*
G01*
G37*
G36*
G01*
X73410000Y-34738000D02*
X73560000Y-34738000D01*
G75*
G02*
X73635000Y-34813000I0J-75000D01*
G01*
X73635000Y-36138000D01*
G75*
G02*
X73560000Y-36213000I-75000J0D01*
G01*
X73410000Y-36213000D01*
G75*
G02*
X73335000Y-36138000I0J75000D01*
G01*
X73335000Y-34813000D01*
G75*
G02*
X73410000Y-34738000I75000J0D01*
G01*
G37*
G36*
G01*
X72910000Y-34738000D02*
X73060000Y-34738000D01*
G75*
G02*
X73135000Y-34813000I0J-75000D01*
G01*
X73135000Y-36138000D01*
G75*
G02*
X73060000Y-36213000I-75000J0D01*
G01*
X72910000Y-36213000D01*
G75*
G02*
X72835000Y-36138000I0J75000D01*
G01*
X72835000Y-34813000D01*
G75*
G02*
X72910000Y-34738000I75000J0D01*
G01*
G37*
G36*
G01*
X72410000Y-34738000D02*
X72560000Y-34738000D01*
G75*
G02*
X72635000Y-34813000I0J-75000D01*
G01*
X72635000Y-36138000D01*
G75*
G02*
X72560000Y-36213000I-75000J0D01*
G01*
X72410000Y-36213000D01*
G75*
G02*
X72335000Y-36138000I0J75000D01*
G01*
X72335000Y-34813000D01*
G75*
G02*
X72410000Y-34738000I75000J0D01*
G01*
G37*
G36*
G01*
X71910000Y-34738000D02*
X72060000Y-34738000D01*
G75*
G02*
X72135000Y-34813000I0J-75000D01*
G01*
X72135000Y-36138000D01*
G75*
G02*
X72060000Y-36213000I-75000J0D01*
G01*
X71910000Y-36213000D01*
G75*
G02*
X71835000Y-36138000I0J75000D01*
G01*
X71835000Y-34813000D01*
G75*
G02*
X71910000Y-34738000I75000J0D01*
G01*
G37*
G36*
G01*
X71410000Y-34738000D02*
X71560000Y-34738000D01*
G75*
G02*
X71635000Y-34813000I0J-75000D01*
G01*
X71635000Y-36138000D01*
G75*
G02*
X71560000Y-36213000I-75000J0D01*
G01*
X71410000Y-36213000D01*
G75*
G02*
X71335000Y-36138000I0J75000D01*
G01*
X71335000Y-34813000D01*
G75*
G02*
X71410000Y-34738000I75000J0D01*
G01*
G37*
G36*
G01*
X70910000Y-34738000D02*
X71060000Y-34738000D01*
G75*
G02*
X71135000Y-34813000I0J-75000D01*
G01*
X71135000Y-36138000D01*
G75*
G02*
X71060000Y-36213000I-75000J0D01*
G01*
X70910000Y-36213000D01*
G75*
G02*
X70835000Y-36138000I0J75000D01*
G01*
X70835000Y-34813000D01*
G75*
G02*
X70910000Y-34738000I75000J0D01*
G01*
G37*
G36*
G01*
X70410000Y-34738000D02*
X70560000Y-34738000D01*
G75*
G02*
X70635000Y-34813000I0J-75000D01*
G01*
X70635000Y-36138000D01*
G75*
G02*
X70560000Y-36213000I-75000J0D01*
G01*
X70410000Y-36213000D01*
G75*
G02*
X70335000Y-36138000I0J75000D01*
G01*
X70335000Y-34813000D01*
G75*
G02*
X70410000Y-34738000I75000J0D01*
G01*
G37*
G36*
G01*
X69910000Y-34738000D02*
X70060000Y-34738000D01*
G75*
G02*
X70135000Y-34813000I0J-75000D01*
G01*
X70135000Y-36138000D01*
G75*
G02*
X70060000Y-36213000I-75000J0D01*
G01*
X69910000Y-36213000D01*
G75*
G02*
X69835000Y-36138000I0J75000D01*
G01*
X69835000Y-34813000D01*
G75*
G02*
X69910000Y-34738000I75000J0D01*
G01*
G37*
G36*
G01*
X69410000Y-34738000D02*
X69560000Y-34738000D01*
G75*
G02*
X69635000Y-34813000I0J-75000D01*
G01*
X69635000Y-36138000D01*
G75*
G02*
X69560000Y-36213000I-75000J0D01*
G01*
X69410000Y-36213000D01*
G75*
G02*
X69335000Y-36138000I0J75000D01*
G01*
X69335000Y-34813000D01*
G75*
G02*
X69410000Y-34738000I75000J0D01*
G01*
G37*
G36*
G01*
X68910000Y-34738000D02*
X69060000Y-34738000D01*
G75*
G02*
X69135000Y-34813000I0J-75000D01*
G01*
X69135000Y-36138000D01*
G75*
G02*
X69060000Y-36213000I-75000J0D01*
G01*
X68910000Y-36213000D01*
G75*
G02*
X68835000Y-36138000I0J75000D01*
G01*
X68835000Y-34813000D01*
G75*
G02*
X68910000Y-34738000I75000J0D01*
G01*
G37*
G36*
G01*
X68410000Y-34738000D02*
X68560000Y-34738000D01*
G75*
G02*
X68635000Y-34813000I0J-75000D01*
G01*
X68635000Y-36138000D01*
G75*
G02*
X68560000Y-36213000I-75000J0D01*
G01*
X68410000Y-36213000D01*
G75*
G02*
X68335000Y-36138000I0J75000D01*
G01*
X68335000Y-34813000D01*
G75*
G02*
X68410000Y-34738000I75000J0D01*
G01*
G37*
G36*
G01*
X67910000Y-34738000D02*
X68060000Y-34738000D01*
G75*
G02*
X68135000Y-34813000I0J-75000D01*
G01*
X68135000Y-36138000D01*
G75*
G02*
X68060000Y-36213000I-75000J0D01*
G01*
X67910000Y-36213000D01*
G75*
G02*
X67835000Y-36138000I0J75000D01*
G01*
X67835000Y-34813000D01*
G75*
G02*
X67910000Y-34738000I75000J0D01*
G01*
G37*
G36*
G01*
X67410000Y-34738000D02*
X67560000Y-34738000D01*
G75*
G02*
X67635000Y-34813000I0J-75000D01*
G01*
X67635000Y-36138000D01*
G75*
G02*
X67560000Y-36213000I-75000J0D01*
G01*
X67410000Y-36213000D01*
G75*
G02*
X67335000Y-36138000I0J75000D01*
G01*
X67335000Y-34813000D01*
G75*
G02*
X67410000Y-34738000I75000J0D01*
G01*
G37*
G36*
G01*
X66910000Y-34738000D02*
X67060000Y-34738000D01*
G75*
G02*
X67135000Y-34813000I0J-75000D01*
G01*
X67135000Y-36138000D01*
G75*
G02*
X67060000Y-36213000I-75000J0D01*
G01*
X66910000Y-36213000D01*
G75*
G02*
X66835000Y-36138000I0J75000D01*
G01*
X66835000Y-34813000D01*
G75*
G02*
X66910000Y-34738000I75000J0D01*
G01*
G37*
G36*
G01*
X66410000Y-34738000D02*
X66560000Y-34738000D01*
G75*
G02*
X66635000Y-34813000I0J-75000D01*
G01*
X66635000Y-36138000D01*
G75*
G02*
X66560000Y-36213000I-75000J0D01*
G01*
X66410000Y-36213000D01*
G75*
G02*
X66335000Y-36138000I0J75000D01*
G01*
X66335000Y-34813000D01*
G75*
G02*
X66410000Y-34738000I75000J0D01*
G01*
G37*
G36*
G01*
X65910000Y-34738000D02*
X66060000Y-34738000D01*
G75*
G02*
X66135000Y-34813000I0J-75000D01*
G01*
X66135000Y-36138000D01*
G75*
G02*
X66060000Y-36213000I-75000J0D01*
G01*
X65910000Y-36213000D01*
G75*
G02*
X65835000Y-36138000I0J75000D01*
G01*
X65835000Y-34813000D01*
G75*
G02*
X65910000Y-34738000I75000J0D01*
G01*
G37*
G36*
G01*
X65410000Y-34738000D02*
X65560000Y-34738000D01*
G75*
G02*
X65635000Y-34813000I0J-75000D01*
G01*
X65635000Y-36138000D01*
G75*
G02*
X65560000Y-36213000I-75000J0D01*
G01*
X65410000Y-36213000D01*
G75*
G02*
X65335000Y-36138000I0J75000D01*
G01*
X65335000Y-34813000D01*
G75*
G02*
X65410000Y-34738000I75000J0D01*
G01*
G37*
G36*
G01*
X64910000Y-34738000D02*
X65060000Y-34738000D01*
G75*
G02*
X65135000Y-34813000I0J-75000D01*
G01*
X65135000Y-36138000D01*
G75*
G02*
X65060000Y-36213000I-75000J0D01*
G01*
X64910000Y-36213000D01*
G75*
G02*
X64835000Y-36138000I0J75000D01*
G01*
X64835000Y-34813000D01*
G75*
G02*
X64910000Y-34738000I75000J0D01*
G01*
G37*
G36*
G01*
X64410000Y-34738000D02*
X64560000Y-34738000D01*
G75*
G02*
X64635000Y-34813000I0J-75000D01*
G01*
X64635000Y-36138000D01*
G75*
G02*
X64560000Y-36213000I-75000J0D01*
G01*
X64410000Y-36213000D01*
G75*
G02*
X64335000Y-36138000I0J75000D01*
G01*
X64335000Y-34813000D01*
G75*
G02*
X64410000Y-34738000I75000J0D01*
G01*
G37*
G36*
G01*
X62160000Y-33663000D02*
X63485000Y-33663000D01*
G75*
G02*
X63560000Y-33738000I0J-75000D01*
G01*
X63560000Y-33888000D01*
G75*
G02*
X63485000Y-33963000I-75000J0D01*
G01*
X62160000Y-33963000D01*
G75*
G02*
X62085000Y-33888000I0J75000D01*
G01*
X62085000Y-33738000D01*
G75*
G02*
X62160000Y-33663000I75000J0D01*
G01*
G37*
G36*
G01*
X62160000Y-33163000D02*
X63485000Y-33163000D01*
G75*
G02*
X63560000Y-33238000I0J-75000D01*
G01*
X63560000Y-33388000D01*
G75*
G02*
X63485000Y-33463000I-75000J0D01*
G01*
X62160000Y-33463000D01*
G75*
G02*
X62085000Y-33388000I0J75000D01*
G01*
X62085000Y-33238000D01*
G75*
G02*
X62160000Y-33163000I75000J0D01*
G01*
G37*
G36*
G01*
X62160000Y-32663000D02*
X63485000Y-32663000D01*
G75*
G02*
X63560000Y-32738000I0J-75000D01*
G01*
X63560000Y-32888000D01*
G75*
G02*
X63485000Y-32963000I-75000J0D01*
G01*
X62160000Y-32963000D01*
G75*
G02*
X62085000Y-32888000I0J75000D01*
G01*
X62085000Y-32738000D01*
G75*
G02*
X62160000Y-32663000I75000J0D01*
G01*
G37*
G36*
G01*
X62160000Y-32163000D02*
X63485000Y-32163000D01*
G75*
G02*
X63560000Y-32238000I0J-75000D01*
G01*
X63560000Y-32388000D01*
G75*
G02*
X63485000Y-32463000I-75000J0D01*
G01*
X62160000Y-32463000D01*
G75*
G02*
X62085000Y-32388000I0J75000D01*
G01*
X62085000Y-32238000D01*
G75*
G02*
X62160000Y-32163000I75000J0D01*
G01*
G37*
G36*
G01*
X62160000Y-31663000D02*
X63485000Y-31663000D01*
G75*
G02*
X63560000Y-31738000I0J-75000D01*
G01*
X63560000Y-31888000D01*
G75*
G02*
X63485000Y-31963000I-75000J0D01*
G01*
X62160000Y-31963000D01*
G75*
G02*
X62085000Y-31888000I0J75000D01*
G01*
X62085000Y-31738000D01*
G75*
G02*
X62160000Y-31663000I75000J0D01*
G01*
G37*
G36*
G01*
X62160000Y-31163000D02*
X63485000Y-31163000D01*
G75*
G02*
X63560000Y-31238000I0J-75000D01*
G01*
X63560000Y-31388000D01*
G75*
G02*
X63485000Y-31463000I-75000J0D01*
G01*
X62160000Y-31463000D01*
G75*
G02*
X62085000Y-31388000I0J75000D01*
G01*
X62085000Y-31238000D01*
G75*
G02*
X62160000Y-31163000I75000J0D01*
G01*
G37*
G36*
G01*
X62160000Y-30663000D02*
X63485000Y-30663000D01*
G75*
G02*
X63560000Y-30738000I0J-75000D01*
G01*
X63560000Y-30888000D01*
G75*
G02*
X63485000Y-30963000I-75000J0D01*
G01*
X62160000Y-30963000D01*
G75*
G02*
X62085000Y-30888000I0J75000D01*
G01*
X62085000Y-30738000D01*
G75*
G02*
X62160000Y-30663000I75000J0D01*
G01*
G37*
G36*
G01*
X62160000Y-30163000D02*
X63485000Y-30163000D01*
G75*
G02*
X63560000Y-30238000I0J-75000D01*
G01*
X63560000Y-30388000D01*
G75*
G02*
X63485000Y-30463000I-75000J0D01*
G01*
X62160000Y-30463000D01*
G75*
G02*
X62085000Y-30388000I0J75000D01*
G01*
X62085000Y-30238000D01*
G75*
G02*
X62160000Y-30163000I75000J0D01*
G01*
G37*
G36*
G01*
X62160000Y-29663000D02*
X63485000Y-29663000D01*
G75*
G02*
X63560000Y-29738000I0J-75000D01*
G01*
X63560000Y-29888000D01*
G75*
G02*
X63485000Y-29963000I-75000J0D01*
G01*
X62160000Y-29963000D01*
G75*
G02*
X62085000Y-29888000I0J75000D01*
G01*
X62085000Y-29738000D01*
G75*
G02*
X62160000Y-29663000I75000J0D01*
G01*
G37*
G36*
G01*
X62160000Y-29163000D02*
X63485000Y-29163000D01*
G75*
G02*
X63560000Y-29238000I0J-75000D01*
G01*
X63560000Y-29388000D01*
G75*
G02*
X63485000Y-29463000I-75000J0D01*
G01*
X62160000Y-29463000D01*
G75*
G02*
X62085000Y-29388000I0J75000D01*
G01*
X62085000Y-29238000D01*
G75*
G02*
X62160000Y-29163000I75000J0D01*
G01*
G37*
G36*
G01*
X62160000Y-28663000D02*
X63485000Y-28663000D01*
G75*
G02*
X63560000Y-28738000I0J-75000D01*
G01*
X63560000Y-28888000D01*
G75*
G02*
X63485000Y-28963000I-75000J0D01*
G01*
X62160000Y-28963000D01*
G75*
G02*
X62085000Y-28888000I0J75000D01*
G01*
X62085000Y-28738000D01*
G75*
G02*
X62160000Y-28663000I75000J0D01*
G01*
G37*
G36*
G01*
X62160000Y-28163000D02*
X63485000Y-28163000D01*
G75*
G02*
X63560000Y-28238000I0J-75000D01*
G01*
X63560000Y-28388000D01*
G75*
G02*
X63485000Y-28463000I-75000J0D01*
G01*
X62160000Y-28463000D01*
G75*
G02*
X62085000Y-28388000I0J75000D01*
G01*
X62085000Y-28238000D01*
G75*
G02*
X62160000Y-28163000I75000J0D01*
G01*
G37*
G36*
G01*
X62160000Y-27663000D02*
X63485000Y-27663000D01*
G75*
G02*
X63560000Y-27738000I0J-75000D01*
G01*
X63560000Y-27888000D01*
G75*
G02*
X63485000Y-27963000I-75000J0D01*
G01*
X62160000Y-27963000D01*
G75*
G02*
X62085000Y-27888000I0J75000D01*
G01*
X62085000Y-27738000D01*
G75*
G02*
X62160000Y-27663000I75000J0D01*
G01*
G37*
G36*
G01*
X62160000Y-27163000D02*
X63485000Y-27163000D01*
G75*
G02*
X63560000Y-27238000I0J-75000D01*
G01*
X63560000Y-27388000D01*
G75*
G02*
X63485000Y-27463000I-75000J0D01*
G01*
X62160000Y-27463000D01*
G75*
G02*
X62085000Y-27388000I0J75000D01*
G01*
X62085000Y-27238000D01*
G75*
G02*
X62160000Y-27163000I75000J0D01*
G01*
G37*
G36*
G01*
X62160000Y-26663000D02*
X63485000Y-26663000D01*
G75*
G02*
X63560000Y-26738000I0J-75000D01*
G01*
X63560000Y-26888000D01*
G75*
G02*
X63485000Y-26963000I-75000J0D01*
G01*
X62160000Y-26963000D01*
G75*
G02*
X62085000Y-26888000I0J75000D01*
G01*
X62085000Y-26738000D01*
G75*
G02*
X62160000Y-26663000I75000J0D01*
G01*
G37*
G36*
G01*
X62160000Y-26163000D02*
X63485000Y-26163000D01*
G75*
G02*
X63560000Y-26238000I0J-75000D01*
G01*
X63560000Y-26388000D01*
G75*
G02*
X63485000Y-26463000I-75000J0D01*
G01*
X62160000Y-26463000D01*
G75*
G02*
X62085000Y-26388000I0J75000D01*
G01*
X62085000Y-26238000D01*
G75*
G02*
X62160000Y-26163000I75000J0D01*
G01*
G37*
G36*
G01*
X62160000Y-25663000D02*
X63485000Y-25663000D01*
G75*
G02*
X63560000Y-25738000I0J-75000D01*
G01*
X63560000Y-25888000D01*
G75*
G02*
X63485000Y-25963000I-75000J0D01*
G01*
X62160000Y-25963000D01*
G75*
G02*
X62085000Y-25888000I0J75000D01*
G01*
X62085000Y-25738000D01*
G75*
G02*
X62160000Y-25663000I75000J0D01*
G01*
G37*
G36*
G01*
X62160000Y-25163000D02*
X63485000Y-25163000D01*
G75*
G02*
X63560000Y-25238000I0J-75000D01*
G01*
X63560000Y-25388000D01*
G75*
G02*
X63485000Y-25463000I-75000J0D01*
G01*
X62160000Y-25463000D01*
G75*
G02*
X62085000Y-25388000I0J75000D01*
G01*
X62085000Y-25238000D01*
G75*
G02*
X62160000Y-25163000I75000J0D01*
G01*
G37*
G36*
G01*
X62160000Y-24663000D02*
X63485000Y-24663000D01*
G75*
G02*
X63560000Y-24738000I0J-75000D01*
G01*
X63560000Y-24888000D01*
G75*
G02*
X63485000Y-24963000I-75000J0D01*
G01*
X62160000Y-24963000D01*
G75*
G02*
X62085000Y-24888000I0J75000D01*
G01*
X62085000Y-24738000D01*
G75*
G02*
X62160000Y-24663000I75000J0D01*
G01*
G37*
G36*
G01*
X62160000Y-24163000D02*
X63485000Y-24163000D01*
G75*
G02*
X63560000Y-24238000I0J-75000D01*
G01*
X63560000Y-24388000D01*
G75*
G02*
X63485000Y-24463000I-75000J0D01*
G01*
X62160000Y-24463000D01*
G75*
G02*
X62085000Y-24388000I0J75000D01*
G01*
X62085000Y-24238000D01*
G75*
G02*
X62160000Y-24163000I75000J0D01*
G01*
G37*
G36*
G01*
X62160000Y-23663000D02*
X63485000Y-23663000D01*
G75*
G02*
X63560000Y-23738000I0J-75000D01*
G01*
X63560000Y-23888000D01*
G75*
G02*
X63485000Y-23963000I-75000J0D01*
G01*
X62160000Y-23963000D01*
G75*
G02*
X62085000Y-23888000I0J75000D01*
G01*
X62085000Y-23738000D01*
G75*
G02*
X62160000Y-23663000I75000J0D01*
G01*
G37*
G36*
G01*
X62160000Y-23163000D02*
X63485000Y-23163000D01*
G75*
G02*
X63560000Y-23238000I0J-75000D01*
G01*
X63560000Y-23388000D01*
G75*
G02*
X63485000Y-23463000I-75000J0D01*
G01*
X62160000Y-23463000D01*
G75*
G02*
X62085000Y-23388000I0J75000D01*
G01*
X62085000Y-23238000D01*
G75*
G02*
X62160000Y-23163000I75000J0D01*
G01*
G37*
G36*
G01*
X62160000Y-22663000D02*
X63485000Y-22663000D01*
G75*
G02*
X63560000Y-22738000I0J-75000D01*
G01*
X63560000Y-22888000D01*
G75*
G02*
X63485000Y-22963000I-75000J0D01*
G01*
X62160000Y-22963000D01*
G75*
G02*
X62085000Y-22888000I0J75000D01*
G01*
X62085000Y-22738000D01*
G75*
G02*
X62160000Y-22663000I75000J0D01*
G01*
G37*
G36*
G01*
X62160000Y-22163000D02*
X63485000Y-22163000D01*
G75*
G02*
X63560000Y-22238000I0J-75000D01*
G01*
X63560000Y-22388000D01*
G75*
G02*
X63485000Y-22463000I-75000J0D01*
G01*
X62160000Y-22463000D01*
G75*
G02*
X62085000Y-22388000I0J75000D01*
G01*
X62085000Y-22238000D01*
G75*
G02*
X62160000Y-22163000I75000J0D01*
G01*
G37*
G36*
G01*
X62160000Y-21663000D02*
X63485000Y-21663000D01*
G75*
G02*
X63560000Y-21738000I0J-75000D01*
G01*
X63560000Y-21888000D01*
G75*
G02*
X63485000Y-21963000I-75000J0D01*
G01*
X62160000Y-21963000D01*
G75*
G02*
X62085000Y-21888000I0J75000D01*
G01*
X62085000Y-21738000D01*
G75*
G02*
X62160000Y-21663000I75000J0D01*
G01*
G37*
G36*
G01*
X64410000Y-19413000D02*
X64560000Y-19413000D01*
G75*
G02*
X64635000Y-19488000I0J-75000D01*
G01*
X64635000Y-20813000D01*
G75*
G02*
X64560000Y-20888000I-75000J0D01*
G01*
X64410000Y-20888000D01*
G75*
G02*
X64335000Y-20813000I0J75000D01*
G01*
X64335000Y-19488000D01*
G75*
G02*
X64410000Y-19413000I75000J0D01*
G01*
G37*
G36*
G01*
X64910000Y-19413000D02*
X65060000Y-19413000D01*
G75*
G02*
X65135000Y-19488000I0J-75000D01*
G01*
X65135000Y-20813000D01*
G75*
G02*
X65060000Y-20888000I-75000J0D01*
G01*
X64910000Y-20888000D01*
G75*
G02*
X64835000Y-20813000I0J75000D01*
G01*
X64835000Y-19488000D01*
G75*
G02*
X64910000Y-19413000I75000J0D01*
G01*
G37*
G36*
G01*
X65410000Y-19413000D02*
X65560000Y-19413000D01*
G75*
G02*
X65635000Y-19488000I0J-75000D01*
G01*
X65635000Y-20813000D01*
G75*
G02*
X65560000Y-20888000I-75000J0D01*
G01*
X65410000Y-20888000D01*
G75*
G02*
X65335000Y-20813000I0J75000D01*
G01*
X65335000Y-19488000D01*
G75*
G02*
X65410000Y-19413000I75000J0D01*
G01*
G37*
G36*
G01*
X65910000Y-19413000D02*
X66060000Y-19413000D01*
G75*
G02*
X66135000Y-19488000I0J-75000D01*
G01*
X66135000Y-20813000D01*
G75*
G02*
X66060000Y-20888000I-75000J0D01*
G01*
X65910000Y-20888000D01*
G75*
G02*
X65835000Y-20813000I0J75000D01*
G01*
X65835000Y-19488000D01*
G75*
G02*
X65910000Y-19413000I75000J0D01*
G01*
G37*
G36*
G01*
X66410000Y-19413000D02*
X66560000Y-19413000D01*
G75*
G02*
X66635000Y-19488000I0J-75000D01*
G01*
X66635000Y-20813000D01*
G75*
G02*
X66560000Y-20888000I-75000J0D01*
G01*
X66410000Y-20888000D01*
G75*
G02*
X66335000Y-20813000I0J75000D01*
G01*
X66335000Y-19488000D01*
G75*
G02*
X66410000Y-19413000I75000J0D01*
G01*
G37*
G36*
G01*
X66910000Y-19413000D02*
X67060000Y-19413000D01*
G75*
G02*
X67135000Y-19488000I0J-75000D01*
G01*
X67135000Y-20813000D01*
G75*
G02*
X67060000Y-20888000I-75000J0D01*
G01*
X66910000Y-20888000D01*
G75*
G02*
X66835000Y-20813000I0J75000D01*
G01*
X66835000Y-19488000D01*
G75*
G02*
X66910000Y-19413000I75000J0D01*
G01*
G37*
G36*
G01*
X67410000Y-19413000D02*
X67560000Y-19413000D01*
G75*
G02*
X67635000Y-19488000I0J-75000D01*
G01*
X67635000Y-20813000D01*
G75*
G02*
X67560000Y-20888000I-75000J0D01*
G01*
X67410000Y-20888000D01*
G75*
G02*
X67335000Y-20813000I0J75000D01*
G01*
X67335000Y-19488000D01*
G75*
G02*
X67410000Y-19413000I75000J0D01*
G01*
G37*
G36*
G01*
X67910000Y-19413000D02*
X68060000Y-19413000D01*
G75*
G02*
X68135000Y-19488000I0J-75000D01*
G01*
X68135000Y-20813000D01*
G75*
G02*
X68060000Y-20888000I-75000J0D01*
G01*
X67910000Y-20888000D01*
G75*
G02*
X67835000Y-20813000I0J75000D01*
G01*
X67835000Y-19488000D01*
G75*
G02*
X67910000Y-19413000I75000J0D01*
G01*
G37*
G36*
G01*
X68410000Y-19413000D02*
X68560000Y-19413000D01*
G75*
G02*
X68635000Y-19488000I0J-75000D01*
G01*
X68635000Y-20813000D01*
G75*
G02*
X68560000Y-20888000I-75000J0D01*
G01*
X68410000Y-20888000D01*
G75*
G02*
X68335000Y-20813000I0J75000D01*
G01*
X68335000Y-19488000D01*
G75*
G02*
X68410000Y-19413000I75000J0D01*
G01*
G37*
G36*
G01*
X68910000Y-19413000D02*
X69060000Y-19413000D01*
G75*
G02*
X69135000Y-19488000I0J-75000D01*
G01*
X69135000Y-20813000D01*
G75*
G02*
X69060000Y-20888000I-75000J0D01*
G01*
X68910000Y-20888000D01*
G75*
G02*
X68835000Y-20813000I0J75000D01*
G01*
X68835000Y-19488000D01*
G75*
G02*
X68910000Y-19413000I75000J0D01*
G01*
G37*
G36*
G01*
X69410000Y-19413000D02*
X69560000Y-19413000D01*
G75*
G02*
X69635000Y-19488000I0J-75000D01*
G01*
X69635000Y-20813000D01*
G75*
G02*
X69560000Y-20888000I-75000J0D01*
G01*
X69410000Y-20888000D01*
G75*
G02*
X69335000Y-20813000I0J75000D01*
G01*
X69335000Y-19488000D01*
G75*
G02*
X69410000Y-19413000I75000J0D01*
G01*
G37*
G36*
G01*
X69910000Y-19413000D02*
X70060000Y-19413000D01*
G75*
G02*
X70135000Y-19488000I0J-75000D01*
G01*
X70135000Y-20813000D01*
G75*
G02*
X70060000Y-20888000I-75000J0D01*
G01*
X69910000Y-20888000D01*
G75*
G02*
X69835000Y-20813000I0J75000D01*
G01*
X69835000Y-19488000D01*
G75*
G02*
X69910000Y-19413000I75000J0D01*
G01*
G37*
G36*
G01*
X70410000Y-19413000D02*
X70560000Y-19413000D01*
G75*
G02*
X70635000Y-19488000I0J-75000D01*
G01*
X70635000Y-20813000D01*
G75*
G02*
X70560000Y-20888000I-75000J0D01*
G01*
X70410000Y-20888000D01*
G75*
G02*
X70335000Y-20813000I0J75000D01*
G01*
X70335000Y-19488000D01*
G75*
G02*
X70410000Y-19413000I75000J0D01*
G01*
G37*
G36*
G01*
X70910000Y-19413000D02*
X71060000Y-19413000D01*
G75*
G02*
X71135000Y-19488000I0J-75000D01*
G01*
X71135000Y-20813000D01*
G75*
G02*
X71060000Y-20888000I-75000J0D01*
G01*
X70910000Y-20888000D01*
G75*
G02*
X70835000Y-20813000I0J75000D01*
G01*
X70835000Y-19488000D01*
G75*
G02*
X70910000Y-19413000I75000J0D01*
G01*
G37*
G36*
G01*
X71410000Y-19413000D02*
X71560000Y-19413000D01*
G75*
G02*
X71635000Y-19488000I0J-75000D01*
G01*
X71635000Y-20813000D01*
G75*
G02*
X71560000Y-20888000I-75000J0D01*
G01*
X71410000Y-20888000D01*
G75*
G02*
X71335000Y-20813000I0J75000D01*
G01*
X71335000Y-19488000D01*
G75*
G02*
X71410000Y-19413000I75000J0D01*
G01*
G37*
G36*
G01*
X71910000Y-19413000D02*
X72060000Y-19413000D01*
G75*
G02*
X72135000Y-19488000I0J-75000D01*
G01*
X72135000Y-20813000D01*
G75*
G02*
X72060000Y-20888000I-75000J0D01*
G01*
X71910000Y-20888000D01*
G75*
G02*
X71835000Y-20813000I0J75000D01*
G01*
X71835000Y-19488000D01*
G75*
G02*
X71910000Y-19413000I75000J0D01*
G01*
G37*
G36*
G01*
X72410000Y-19413000D02*
X72560000Y-19413000D01*
G75*
G02*
X72635000Y-19488000I0J-75000D01*
G01*
X72635000Y-20813000D01*
G75*
G02*
X72560000Y-20888000I-75000J0D01*
G01*
X72410000Y-20888000D01*
G75*
G02*
X72335000Y-20813000I0J75000D01*
G01*
X72335000Y-19488000D01*
G75*
G02*
X72410000Y-19413000I75000J0D01*
G01*
G37*
G36*
G01*
X72910000Y-19413000D02*
X73060000Y-19413000D01*
G75*
G02*
X73135000Y-19488000I0J-75000D01*
G01*
X73135000Y-20813000D01*
G75*
G02*
X73060000Y-20888000I-75000J0D01*
G01*
X72910000Y-20888000D01*
G75*
G02*
X72835000Y-20813000I0J75000D01*
G01*
X72835000Y-19488000D01*
G75*
G02*
X72910000Y-19413000I75000J0D01*
G01*
G37*
G36*
G01*
X73410000Y-19413000D02*
X73560000Y-19413000D01*
G75*
G02*
X73635000Y-19488000I0J-75000D01*
G01*
X73635000Y-20813000D01*
G75*
G02*
X73560000Y-20888000I-75000J0D01*
G01*
X73410000Y-20888000D01*
G75*
G02*
X73335000Y-20813000I0J75000D01*
G01*
X73335000Y-19488000D01*
G75*
G02*
X73410000Y-19413000I75000J0D01*
G01*
G37*
G36*
G01*
X73910000Y-19413000D02*
X74060000Y-19413000D01*
G75*
G02*
X74135000Y-19488000I0J-75000D01*
G01*
X74135000Y-20813000D01*
G75*
G02*
X74060000Y-20888000I-75000J0D01*
G01*
X73910000Y-20888000D01*
G75*
G02*
X73835000Y-20813000I0J75000D01*
G01*
X73835000Y-19488000D01*
G75*
G02*
X73910000Y-19413000I75000J0D01*
G01*
G37*
G36*
G01*
X74410000Y-19413000D02*
X74560000Y-19413000D01*
G75*
G02*
X74635000Y-19488000I0J-75000D01*
G01*
X74635000Y-20813000D01*
G75*
G02*
X74560000Y-20888000I-75000J0D01*
G01*
X74410000Y-20888000D01*
G75*
G02*
X74335000Y-20813000I0J75000D01*
G01*
X74335000Y-19488000D01*
G75*
G02*
X74410000Y-19413000I75000J0D01*
G01*
G37*
G36*
G01*
X74910000Y-19413000D02*
X75060000Y-19413000D01*
G75*
G02*
X75135000Y-19488000I0J-75000D01*
G01*
X75135000Y-20813000D01*
G75*
G02*
X75060000Y-20888000I-75000J0D01*
G01*
X74910000Y-20888000D01*
G75*
G02*
X74835000Y-20813000I0J75000D01*
G01*
X74835000Y-19488000D01*
G75*
G02*
X74910000Y-19413000I75000J0D01*
G01*
G37*
G36*
G01*
X75410000Y-19413000D02*
X75560000Y-19413000D01*
G75*
G02*
X75635000Y-19488000I0J-75000D01*
G01*
X75635000Y-20813000D01*
G75*
G02*
X75560000Y-20888000I-75000J0D01*
G01*
X75410000Y-20888000D01*
G75*
G02*
X75335000Y-20813000I0J75000D01*
G01*
X75335000Y-19488000D01*
G75*
G02*
X75410000Y-19413000I75000J0D01*
G01*
G37*
G36*
G01*
X75910000Y-19413000D02*
X76060000Y-19413000D01*
G75*
G02*
X76135000Y-19488000I0J-75000D01*
G01*
X76135000Y-20813000D01*
G75*
G02*
X76060000Y-20888000I-75000J0D01*
G01*
X75910000Y-20888000D01*
G75*
G02*
X75835000Y-20813000I0J75000D01*
G01*
X75835000Y-19488000D01*
G75*
G02*
X75910000Y-19413000I75000J0D01*
G01*
G37*
G36*
G01*
X76410000Y-19413000D02*
X76560000Y-19413000D01*
G75*
G02*
X76635000Y-19488000I0J-75000D01*
G01*
X76635000Y-20813000D01*
G75*
G02*
X76560000Y-20888000I-75000J0D01*
G01*
X76410000Y-20888000D01*
G75*
G02*
X76335000Y-20813000I0J75000D01*
G01*
X76335000Y-19488000D01*
G75*
G02*
X76410000Y-19413000I75000J0D01*
G01*
G37*
%TD*%
D20*
%TO.C,U3*%
X110593000Y-24639000D03*
D21*
X104293000Y-26919000D03*
X104293000Y-22359000D03*
%TD*%
D22*
%TO.C,U1*%
X54997000Y-40708000D03*
X54197000Y-40708000D03*
X53397000Y-40708000D03*
X52597000Y-40708000D03*
X51797000Y-40708000D03*
X50997000Y-40708000D03*
X50197000Y-40708000D03*
X49397000Y-40708000D03*
D23*
X47947000Y-42158000D03*
X47947000Y-42958000D03*
X47947000Y-43758000D03*
X47947000Y-44558000D03*
X47947000Y-45358000D03*
X47947000Y-46158000D03*
X47947000Y-46958000D03*
X47947000Y-47758000D03*
D22*
X49397000Y-49208000D03*
X50197000Y-49208000D03*
X50997000Y-49208000D03*
X51797000Y-49208000D03*
X52597000Y-49208000D03*
X53397000Y-49208000D03*
X54197000Y-49208000D03*
X54997000Y-49208000D03*
D23*
X56447000Y-47758000D03*
X56447000Y-46958000D03*
X56447000Y-46158000D03*
X56447000Y-45358000D03*
X56447000Y-44558000D03*
X56447000Y-43758000D03*
X56447000Y-42958000D03*
X56447000Y-42158000D03*
%TD*%
%TO.C,R28*%
G36*
G01*
X73450500Y-48698999D02*
X73450500Y-49599001D01*
G75*
G02*
X73200501Y-49849000I-249999J0D01*
G01*
X72500499Y-49849000D01*
G75*
G02*
X72250500Y-49599001I0J249999D01*
G01*
X72250500Y-48698999D01*
G75*
G02*
X72500499Y-48449000I249999J0D01*
G01*
X73200501Y-48449000D01*
G75*
G02*
X73450500Y-48698999I0J-249999D01*
G01*
G37*
G36*
G01*
X75450500Y-48698999D02*
X75450500Y-49599001D01*
G75*
G02*
X75200501Y-49849000I-249999J0D01*
G01*
X74500499Y-49849000D01*
G75*
G02*
X74250500Y-49599001I0J249999D01*
G01*
X74250500Y-48698999D01*
G75*
G02*
X74500499Y-48449000I249999J0D01*
G01*
X75200501Y-48449000D01*
G75*
G02*
X75450500Y-48698999I0J-249999D01*
G01*
G37*
%TD*%
%TO.C,R27*%
G36*
G01*
X24911000Y-24072001D02*
X24911000Y-23171999D01*
G75*
G02*
X25160999Y-22922000I249999J0D01*
G01*
X25861001Y-22922000D01*
G75*
G02*
X26111000Y-23171999I0J-249999D01*
G01*
X26111000Y-24072001D01*
G75*
G02*
X25861001Y-24322000I-249999J0D01*
G01*
X25160999Y-24322000D01*
G75*
G02*
X24911000Y-24072001I0J249999D01*
G01*
G37*
G36*
G01*
X22911000Y-24072001D02*
X22911000Y-23171999D01*
G75*
G02*
X23160999Y-22922000I249999J0D01*
G01*
X23861001Y-22922000D01*
G75*
G02*
X24111000Y-23171999I0J-249999D01*
G01*
X24111000Y-24072001D01*
G75*
G02*
X23861001Y-24322000I-249999J0D01*
G01*
X23160999Y-24322000D01*
G75*
G02*
X22911000Y-24072001I0J249999D01*
G01*
G37*
%TD*%
%TO.C,R26*%
G36*
G01*
X24911000Y-18992001D02*
X24911000Y-18091999D01*
G75*
G02*
X25160999Y-17842000I249999J0D01*
G01*
X25861001Y-17842000D01*
G75*
G02*
X26111000Y-18091999I0J-249999D01*
G01*
X26111000Y-18992001D01*
G75*
G02*
X25861001Y-19242000I-249999J0D01*
G01*
X25160999Y-19242000D01*
G75*
G02*
X24911000Y-18992001I0J249999D01*
G01*
G37*
G36*
G01*
X22911000Y-18992001D02*
X22911000Y-18091999D01*
G75*
G02*
X23160999Y-17842000I249999J0D01*
G01*
X23861001Y-17842000D01*
G75*
G02*
X24111000Y-18091999I0J-249999D01*
G01*
X24111000Y-18992001D01*
G75*
G02*
X23861001Y-19242000I-249999J0D01*
G01*
X23160999Y-19242000D01*
G75*
G02*
X22911000Y-18992001I0J249999D01*
G01*
G37*
%TD*%
%TO.C,R25*%
G36*
G01*
X24911000Y-16452001D02*
X24911000Y-15551999D01*
G75*
G02*
X25160999Y-15302000I249999J0D01*
G01*
X25861001Y-15302000D01*
G75*
G02*
X26111000Y-15551999I0J-249999D01*
G01*
X26111000Y-16452001D01*
G75*
G02*
X25861001Y-16702000I-249999J0D01*
G01*
X25160999Y-16702000D01*
G75*
G02*
X24911000Y-16452001I0J249999D01*
G01*
G37*
G36*
G01*
X22911000Y-16452001D02*
X22911000Y-15551999D01*
G75*
G02*
X23160999Y-15302000I249999J0D01*
G01*
X23861001Y-15302000D01*
G75*
G02*
X24111000Y-15551999I0J-249999D01*
G01*
X24111000Y-16452001D01*
G75*
G02*
X23861001Y-16702000I-249999J0D01*
G01*
X23160999Y-16702000D01*
G75*
G02*
X22911000Y-16452001I0J249999D01*
G01*
G37*
%TD*%
%TO.C,R24*%
G36*
G01*
X24111000Y-13011999D02*
X24111000Y-13912001D01*
G75*
G02*
X23861001Y-14162000I-249999J0D01*
G01*
X23160999Y-14162000D01*
G75*
G02*
X22911000Y-13912001I0J249999D01*
G01*
X22911000Y-13011999D01*
G75*
G02*
X23160999Y-12762000I249999J0D01*
G01*
X23861001Y-12762000D01*
G75*
G02*
X24111000Y-13011999I0J-249999D01*
G01*
G37*
G36*
G01*
X26111000Y-13011999D02*
X26111000Y-13912001D01*
G75*
G02*
X25861001Y-14162000I-249999J0D01*
G01*
X25160999Y-14162000D01*
G75*
G02*
X24911000Y-13912001I0J249999D01*
G01*
X24911000Y-13011999D01*
G75*
G02*
X25160999Y-12762000I249999J0D01*
G01*
X25861001Y-12762000D01*
G75*
G02*
X26111000Y-13011999I0J-249999D01*
G01*
G37*
%TD*%
%TO.C,R23*%
G36*
G01*
X24111000Y-20631999D02*
X24111000Y-21532001D01*
G75*
G02*
X23861001Y-21782000I-249999J0D01*
G01*
X23160999Y-21782000D01*
G75*
G02*
X22911000Y-21532001I0J249999D01*
G01*
X22911000Y-20631999D01*
G75*
G02*
X23160999Y-20382000I249999J0D01*
G01*
X23861001Y-20382000D01*
G75*
G02*
X24111000Y-20631999I0J-249999D01*
G01*
G37*
G36*
G01*
X26111000Y-20631999D02*
X26111000Y-21532001D01*
G75*
G02*
X25861001Y-21782000I-249999J0D01*
G01*
X25160999Y-21782000D01*
G75*
G02*
X24911000Y-21532001I0J249999D01*
G01*
X24911000Y-20631999D01*
G75*
G02*
X25160999Y-20382000I249999J0D01*
G01*
X25861001Y-20382000D01*
G75*
G02*
X26111000Y-20631999I0J-249999D01*
G01*
G37*
%TD*%
%TO.C,R22*%
G36*
G01*
X24095000Y-25648499D02*
X24095000Y-26548501D01*
G75*
G02*
X23845001Y-26798500I-249999J0D01*
G01*
X23144999Y-26798500D01*
G75*
G02*
X22895000Y-26548501I0J249999D01*
G01*
X22895000Y-25648499D01*
G75*
G02*
X23144999Y-25398500I249999J0D01*
G01*
X23845001Y-25398500D01*
G75*
G02*
X24095000Y-25648499I0J-249999D01*
G01*
G37*
G36*
G01*
X26095000Y-25648499D02*
X26095000Y-26548501D01*
G75*
G02*
X25845001Y-26798500I-249999J0D01*
G01*
X25144999Y-26798500D01*
G75*
G02*
X24895000Y-26548501I0J249999D01*
G01*
X24895000Y-25648499D01*
G75*
G02*
X25144999Y-25398500I249999J0D01*
G01*
X25845001Y-25398500D01*
G75*
G02*
X26095000Y-25648499I0J-249999D01*
G01*
G37*
%TD*%
%TO.C,R15*%
G36*
G01*
X83000001Y-34922000D02*
X82099999Y-34922000D01*
G75*
G02*
X81850000Y-34672001I0J249999D01*
G01*
X81850000Y-33971999D01*
G75*
G02*
X82099999Y-33722000I249999J0D01*
G01*
X83000001Y-33722000D01*
G75*
G02*
X83250000Y-33971999I0J-249999D01*
G01*
X83250000Y-34672001D01*
G75*
G02*
X83000001Y-34922000I-249999J0D01*
G01*
G37*
G36*
G01*
X83000001Y-36922000D02*
X82099999Y-36922000D01*
G75*
G02*
X81850000Y-36672001I0J249999D01*
G01*
X81850000Y-35971999D01*
G75*
G02*
X82099999Y-35722000I249999J0D01*
G01*
X83000001Y-35722000D01*
G75*
G02*
X83250000Y-35971999I0J-249999D01*
G01*
X83250000Y-36672001D01*
G75*
G02*
X83000001Y-36922000I-249999J0D01*
G01*
G37*
%TD*%
%TO.C,R14*%
G36*
G01*
X51057000Y-26866001D02*
X51057000Y-25965999D01*
G75*
G02*
X51306999Y-25716000I249999J0D01*
G01*
X52007001Y-25716000D01*
G75*
G02*
X52257000Y-25965999I0J-249999D01*
G01*
X52257000Y-26866001D01*
G75*
G02*
X52007001Y-27116000I-249999J0D01*
G01*
X51306999Y-27116000D01*
G75*
G02*
X51057000Y-26866001I0J249999D01*
G01*
G37*
G36*
G01*
X49057000Y-26866001D02*
X49057000Y-25965999D01*
G75*
G02*
X49306999Y-25716000I249999J0D01*
G01*
X50007001Y-25716000D01*
G75*
G02*
X50257000Y-25965999I0J-249999D01*
G01*
X50257000Y-26866001D01*
G75*
G02*
X50007001Y-27116000I-249999J0D01*
G01*
X49306999Y-27116000D01*
G75*
G02*
X49057000Y-26866001I0J249999D01*
G01*
G37*
%TD*%
%TO.C,R13*%
G36*
G01*
X74250500Y-47059001D02*
X74250500Y-46158999D01*
G75*
G02*
X74500499Y-45909000I249999J0D01*
G01*
X75200501Y-45909000D01*
G75*
G02*
X75450500Y-46158999I0J-249999D01*
G01*
X75450500Y-47059001D01*
G75*
G02*
X75200501Y-47309000I-249999J0D01*
G01*
X74500499Y-47309000D01*
G75*
G02*
X74250500Y-47059001I0J249999D01*
G01*
G37*
G36*
G01*
X72250500Y-47059001D02*
X72250500Y-46158999D01*
G75*
G02*
X72500499Y-45909000I249999J0D01*
G01*
X73200501Y-45909000D01*
G75*
G02*
X73450500Y-46158999I0J-249999D01*
G01*
X73450500Y-47059001D01*
G75*
G02*
X73200501Y-47309000I-249999J0D01*
G01*
X72500499Y-47309000D01*
G75*
G02*
X72250500Y-47059001I0J249999D01*
G01*
G37*
%TD*%
%TO.C,R12*%
G36*
G01*
X37103000Y-41153501D02*
X37103000Y-40253499D01*
G75*
G02*
X37352999Y-40003500I249999J0D01*
G01*
X38053001Y-40003500D01*
G75*
G02*
X38303000Y-40253499I0J-249999D01*
G01*
X38303000Y-41153501D01*
G75*
G02*
X38053001Y-41403500I-249999J0D01*
G01*
X37352999Y-41403500D01*
G75*
G02*
X37103000Y-41153501I0J249999D01*
G01*
G37*
G36*
G01*
X35103000Y-41153501D02*
X35103000Y-40253499D01*
G75*
G02*
X35352999Y-40003500I249999J0D01*
G01*
X36053001Y-40003500D01*
G75*
G02*
X36303000Y-40253499I0J-249999D01*
G01*
X36303000Y-41153501D01*
G75*
G02*
X36053001Y-41403500I-249999J0D01*
G01*
X35352999Y-41403500D01*
G75*
G02*
X35103000Y-41153501I0J249999D01*
G01*
G37*
%TD*%
%TO.C,R11*%
G36*
G01*
X37166500Y-45852501D02*
X37166500Y-44952499D01*
G75*
G02*
X37416499Y-44702500I249999J0D01*
G01*
X38116501Y-44702500D01*
G75*
G02*
X38366500Y-44952499I0J-249999D01*
G01*
X38366500Y-45852501D01*
G75*
G02*
X38116501Y-46102500I-249999J0D01*
G01*
X37416499Y-46102500D01*
G75*
G02*
X37166500Y-45852501I0J249999D01*
G01*
G37*
G36*
G01*
X35166500Y-45852501D02*
X35166500Y-44952499D01*
G75*
G02*
X35416499Y-44702500I249999J0D01*
G01*
X36116501Y-44702500D01*
G75*
G02*
X36366500Y-44952499I0J-249999D01*
G01*
X36366500Y-45852501D01*
G75*
G02*
X36116501Y-46102500I-249999J0D01*
G01*
X35416499Y-46102500D01*
G75*
G02*
X35166500Y-45852501I0J249999D01*
G01*
G37*
%TD*%
%TO.C,R10*%
G36*
G01*
X88195999Y-33960000D02*
X89096001Y-33960000D01*
G75*
G02*
X89346000Y-34209999I0J-249999D01*
G01*
X89346000Y-34910001D01*
G75*
G02*
X89096001Y-35160000I-249999J0D01*
G01*
X88195999Y-35160000D01*
G75*
G02*
X87946000Y-34910001I0J249999D01*
G01*
X87946000Y-34209999D01*
G75*
G02*
X88195999Y-33960000I249999J0D01*
G01*
G37*
G36*
G01*
X88195999Y-35960000D02*
X89096001Y-35960000D01*
G75*
G02*
X89346000Y-36209999I0J-249999D01*
G01*
X89346000Y-36910001D01*
G75*
G02*
X89096001Y-37160000I-249999J0D01*
G01*
X88195999Y-37160000D01*
G75*
G02*
X87946000Y-36910001I0J249999D01*
G01*
X87946000Y-36209999D01*
G75*
G02*
X88195999Y-35960000I249999J0D01*
G01*
G37*
%TD*%
%TO.C,R9*%
G36*
G01*
X85274999Y-34007500D02*
X86175001Y-34007500D01*
G75*
G02*
X86425000Y-34257499I0J-249999D01*
G01*
X86425000Y-34957501D01*
G75*
G02*
X86175001Y-35207500I-249999J0D01*
G01*
X85274999Y-35207500D01*
G75*
G02*
X85025000Y-34957501I0J249999D01*
G01*
X85025000Y-34257499D01*
G75*
G02*
X85274999Y-34007500I249999J0D01*
G01*
G37*
G36*
G01*
X85274999Y-36007500D02*
X86175001Y-36007500D01*
G75*
G02*
X86425000Y-36257499I0J-249999D01*
G01*
X86425000Y-36957501D01*
G75*
G02*
X86175001Y-37207500I-249999J0D01*
G01*
X85274999Y-37207500D01*
G75*
G02*
X85025000Y-36957501I0J249999D01*
G01*
X85025000Y-36257499D01*
G75*
G02*
X85274999Y-36007500I249999J0D01*
G01*
G37*
%TD*%
%TO.C,R8*%
G36*
G01*
X48676000Y-34676501D02*
X48676000Y-33776499D01*
G75*
G02*
X48925999Y-33526500I249999J0D01*
G01*
X49626001Y-33526500D01*
G75*
G02*
X49876000Y-33776499I0J-249999D01*
G01*
X49876000Y-34676501D01*
G75*
G02*
X49626001Y-34926500I-249999J0D01*
G01*
X48925999Y-34926500D01*
G75*
G02*
X48676000Y-34676501I0J249999D01*
G01*
G37*
G36*
G01*
X46676000Y-34676501D02*
X46676000Y-33776499D01*
G75*
G02*
X46925999Y-33526500I249999J0D01*
G01*
X47626001Y-33526500D01*
G75*
G02*
X47876000Y-33776499I0J-249999D01*
G01*
X47876000Y-34676501D01*
G75*
G02*
X47626001Y-34926500I-249999J0D01*
G01*
X46925999Y-34926500D01*
G75*
G02*
X46676000Y-34676501I0J249999D01*
G01*
G37*
%TD*%
%TO.C,R7*%
G36*
G01*
X15678999Y-37246000D02*
X16579001Y-37246000D01*
G75*
G02*
X16829000Y-37495999I0J-249999D01*
G01*
X16829000Y-38196001D01*
G75*
G02*
X16579001Y-38446000I-249999J0D01*
G01*
X15678999Y-38446000D01*
G75*
G02*
X15429000Y-38196001I0J249999D01*
G01*
X15429000Y-37495999D01*
G75*
G02*
X15678999Y-37246000I249999J0D01*
G01*
G37*
G36*
G01*
X15678999Y-35246000D02*
X16579001Y-35246000D01*
G75*
G02*
X16829000Y-35495999I0J-249999D01*
G01*
X16829000Y-36196001D01*
G75*
G02*
X16579001Y-36446000I-249999J0D01*
G01*
X15678999Y-36446000D01*
G75*
G02*
X15429000Y-36196001I0J249999D01*
G01*
X15429000Y-35495999D01*
G75*
G02*
X15678999Y-35246000I249999J0D01*
G01*
G37*
%TD*%
%TO.C,R6*%
G36*
G01*
X24695999Y-37722000D02*
X25596001Y-37722000D01*
G75*
G02*
X25846000Y-37971999I0J-249999D01*
G01*
X25846000Y-38672001D01*
G75*
G02*
X25596001Y-38922000I-249999J0D01*
G01*
X24695999Y-38922000D01*
G75*
G02*
X24446000Y-38672001I0J249999D01*
G01*
X24446000Y-37971999D01*
G75*
G02*
X24695999Y-37722000I249999J0D01*
G01*
G37*
G36*
G01*
X24695999Y-35722000D02*
X25596001Y-35722000D01*
G75*
G02*
X25846000Y-35971999I0J-249999D01*
G01*
X25846000Y-36672001D01*
G75*
G02*
X25596001Y-36922000I-249999J0D01*
G01*
X24695999Y-36922000D01*
G75*
G02*
X24446000Y-36672001I0J249999D01*
G01*
X24446000Y-35971999D01*
G75*
G02*
X24695999Y-35722000I249999J0D01*
G01*
G37*
%TD*%
%TO.C,R5*%
G36*
G01*
X27235999Y-37722000D02*
X28136001Y-37722000D01*
G75*
G02*
X28386000Y-37971999I0J-249999D01*
G01*
X28386000Y-38672001D01*
G75*
G02*
X28136001Y-38922000I-249999J0D01*
G01*
X27235999Y-38922000D01*
G75*
G02*
X26986000Y-38672001I0J249999D01*
G01*
X26986000Y-37971999D01*
G75*
G02*
X27235999Y-37722000I249999J0D01*
G01*
G37*
G36*
G01*
X27235999Y-35722000D02*
X28136001Y-35722000D01*
G75*
G02*
X28386000Y-35971999I0J-249999D01*
G01*
X28386000Y-36672001D01*
G75*
G02*
X28136001Y-36922000I-249999J0D01*
G01*
X27235999Y-36922000D01*
G75*
G02*
X26986000Y-36672001I0J249999D01*
G01*
X26986000Y-35971999D01*
G75*
G02*
X27235999Y-35722000I249999J0D01*
G01*
G37*
%TD*%
%TO.C,R4*%
G36*
G01*
X29775999Y-37595000D02*
X30676001Y-37595000D01*
G75*
G02*
X30926000Y-37844999I0J-249999D01*
G01*
X30926000Y-38545001D01*
G75*
G02*
X30676001Y-38795000I-249999J0D01*
G01*
X29775999Y-38795000D01*
G75*
G02*
X29526000Y-38545001I0J249999D01*
G01*
X29526000Y-37844999D01*
G75*
G02*
X29775999Y-37595000I249999J0D01*
G01*
G37*
G36*
G01*
X29775999Y-35595000D02*
X30676001Y-35595000D01*
G75*
G02*
X30926000Y-35844999I0J-249999D01*
G01*
X30926000Y-36545001D01*
G75*
G02*
X30676001Y-36795000I-249999J0D01*
G01*
X29775999Y-36795000D01*
G75*
G02*
X29526000Y-36545001I0J249999D01*
G01*
X29526000Y-35844999D01*
G75*
G02*
X29775999Y-35595000I249999J0D01*
G01*
G37*
%TD*%
%TO.C,R3*%
G36*
G01*
X22155999Y-37722000D02*
X23056001Y-37722000D01*
G75*
G02*
X23306000Y-37971999I0J-249999D01*
G01*
X23306000Y-38672001D01*
G75*
G02*
X23056001Y-38922000I-249999J0D01*
G01*
X22155999Y-38922000D01*
G75*
G02*
X21906000Y-38672001I0J249999D01*
G01*
X21906000Y-37971999D01*
G75*
G02*
X22155999Y-37722000I249999J0D01*
G01*
G37*
G36*
G01*
X22155999Y-35722000D02*
X23056001Y-35722000D01*
G75*
G02*
X23306000Y-35971999I0J-249999D01*
G01*
X23306000Y-36672001D01*
G75*
G02*
X23056001Y-36922000I-249999J0D01*
G01*
X22155999Y-36922000D01*
G75*
G02*
X21906000Y-36672001I0J249999D01*
G01*
X21906000Y-35971999D01*
G75*
G02*
X22155999Y-35722000I249999J0D01*
G01*
G37*
%TD*%
%TO.C,R2*%
G36*
G01*
X38119000Y-26612001D02*
X38119000Y-25711999D01*
G75*
G02*
X38368999Y-25462000I249999J0D01*
G01*
X39069001Y-25462000D01*
G75*
G02*
X39319000Y-25711999I0J-249999D01*
G01*
X39319000Y-26612001D01*
G75*
G02*
X39069001Y-26862000I-249999J0D01*
G01*
X38368999Y-26862000D01*
G75*
G02*
X38119000Y-26612001I0J249999D01*
G01*
G37*
G36*
G01*
X36119000Y-26612001D02*
X36119000Y-25711999D01*
G75*
G02*
X36368999Y-25462000I249999J0D01*
G01*
X37069001Y-25462000D01*
G75*
G02*
X37319000Y-25711999I0J-249999D01*
G01*
X37319000Y-26612001D01*
G75*
G02*
X37069001Y-26862000I-249999J0D01*
G01*
X36368999Y-26862000D01*
G75*
G02*
X36119000Y-26612001I0J249999D01*
G01*
G37*
%TD*%
%TO.C,R1*%
G36*
G01*
X37230000Y-49980001D02*
X37230000Y-49079999D01*
G75*
G02*
X37479999Y-48830000I249999J0D01*
G01*
X38180001Y-48830000D01*
G75*
G02*
X38430000Y-49079999I0J-249999D01*
G01*
X38430000Y-49980001D01*
G75*
G02*
X38180001Y-50230000I-249999J0D01*
G01*
X37479999Y-50230000D01*
G75*
G02*
X37230000Y-49980001I0J249999D01*
G01*
G37*
G36*
G01*
X35230000Y-49980001D02*
X35230000Y-49079999D01*
G75*
G02*
X35479999Y-48830000I249999J0D01*
G01*
X36180001Y-48830000D01*
G75*
G02*
X36430000Y-49079999I0J-249999D01*
G01*
X36430000Y-49980001D01*
G75*
G02*
X36180001Y-50230000I-249999J0D01*
G01*
X35479999Y-50230000D01*
G75*
G02*
X35230000Y-49980001I0J249999D01*
G01*
G37*
%TD*%
D11*
%TO.C,PWM_I/O10*%
X17145000Y1905000D03*
D10*
X17145000Y4445000D03*
X17145000Y6985000D03*
%TD*%
D11*
%TO.C,PWM_I/O9*%
X20955000Y1905000D03*
D10*
X20955000Y4445000D03*
X20955000Y6985000D03*
%TD*%
D11*
%TO.C,PWM_I/O8*%
X24765000Y1905000D03*
D10*
X24765000Y4445000D03*
X24765000Y6985000D03*
%TD*%
D11*
%TO.C,PWM_I/O7*%
X28575000Y1905000D03*
D10*
X28575000Y4445000D03*
X28575000Y6985000D03*
%TD*%
D11*
%TO.C,PWM_I/O6*%
X32385000Y1905000D03*
D10*
X32385000Y4445000D03*
X32385000Y6985000D03*
%TD*%
D11*
%TO.C,PWM_I/O5*%
X36195000Y1905000D03*
D10*
X36195000Y4445000D03*
X36195000Y6985000D03*
%TD*%
D11*
%TO.C,PWM_I/O4*%
X47625000Y1905000D03*
D10*
X47625000Y4445000D03*
X47625000Y6985000D03*
%TD*%
D11*
%TO.C,PWM_I/O3*%
X51435000Y1905000D03*
D10*
X51435000Y4445000D03*
X51435000Y6985000D03*
%TD*%
D11*
%TO.C,PWM_I/O2*%
X40005000Y1905000D03*
D10*
X40005000Y4445000D03*
X40005000Y6985000D03*
%TD*%
D11*
%TO.C,PWM_I/O1*%
X43815000Y1905000D03*
D10*
X43815000Y4445000D03*
X43815000Y6985000D03*
%TD*%
D12*
%TO.C,JP4*%
G36*
X76950000Y7124000D02*
G01*
X76950000Y6574000D01*
X76949398Y6574000D01*
X76949398Y6549466D01*
X76944588Y6500635D01*
X76935016Y6452510D01*
X76920772Y6405555D01*
X76901995Y6360222D01*
X76878864Y6316949D01*
X76851604Y6276150D01*
X76820476Y6238221D01*
X76785779Y6203524D01*
X76747850Y6172396D01*
X76707051Y6145136D01*
X76663778Y6122005D01*
X76618445Y6103228D01*
X76571490Y6088984D01*
X76523365Y6079412D01*
X76474534Y6074602D01*
X76450000Y6074602D01*
X76450000Y6074000D01*
X75950000Y6074000D01*
X75950000Y6074602D01*
X75925466Y6074602D01*
X75876635Y6079412D01*
X75828510Y6088984D01*
X75781555Y6103228D01*
X75736222Y6122005D01*
X75692949Y6145136D01*
X75652150Y6172396D01*
X75614221Y6203524D01*
X75579524Y6238221D01*
X75548396Y6276150D01*
X75521136Y6316949D01*
X75498005Y6360222D01*
X75479228Y6405555D01*
X75464984Y6452510D01*
X75455412Y6500635D01*
X75450602Y6549466D01*
X75450602Y6574000D01*
X75450000Y6574000D01*
X75450000Y7124000D01*
X76950000Y7124000D01*
G37*
D13*
X76200000Y7874000D03*
D12*
G36*
X75450602Y9174000D02*
G01*
X75450602Y9198534D01*
X75455412Y9247365D01*
X75464984Y9295490D01*
X75479228Y9342445D01*
X75498005Y9387778D01*
X75521136Y9431051D01*
X75548396Y9471850D01*
X75579524Y9509779D01*
X75614221Y9544476D01*
X75652150Y9575604D01*
X75692949Y9602864D01*
X75736222Y9625995D01*
X75781555Y9644772D01*
X75828510Y9659016D01*
X75876635Y9668588D01*
X75925466Y9673398D01*
X75950000Y9673398D01*
X75950000Y9674000D01*
X76450000Y9674000D01*
X76450000Y9673398D01*
X76474534Y9673398D01*
X76523365Y9668588D01*
X76571490Y9659016D01*
X76618445Y9644772D01*
X76663778Y9625995D01*
X76707051Y9602864D01*
X76747850Y9575604D01*
X76785779Y9544476D01*
X76820476Y9509779D01*
X76851604Y9471850D01*
X76878864Y9431051D01*
X76901995Y9387778D01*
X76920772Y9342445D01*
X76935016Y9295490D01*
X76944588Y9247365D01*
X76949398Y9198534D01*
X76949398Y9174000D01*
X76950000Y9174000D01*
X76950000Y8624000D01*
X75450000Y8624000D01*
X75450000Y9174000D01*
X75450602Y9174000D01*
G37*
%TD*%
%TO.C,JP3*%
G36*
X97524000Y7124000D02*
G01*
X97524000Y6574000D01*
X97523398Y6574000D01*
X97523398Y6549466D01*
X97518588Y6500635D01*
X97509016Y6452510D01*
X97494772Y6405555D01*
X97475995Y6360222D01*
X97452864Y6316949D01*
X97425604Y6276150D01*
X97394476Y6238221D01*
X97359779Y6203524D01*
X97321850Y6172396D01*
X97281051Y6145136D01*
X97237778Y6122005D01*
X97192445Y6103228D01*
X97145490Y6088984D01*
X97097365Y6079412D01*
X97048534Y6074602D01*
X97024000Y6074602D01*
X97024000Y6074000D01*
X96524000Y6074000D01*
X96524000Y6074602D01*
X96499466Y6074602D01*
X96450635Y6079412D01*
X96402510Y6088984D01*
X96355555Y6103228D01*
X96310222Y6122005D01*
X96266949Y6145136D01*
X96226150Y6172396D01*
X96188221Y6203524D01*
X96153524Y6238221D01*
X96122396Y6276150D01*
X96095136Y6316949D01*
X96072005Y6360222D01*
X96053228Y6405555D01*
X96038984Y6452510D01*
X96029412Y6500635D01*
X96024602Y6549466D01*
X96024602Y6574000D01*
X96024000Y6574000D01*
X96024000Y7124000D01*
X97524000Y7124000D01*
G37*
D13*
X96774000Y7874000D03*
D12*
G36*
X96024602Y9174000D02*
G01*
X96024602Y9198534D01*
X96029412Y9247365D01*
X96038984Y9295490D01*
X96053228Y9342445D01*
X96072005Y9387778D01*
X96095136Y9431051D01*
X96122396Y9471850D01*
X96153524Y9509779D01*
X96188221Y9544476D01*
X96226150Y9575604D01*
X96266949Y9602864D01*
X96310222Y9625995D01*
X96355555Y9644772D01*
X96402510Y9659016D01*
X96450635Y9668588D01*
X96499466Y9673398D01*
X96524000Y9673398D01*
X96524000Y9674000D01*
X97024000Y9674000D01*
X97024000Y9673398D01*
X97048534Y9673398D01*
X97097365Y9668588D01*
X97145490Y9659016D01*
X97192445Y9644772D01*
X97237778Y9625995D01*
X97281051Y9602864D01*
X97321850Y9575604D01*
X97359779Y9544476D01*
X97394476Y9509779D01*
X97425604Y9471850D01*
X97452864Y9431051D01*
X97475995Y9387778D01*
X97494772Y9342445D01*
X97509016Y9295490D01*
X97518588Y9247365D01*
X97523398Y9198534D01*
X97523398Y9174000D01*
X97524000Y9174000D01*
X97524000Y8624000D01*
X96024000Y8624000D01*
X96024000Y9174000D01*
X96024602Y9174000D01*
G37*
%TD*%
%TO.C,JP2*%
G36*
X90412000Y7124000D02*
G01*
X90412000Y6574000D01*
X90411398Y6574000D01*
X90411398Y6549466D01*
X90406588Y6500635D01*
X90397016Y6452510D01*
X90382772Y6405555D01*
X90363995Y6360222D01*
X90340864Y6316949D01*
X90313604Y6276150D01*
X90282476Y6238221D01*
X90247779Y6203524D01*
X90209850Y6172396D01*
X90169051Y6145136D01*
X90125778Y6122005D01*
X90080445Y6103228D01*
X90033490Y6088984D01*
X89985365Y6079412D01*
X89936534Y6074602D01*
X89912000Y6074602D01*
X89912000Y6074000D01*
X89412000Y6074000D01*
X89412000Y6074602D01*
X89387466Y6074602D01*
X89338635Y6079412D01*
X89290510Y6088984D01*
X89243555Y6103228D01*
X89198222Y6122005D01*
X89154949Y6145136D01*
X89114150Y6172396D01*
X89076221Y6203524D01*
X89041524Y6238221D01*
X89010396Y6276150D01*
X88983136Y6316949D01*
X88960005Y6360222D01*
X88941228Y6405555D01*
X88926984Y6452510D01*
X88917412Y6500635D01*
X88912602Y6549466D01*
X88912602Y6574000D01*
X88912000Y6574000D01*
X88912000Y7124000D01*
X90412000Y7124000D01*
G37*
D13*
X89662000Y7874000D03*
D12*
G36*
X88912602Y9174000D02*
G01*
X88912602Y9198534D01*
X88917412Y9247365D01*
X88926984Y9295490D01*
X88941228Y9342445D01*
X88960005Y9387778D01*
X88983136Y9431051D01*
X89010396Y9471850D01*
X89041524Y9509779D01*
X89076221Y9544476D01*
X89114150Y9575604D01*
X89154949Y9602864D01*
X89198222Y9625995D01*
X89243555Y9644772D01*
X89290510Y9659016D01*
X89338635Y9668588D01*
X89387466Y9673398D01*
X89412000Y9673398D01*
X89412000Y9674000D01*
X89912000Y9674000D01*
X89912000Y9673398D01*
X89936534Y9673398D01*
X89985365Y9668588D01*
X90033490Y9659016D01*
X90080445Y9644772D01*
X90125778Y9625995D01*
X90169051Y9602864D01*
X90209850Y9575604D01*
X90247779Y9544476D01*
X90282476Y9509779D01*
X90313604Y9471850D01*
X90340864Y9431051D01*
X90363995Y9387778D01*
X90382772Y9342445D01*
X90397016Y9295490D01*
X90406588Y9247365D01*
X90411398Y9198534D01*
X90411398Y9174000D01*
X90412000Y9174000D01*
X90412000Y8624000D01*
X88912000Y8624000D01*
X88912000Y9174000D01*
X88912602Y9174000D01*
G37*
%TD*%
%TO.C,JP1*%
G36*
X57188000Y-33540000D02*
G01*
X57688000Y-33540000D01*
X57688000Y-33540602D01*
X57712534Y-33540602D01*
X57761365Y-33545412D01*
X57809490Y-33554984D01*
X57856445Y-33569228D01*
X57901778Y-33588005D01*
X57945051Y-33611136D01*
X57985850Y-33638396D01*
X58023779Y-33669524D01*
X58058476Y-33704221D01*
X58089604Y-33742150D01*
X58116864Y-33782949D01*
X58139995Y-33826222D01*
X58158772Y-33871555D01*
X58173016Y-33918510D01*
X58182588Y-33966635D01*
X58187398Y-34015466D01*
X58187398Y-34040000D01*
X58188000Y-34040000D01*
X58188000Y-34540000D01*
X58187398Y-34540000D01*
X58187398Y-34564534D01*
X58182588Y-34613365D01*
X58173016Y-34661490D01*
X58158772Y-34708445D01*
X58139995Y-34753778D01*
X58116864Y-34797051D01*
X58089604Y-34837850D01*
X58058476Y-34875779D01*
X58023779Y-34910476D01*
X57985850Y-34941604D01*
X57945051Y-34968864D01*
X57901778Y-34991995D01*
X57856445Y-35010772D01*
X57809490Y-35025016D01*
X57761365Y-35034588D01*
X57712534Y-35039398D01*
X57688000Y-35039398D01*
X57688000Y-35040000D01*
X57188000Y-35040000D01*
X57188000Y-33540000D01*
G37*
G36*
X56388000Y-35039398D02*
G01*
X56363466Y-35039398D01*
X56314635Y-35034588D01*
X56266510Y-35025016D01*
X56219555Y-35010772D01*
X56174222Y-34991995D01*
X56130949Y-34968864D01*
X56090150Y-34941604D01*
X56052221Y-34910476D01*
X56017524Y-34875779D01*
X55986396Y-34837850D01*
X55959136Y-34797051D01*
X55936005Y-34753778D01*
X55917228Y-34708445D01*
X55902984Y-34661490D01*
X55893412Y-34613365D01*
X55888602Y-34564534D01*
X55888602Y-34540000D01*
X55888000Y-34540000D01*
X55888000Y-34040000D01*
X55888602Y-34040000D01*
X55888602Y-34015466D01*
X55893412Y-33966635D01*
X55902984Y-33918510D01*
X55917228Y-33871555D01*
X55936005Y-33826222D01*
X55959136Y-33782949D01*
X55986396Y-33742150D01*
X56017524Y-33704221D01*
X56052221Y-33669524D01*
X56090150Y-33638396D01*
X56130949Y-33611136D01*
X56174222Y-33588005D01*
X56219555Y-33569228D01*
X56266510Y-33554984D01*
X56314635Y-33545412D01*
X56363466Y-33540602D01*
X56388000Y-33540602D01*
X56388000Y-33540000D01*
X56888000Y-33540000D01*
X56888000Y-35040000D01*
X56388000Y-35040000D01*
X56388000Y-35039398D01*
G37*
%TD*%
D24*
%TO.C,J4*%
X4055000Y-25852000D03*
D25*
X4505000Y-12352000D03*
D26*
X8655000Y-12352000D03*
D27*
X14855000Y-12352000D03*
X19155000Y-23502000D03*
D28*
X19155000Y-15352000D03*
X19155000Y-16452000D03*
X19155000Y-17552000D03*
X19155000Y-18652000D03*
X19155000Y-19752000D03*
X19155000Y-20852000D03*
X19155000Y-21952000D03*
X19155000Y-14252000D03*
X19155000Y-13302000D03*
%TD*%
D29*
%TO.C,J3*%
X20206000Y-44488000D03*
X21006000Y-44488000D03*
X21806000Y-44488000D03*
X23406000Y-44488000D03*
X24206000Y-44488000D03*
X25006000Y-44488000D03*
X19806000Y-43788000D03*
X21406000Y-43788000D03*
X22206000Y-43788000D03*
X23006000Y-43788000D03*
X23806000Y-43788000D03*
X25406000Y-43788000D03*
X19006000Y-43138000D03*
D30*
X26206000Y-43138000D03*
D31*
X18116000Y-50338000D03*
X27096000Y-50338000D03*
X26736000Y-44388000D03*
D32*
X24856000Y-42478000D03*
X23356000Y-42478000D03*
X23856000Y-42478000D03*
X24356000Y-42478000D03*
X25356000Y-42478000D03*
X22856000Y-42478000D03*
X22356000Y-42478000D03*
X21856000Y-42478000D03*
X21356000Y-42478000D03*
X20856000Y-42478000D03*
X20356000Y-42478000D03*
X19856000Y-42478000D03*
D31*
X18476000Y-44388000D03*
%TD*%
D10*
%TO.C,J2*%
X105410000Y-38862000D03*
X102870000Y-38862000D03*
X105410000Y-36322000D03*
X102870000Y-36322000D03*
X105410000Y-33782000D03*
D11*
X102870000Y-33782000D03*
%TD*%
D10*
%TO.C,J1*%
X105410000Y-48260000D03*
X102870000Y-48260000D03*
X105410000Y-45720000D03*
X102870000Y-45720000D03*
X105410000Y-43180000D03*
D11*
X102870000Y-43180000D03*
%TD*%
%TO.C,D3*%
G36*
G01*
X41646500Y-45190000D02*
X41646500Y-45615000D01*
G75*
G02*
X41434000Y-45827500I-212500J0D01*
G01*
X40634000Y-45827500D01*
G75*
G02*
X40421500Y-45615000I0J212500D01*
G01*
X40421500Y-45190000D01*
G75*
G02*
X40634000Y-44977500I212500J0D01*
G01*
X41434000Y-44977500D01*
G75*
G02*
X41646500Y-45190000I0J-212500D01*
G01*
G37*
G36*
G01*
X43271500Y-45190000D02*
X43271500Y-45615000D01*
G75*
G02*
X43059000Y-45827500I-212500J0D01*
G01*
X42259000Y-45827500D01*
G75*
G02*
X42046500Y-45615000I0J212500D01*
G01*
X42046500Y-45190000D01*
G75*
G02*
X42259000Y-44977500I212500J0D01*
G01*
X43059000Y-44977500D01*
G75*
G02*
X43271500Y-45190000I0J-212500D01*
G01*
G37*
%TD*%
%TO.C,D2*%
G36*
G01*
X41583000Y-40491000D02*
X41583000Y-40916000D01*
G75*
G02*
X41370500Y-41128500I-212500J0D01*
G01*
X40570500Y-41128500D01*
G75*
G02*
X40358000Y-40916000I0J212500D01*
G01*
X40358000Y-40491000D01*
G75*
G02*
X40570500Y-40278500I212500J0D01*
G01*
X41370500Y-40278500D01*
G75*
G02*
X41583000Y-40491000I0J-212500D01*
G01*
G37*
G36*
G01*
X43208000Y-40491000D02*
X43208000Y-40916000D01*
G75*
G02*
X42995500Y-41128500I-212500J0D01*
G01*
X42195500Y-41128500D01*
G75*
G02*
X41983000Y-40916000I0J212500D01*
G01*
X41983000Y-40491000D01*
G75*
G02*
X42195500Y-40278500I212500J0D01*
G01*
X42995500Y-40278500D01*
G75*
G02*
X43208000Y-40491000I0J-212500D01*
G01*
G37*
%TD*%
%TO.C,D1*%
G36*
G01*
X73650500Y-43856500D02*
X73650500Y-44281500D01*
G75*
G02*
X73438000Y-44494000I-212500J0D01*
G01*
X72638000Y-44494000D01*
G75*
G02*
X72425500Y-44281500I0J212500D01*
G01*
X72425500Y-43856500D01*
G75*
G02*
X72638000Y-43644000I212500J0D01*
G01*
X73438000Y-43644000D01*
G75*
G02*
X73650500Y-43856500I0J-212500D01*
G01*
G37*
G36*
G01*
X75275500Y-43856500D02*
X75275500Y-44281500D01*
G75*
G02*
X75063000Y-44494000I-212500J0D01*
G01*
X74263000Y-44494000D01*
G75*
G02*
X74050500Y-44281500I0J212500D01*
G01*
X74050500Y-43856500D01*
G75*
G02*
X74263000Y-43644000I212500J0D01*
G01*
X75063000Y-43644000D01*
G75*
G02*
X75275500Y-43856500I0J-212500D01*
G01*
G37*
%TD*%
D33*
%TO.C,Crystal2*%
X53140000Y-21209000D03*
X48260000Y-21209000D03*
%TD*%
%TO.C,Crystal1*%
X40059000Y-21082000D03*
X35179000Y-21082000D03*
%TD*%
%TO.C,C13*%
G36*
G01*
X83497000Y-21877000D02*
X83497000Y-22827000D01*
G75*
G02*
X83247000Y-23077000I-250000J0D01*
G01*
X82572000Y-23077000D01*
G75*
G02*
X82322000Y-22827000I0J250000D01*
G01*
X82322000Y-21877000D01*
G75*
G02*
X82572000Y-21627000I250000J0D01*
G01*
X83247000Y-21627000D01*
G75*
G02*
X83497000Y-21877000I0J-250000D01*
G01*
G37*
G36*
G01*
X85572000Y-21877000D02*
X85572000Y-22827000D01*
G75*
G02*
X85322000Y-23077000I-250000J0D01*
G01*
X84647000Y-23077000D01*
G75*
G02*
X84397000Y-22827000I0J250000D01*
G01*
X84397000Y-21877000D01*
G75*
G02*
X84647000Y-21627000I250000J0D01*
G01*
X85322000Y-21627000D01*
G75*
G02*
X85572000Y-21877000I0J-250000D01*
G01*
G37*
%TD*%
%TO.C,C11*%
G36*
G01*
X53409000Y-16223000D02*
X53409000Y-15273000D01*
G75*
G02*
X53659000Y-15023000I250000J0D01*
G01*
X54334000Y-15023000D01*
G75*
G02*
X54584000Y-15273000I0J-250000D01*
G01*
X54584000Y-16223000D01*
G75*
G02*
X54334000Y-16473000I-250000J0D01*
G01*
X53659000Y-16473000D01*
G75*
G02*
X53409000Y-16223000I0J250000D01*
G01*
G37*
G36*
G01*
X51334000Y-16223000D02*
X51334000Y-15273000D01*
G75*
G02*
X51584000Y-15023000I250000J0D01*
G01*
X52259000Y-15023000D01*
G75*
G02*
X52509000Y-15273000I0J-250000D01*
G01*
X52509000Y-16223000D01*
G75*
G02*
X52259000Y-16473000I-250000J0D01*
G01*
X51584000Y-16473000D01*
G75*
G02*
X51334000Y-16223000I0J250000D01*
G01*
G37*
%TD*%
%TO.C,C10*%
G36*
G01*
X48423500Y-15273000D02*
X48423500Y-16223000D01*
G75*
G02*
X48173500Y-16473000I-250000J0D01*
G01*
X47498500Y-16473000D01*
G75*
G02*
X47248500Y-16223000I0J250000D01*
G01*
X47248500Y-15273000D01*
G75*
G02*
X47498500Y-15023000I250000J0D01*
G01*
X48173500Y-15023000D01*
G75*
G02*
X48423500Y-15273000I0J-250000D01*
G01*
G37*
G36*
G01*
X50498500Y-15273000D02*
X50498500Y-16223000D01*
G75*
G02*
X50248500Y-16473000I-250000J0D01*
G01*
X49573500Y-16473000D01*
G75*
G02*
X49323500Y-16223000I0J250000D01*
G01*
X49323500Y-15273000D01*
G75*
G02*
X49573500Y-15023000I250000J0D01*
G01*
X50248500Y-15023000D01*
G75*
G02*
X50498500Y-15273000I0J-250000D01*
G01*
G37*
%TD*%
%TO.C,C5*%
G36*
G01*
X52424000Y-33751500D02*
X52424000Y-34701500D01*
G75*
G02*
X52174000Y-34951500I-250000J0D01*
G01*
X51499000Y-34951500D01*
G75*
G02*
X51249000Y-34701500I0J250000D01*
G01*
X51249000Y-33751500D01*
G75*
G02*
X51499000Y-33501500I250000J0D01*
G01*
X52174000Y-33501500D01*
G75*
G02*
X52424000Y-33751500I0J-250000D01*
G01*
G37*
G36*
G01*
X54499000Y-33751500D02*
X54499000Y-34701500D01*
G75*
G02*
X54249000Y-34951500I-250000J0D01*
G01*
X53574000Y-34951500D01*
G75*
G02*
X53324000Y-34701500I0J250000D01*
G01*
X53324000Y-33751500D01*
G75*
G02*
X53574000Y-33501500I250000J0D01*
G01*
X54249000Y-33501500D01*
G75*
G02*
X54499000Y-33751500I0J-250000D01*
G01*
G37*
%TD*%
%TO.C,C4*%
G36*
G01*
X43767500Y-48801000D02*
X43767500Y-49751000D01*
G75*
G02*
X43517500Y-50001000I-250000J0D01*
G01*
X42842500Y-50001000D01*
G75*
G02*
X42592500Y-49751000I0J250000D01*
G01*
X42592500Y-48801000D01*
G75*
G02*
X42842500Y-48551000I250000J0D01*
G01*
X43517500Y-48551000D01*
G75*
G02*
X43767500Y-48801000I0J-250000D01*
G01*
G37*
G36*
G01*
X41692500Y-48801000D02*
X41692500Y-49751000D01*
G75*
G02*
X41442500Y-50001000I-250000J0D01*
G01*
X40767500Y-50001000D01*
G75*
G02*
X40517500Y-49751000I0J250000D01*
G01*
X40517500Y-48801000D01*
G75*
G02*
X40767500Y-48551000I250000J0D01*
G01*
X41442500Y-48551000D01*
G75*
G02*
X41692500Y-48801000I0J-250000D01*
G01*
G37*
%TD*%
%TO.C,C2*%
G36*
G01*
X39809000Y-15527000D02*
X39809000Y-16477000D01*
G75*
G02*
X39559000Y-16727000I-250000J0D01*
G01*
X38884000Y-16727000D01*
G75*
G02*
X38634000Y-16477000I0J250000D01*
G01*
X38634000Y-15527000D01*
G75*
G02*
X38884000Y-15277000I250000J0D01*
G01*
X39559000Y-15277000D01*
G75*
G02*
X39809000Y-15527000I0J-250000D01*
G01*
G37*
G36*
G01*
X41884000Y-15527000D02*
X41884000Y-16477000D01*
G75*
G02*
X41634000Y-16727000I-250000J0D01*
G01*
X40959000Y-16727000D01*
G75*
G02*
X40709000Y-16477000I0J250000D01*
G01*
X40709000Y-15527000D01*
G75*
G02*
X40959000Y-15277000I250000J0D01*
G01*
X41634000Y-15277000D01*
G75*
G02*
X41884000Y-15527000I0J-250000D01*
G01*
G37*
%TD*%
%TO.C,C1*%
G36*
G01*
X36666500Y-16477000D02*
X36666500Y-15527000D01*
G75*
G02*
X36916500Y-15277000I250000J0D01*
G01*
X37591500Y-15277000D01*
G75*
G02*
X37841500Y-15527000I0J-250000D01*
G01*
X37841500Y-16477000D01*
G75*
G02*
X37591500Y-16727000I-250000J0D01*
G01*
X36916500Y-16727000D01*
G75*
G02*
X36666500Y-16477000I0J250000D01*
G01*
G37*
G36*
G01*
X34591500Y-16477000D02*
X34591500Y-15527000D01*
G75*
G02*
X34841500Y-15277000I250000J0D01*
G01*
X35516500Y-15277000D01*
G75*
G02*
X35766500Y-15527000I0J-250000D01*
G01*
X35766500Y-16477000D01*
G75*
G02*
X35516500Y-16727000I-250000J0D01*
G01*
X34841500Y-16727000D01*
G75*
G02*
X34591500Y-16477000I0J250000D01*
G01*
G37*
%TD*%
%TO.C,500ma1*%
G36*
G01*
X18933000Y-37441500D02*
X20183000Y-37441500D01*
G75*
G02*
X20433000Y-37691500I0J-250000D01*
G01*
X20433000Y-38616500D01*
G75*
G02*
X20183000Y-38866500I-250000J0D01*
G01*
X18933000Y-38866500D01*
G75*
G02*
X18683000Y-38616500I0J250000D01*
G01*
X18683000Y-37691500D01*
G75*
G02*
X18933000Y-37441500I250000J0D01*
G01*
G37*
G36*
G01*
X18933000Y-34466500D02*
X20183000Y-34466500D01*
G75*
G02*
X20433000Y-34716500I0J-250000D01*
G01*
X20433000Y-35641500D01*
G75*
G02*
X20183000Y-35891500I-250000J0D01*
G01*
X18933000Y-35891500D01*
G75*
G02*
X18683000Y-35641500I0J250000D01*
G01*
X18683000Y-34716500D01*
G75*
G02*
X18933000Y-34466500I250000J0D01*
G01*
G37*
%TD*%
M02*
