%TF.GenerationSoftware,KiCad,Pcbnew,(5.1.9)-1*%
%TF.CreationDate,2021-03-02T01:46:48-05:00*%
%TF.ProjectId,sailboatController,7361696c-626f-4617-9443-6f6e74726f6c,rev?*%
%TF.SameCoordinates,Original*%
%TF.FileFunction,Soldermask,Bot*%
%TF.FilePolarity,Negative*%
%FSLAX46Y46*%
G04 Gerber Fmt 4.6, Leading zero omitted, Abs format (unit mm)*
G04 Created by KiCad (PCBNEW (5.1.9)-1) date 2021-03-02 01:46:48*
%MOMM*%
%LPD*%
G01*
G04 APERTURE LIST*
%ADD10O,1.700000X1.700000*%
%ADD11R,1.700000X1.700000*%
%ADD12C,1.600000*%
%ADD13R,1.600000X1.600000*%
%ADD14C,0.800000*%
%ADD15C,7.000000*%
%ADD16O,1.950000X1.700000*%
%ADD17C,2.000000*%
%ADD18C,0.650000*%
%ADD19O,0.950000X0.650000*%
%ADD20O,0.800000X1.400000*%
%ADD21C,1.500000*%
G04 APERTURE END LIST*
D10*
%TO.C,J5*%
X114808000Y-49149000D03*
D11*
X112268000Y-49149000D03*
%TD*%
D12*
%TO.C,Cb3*%
X120690000Y-21590000D03*
D13*
X123190000Y-21590000D03*
%TD*%
D12*
%TO.C,Cb2*%
X120690000Y-13208000D03*
D13*
X123190000Y-13208000D03*
%TD*%
D12*
%TO.C,Cb1*%
X120690000Y-4826000D03*
D13*
X123190000Y-4826000D03*
%TD*%
D14*
%TO.C,H4*%
X125046155Y8206155D03*
X123190000Y8975000D03*
X121333845Y8206155D03*
X120565000Y6350000D03*
X121333845Y4493845D03*
X123190000Y3725000D03*
X125046155Y4493845D03*
X125815000Y6350000D03*
D15*
X123190000Y6350000D03*
%TD*%
D14*
%TO.C,H3*%
X9857155Y8206155D03*
X8001000Y8975000D03*
X6144845Y8206155D03*
X5376000Y6350000D03*
X6144845Y4493845D03*
X8001000Y3725000D03*
X9857155Y4493845D03*
X10626000Y6350000D03*
D15*
X8001000Y6350000D03*
%TD*%
D14*
%TO.C,H2*%
X9857155Y-46403845D03*
X8001000Y-45635000D03*
X6144845Y-46403845D03*
X5376000Y-48260000D03*
X6144845Y-50116155D03*
X8001000Y-50885000D03*
X9857155Y-50116155D03*
X10626000Y-48260000D03*
D15*
X8001000Y-48260000D03*
%TD*%
D14*
%TO.C,H1*%
X125046155Y-46403845D03*
X123190000Y-45635000D03*
X121333845Y-46403845D03*
X120565000Y-48260000D03*
X121333845Y-50116155D03*
X123190000Y-50885000D03*
X125046155Y-50116155D03*
X125815000Y-48260000D03*
D15*
X123190000Y-48260000D03*
%TD*%
D16*
%TO.C,Windvane1*%
X89535000Y1912000D03*
X89535000Y-588000D03*
X89535000Y-3088000D03*
G36*
G01*
X90260000Y-6438000D02*
X88810000Y-6438000D01*
G75*
G02*
X88560000Y-6188000I0J250000D01*
G01*
X88560000Y-4988000D01*
G75*
G02*
X88810000Y-4738000I250000J0D01*
G01*
X90260000Y-4738000D01*
G75*
G02*
X90510000Y-4988000I0J-250000D01*
G01*
X90510000Y-6188000D01*
G75*
G02*
X90260000Y-6438000I-250000J0D01*
G01*
G37*
%TD*%
%TO.C,Transceiver1*%
X82677000Y1825000D03*
X82677000Y-675000D03*
X82677000Y-3175000D03*
G36*
G01*
X83402000Y-6525000D02*
X81952000Y-6525000D01*
G75*
G02*
X81702000Y-6275000I0J250000D01*
G01*
X81702000Y-5075000D01*
G75*
G02*
X81952000Y-4825000I250000J0D01*
G01*
X83402000Y-4825000D01*
G75*
G02*
X83652000Y-5075000I0J-250000D01*
G01*
X83652000Y-6275000D01*
G75*
G02*
X83402000Y-6525000I-250000J0D01*
G01*
G37*
%TD*%
%TO.C,GPS1*%
X62865000Y1912000D03*
X62865000Y-588000D03*
X62865000Y-3088000D03*
G36*
G01*
X63590000Y-6438000D02*
X62140000Y-6438000D01*
G75*
G02*
X61890000Y-6188000I0J250000D01*
G01*
X61890000Y-4988000D01*
G75*
G02*
X62140000Y-4738000I250000J0D01*
G01*
X63590000Y-4738000D01*
G75*
G02*
X63840000Y-4988000I0J-250000D01*
G01*
X63840000Y-6188000D01*
G75*
G02*
X63590000Y-6438000I-250000J0D01*
G01*
G37*
%TD*%
%TO.C,extraSerial1*%
X75819000Y1785000D03*
X75819000Y-715000D03*
X75819000Y-3215000D03*
G36*
G01*
X76544000Y-6565000D02*
X75094000Y-6565000D01*
G75*
G02*
X74844000Y-6315000I0J250000D01*
G01*
X74844000Y-5115000D01*
G75*
G02*
X75094000Y-4865000I250000J0D01*
G01*
X76544000Y-4865000D01*
G75*
G02*
X76794000Y-5115000I0J-250000D01*
G01*
X76794000Y-6315000D01*
G75*
G02*
X76544000Y-6565000I-250000J0D01*
G01*
G37*
%TD*%
%TO.C,Extra2*%
X110109000Y1865000D03*
X110109000Y-635000D03*
X110109000Y-3135000D03*
G36*
G01*
X110834000Y-6485000D02*
X109384000Y-6485000D01*
G75*
G02*
X109134000Y-6235000I0J250000D01*
G01*
X109134000Y-5035000D01*
G75*
G02*
X109384000Y-4785000I250000J0D01*
G01*
X110834000Y-4785000D01*
G75*
G02*
X111084000Y-5035000I0J-250000D01*
G01*
X111084000Y-6235000D01*
G75*
G02*
X110834000Y-6485000I-250000J0D01*
G01*
G37*
%TD*%
%TO.C,Extra1*%
X103505000Y1865000D03*
X103505000Y-635000D03*
X103505000Y-3135000D03*
G36*
G01*
X104230000Y-6485000D02*
X102780000Y-6485000D01*
G75*
G02*
X102530000Y-6235000I0J250000D01*
G01*
X102530000Y-5035000D01*
G75*
G02*
X102780000Y-4785000I250000J0D01*
G01*
X104230000Y-4785000D01*
G75*
G02*
X104480000Y-5035000I0J-250000D01*
G01*
X104480000Y-6235000D01*
G75*
G02*
X104230000Y-6485000I-250000J0D01*
G01*
G37*
%TD*%
%TO.C,BNO55*%
X69215000Y1912000D03*
X69215000Y-588000D03*
X69215000Y-3088000D03*
G36*
G01*
X69940000Y-6438000D02*
X68490000Y-6438000D01*
G75*
G02*
X68240000Y-6188000I0J250000D01*
G01*
X68240000Y-4988000D01*
G75*
G02*
X68490000Y-4738000I250000J0D01*
G01*
X69940000Y-4738000D01*
G75*
G02*
X70190000Y-4988000I0J-250000D01*
G01*
X70190000Y-6188000D01*
G75*
G02*
X69940000Y-6438000I-250000J0D01*
G01*
G37*
%TD*%
%TO.C,Anemometer1*%
X96901000Y2039000D03*
X96901000Y-461000D03*
X96901000Y-2961000D03*
G36*
G01*
X97626000Y-6311000D02*
X96176000Y-6311000D01*
G75*
G02*
X95926000Y-6061000I0J250000D01*
G01*
X95926000Y-4861000D01*
G75*
G02*
X96176000Y-4611000I250000J0D01*
G01*
X97626000Y-4611000D01*
G75*
G02*
X97876000Y-4861000I0J-250000D01*
G01*
X97876000Y-6061000D01*
G75*
G02*
X97626000Y-6311000I-250000J0D01*
G01*
G37*
%TD*%
%TO.C,3S_battery_pin1*%
X112776000Y-40600000D03*
X112776000Y-38100000D03*
X112776000Y-35600000D03*
G36*
G01*
X112051000Y-32250000D02*
X113501000Y-32250000D01*
G75*
G02*
X113751000Y-32500000I0J-250000D01*
G01*
X113751000Y-33700000D01*
G75*
G02*
X113501000Y-33950000I-250000J0D01*
G01*
X112051000Y-33950000D01*
G75*
G02*
X111801000Y-33700000I0J250000D01*
G01*
X111801000Y-32500000D01*
G75*
G02*
X112051000Y-32250000I250000J0D01*
G01*
G37*
%TD*%
%TO.C,2s_battery_pin1*%
X120396000Y-38528000D03*
X120396000Y-36028000D03*
G36*
G01*
X119671000Y-32678000D02*
X121121000Y-32678000D01*
G75*
G02*
X121371000Y-32928000I0J-250000D01*
G01*
X121371000Y-34128000D01*
G75*
G02*
X121121000Y-34378000I-250000J0D01*
G01*
X119671000Y-34378000D01*
G75*
G02*
X119421000Y-34128000I0J250000D01*
G01*
X119421000Y-32928000D01*
G75*
G02*
X119671000Y-32678000I250000J0D01*
G01*
G37*
%TD*%
D17*
%TO.C,SW1*%
X88034000Y-44450000D03*
X88034000Y-48950000D03*
X81534000Y-44450000D03*
X81534000Y-48950000D03*
%TD*%
D11*
%TO.C,PWM_I/O10*%
X17145000Y1905000D03*
D10*
X17145000Y4445000D03*
X17145000Y6985000D03*
%TD*%
D11*
%TO.C,PWM_I/O9*%
X20955000Y1905000D03*
D10*
X20955000Y4445000D03*
X20955000Y6985000D03*
%TD*%
D11*
%TO.C,PWM_I/O8*%
X24765000Y1905000D03*
D10*
X24765000Y4445000D03*
X24765000Y6985000D03*
%TD*%
D11*
%TO.C,PWM_I/O7*%
X28575000Y1905000D03*
D10*
X28575000Y4445000D03*
X28575000Y6985000D03*
%TD*%
D11*
%TO.C,PWM_I/O6*%
X32385000Y1905000D03*
D10*
X32385000Y4445000D03*
X32385000Y6985000D03*
%TD*%
D11*
%TO.C,PWM_I/O5*%
X36195000Y1905000D03*
D10*
X36195000Y4445000D03*
X36195000Y6985000D03*
%TD*%
D11*
%TO.C,PWM_I/O4*%
X47625000Y1905000D03*
D10*
X47625000Y4445000D03*
X47625000Y6985000D03*
%TD*%
D11*
%TO.C,PWM_I/O3*%
X51435000Y1905000D03*
D10*
X51435000Y4445000D03*
X51435000Y6985000D03*
%TD*%
D11*
%TO.C,PWM_I/O2*%
X40005000Y1905000D03*
D10*
X40005000Y4445000D03*
X40005000Y6985000D03*
%TD*%
D11*
%TO.C,PWM_I/O1*%
X43815000Y1905000D03*
D10*
X43815000Y4445000D03*
X43815000Y6985000D03*
%TD*%
D18*
%TO.C,J3*%
X20206000Y-44488000D03*
X21006000Y-44488000D03*
X21806000Y-44488000D03*
X23406000Y-44488000D03*
X24206000Y-44488000D03*
X25006000Y-44488000D03*
X19806000Y-43788000D03*
X21406000Y-43788000D03*
X22206000Y-43788000D03*
X23006000Y-43788000D03*
X23806000Y-43788000D03*
X25406000Y-43788000D03*
X19006000Y-43138000D03*
D19*
X26206000Y-43138000D03*
D20*
X18116000Y-50338000D03*
X27096000Y-50338000D03*
X26736000Y-44388000D03*
X18476000Y-44388000D03*
%TD*%
D10*
%TO.C,J2*%
X105410000Y-38862000D03*
X102870000Y-38862000D03*
X105410000Y-36322000D03*
X102870000Y-36322000D03*
X105410000Y-33782000D03*
D11*
X102870000Y-33782000D03*
%TD*%
D10*
%TO.C,J1*%
X105410000Y-48260000D03*
X102870000Y-48260000D03*
X105410000Y-45720000D03*
X102870000Y-45720000D03*
X105410000Y-43180000D03*
D11*
X102870000Y-43180000D03*
%TD*%
D21*
%TO.C,Crystal2*%
X53140000Y-21209000D03*
X48260000Y-21209000D03*
%TD*%
%TO.C,Crystal1*%
X40059000Y-21082000D03*
X35179000Y-21082000D03*
%TD*%
M02*
